<svg width="145" height="52" viewBox="0 0 145 52" fill="none" xmlns="http://www.w3.org/2000/svg">
<g clip-path="url(#clip0_18_2240)">
<path d="M51.9958 25.5466C51.9774 24.4391 51.8898 23.3486 51.7358 22.2778C51.6582 21.7411 51.5649 21.2113 51.4562 20.6859C51.2768 19.8171 51.0522 18.9639 50.788 18.1291C50.6326 17.6361 50.4617 17.1502 50.2767 16.6699C49.9701 15.869 49.6226 15.0864 49.2384 14.3264C49.011 13.873 48.7694 13.4266 48.5152 12.9887C48.0886 12.2499 47.6252 11.5337 47.1294 10.8444C46.8314 10.4291 46.522 10.0223 46.1985 9.62675C45.5925 8.8795 44.9441 8.16614 44.2605 7.49093C44.0726 7.30588 43.8819 7.12224 43.6869 6.94284C43.492 6.76203 43.2928 6.58264 43.0923 6.40748C38.5225 2.41834 32.5417 0 25.9972 0C11.6397 0 0 11.6397 0 25.9972C0 40.3547 11.6397 52 25.9972 52C40.3547 52 51.281 41.0624 51.9675 27.3165C51.9887 26.8786 52 26.4393 52 25.9972C52 25.846 52 25.6963 51.9958 25.5466ZM49.7201 25.9972C49.7201 26.2853 49.7144 26.5735 49.7046 26.8617L28.8675 38.8178L28.6387 35.5307L49.5915 23.5082C49.6777 24.3303 49.7201 25.1609 49.7201 25.9972ZM40.1908 36.2568C40.2445 36.374 40.2247 36.5266 40.1188 36.6198C39.9888 36.9461 35.9107 41.9043 30.4525 39.6597L39.8885 34.2467C39.7176 34.8541 39.8052 35.5335 40.1908 36.2568ZM27.7276 22.453C28.9961 22.4996 30.2618 22.5957 31.5161 22.7454L27.8943 24.8247L27.729 22.4544L27.7276 22.453ZM26 13.8334C24.2823 13.8334 22.8853 12.4364 22.8853 10.7173C22.8853 8.99815 24.2823 7.60252 26 7.60252C27.7177 7.60252 29.1162 8.99957 29.1162 10.7173C29.1162 12.435 27.7191 13.8334 26 13.8334ZM24.61 45.3481V39.4125C24.61 39.4125 24.61 39.1342 24.7767 39.0297C24.9434 38.9251 25.2782 39.0509 25.2782 39.0509L30.4708 42.0342C30.4708 42.0342 30.759 42.1472 30.7632 42.4368C30.7675 42.6812 30.492 42.8055 30.492 42.8055L25.257 45.8101C25.257 45.8101 24.9646 45.9344 24.7767 45.8101C24.5902 45.6829 24.61 45.3496 24.61 45.3496V45.3481ZM49.3669 21.8851L28.5229 33.8455L28.3251 31.0189L48.7609 19.2931C49.0124 20.1448 49.213 21.0108 49.3669 21.8851ZM47.8569 16.7659C48.0052 17.1149 48.1436 17.4666 48.2736 17.8211L28.2079 29.3337L28.0101 26.5085L34.3484 22.8725L34.3583 22.8669C34.4585 22.8217 34.5546 22.7666 34.6436 22.703L34.6492 22.6988L47.2594 15.4635C47.4698 15.8901 47.669 16.3238 47.8569 16.7659ZM46.5418 14.1244L35.2383 20.611H35.2355C35.0095 20.0799 34.5249 19.6716 33.9119 19.5727C33.3836 19.488 32.851 19.4131 32.3185 19.3467H32.3213L45.1433 11.9872C45.6476 12.6737 46.1138 13.387 46.5418 14.1244ZM42.773 9.22699C43.2716 9.72563 43.7463 10.2426 44.1955 10.7794L29.7236 19.084C28.9791 19.0289 28.2333 18.9908 27.4874 18.9682L27.3631 17.1883L42.2023 8.67467C42.3959 8.85548 42.5865 9.03912 42.7744 9.22699H42.773ZM47.8583 35.2298C46.6633 38.055 44.9526 40.592 42.773 42.7716C40.5948 44.9512 38.0564 46.6619 35.2312 47.8569C32.3072 49.0929 29.2023 49.7201 25.9986 49.7201C22.7948 49.7201 19.69 49.0929 16.7674 47.8569C13.9436 46.6633 11.4066 44.9512 9.2284 42.7716C7.04879 40.592 5.33956 38.055 4.14311 35.2298C2.9071 32.3072 2.27991 29.2009 2.27991 25.9972C2.27991 22.7934 2.90568 19.6886 4.14311 16.7659C5.33815 13.9422 7.04738 11.4052 9.22699 9.22558C11.4066 7.04738 13.9436 5.33674 16.7674 4.14169C19.69 2.90568 22.7963 2.2785 25.9986 2.2785C29.2009 2.2785 32.3086 2.90427 35.2312 4.14169C37.319 5.02456 39.2472 6.18853 40.9917 7.61523L31.7506 12.9181C32.012 12.2344 32.156 11.4928 32.156 10.7173C32.156 7.31859 29.4001 4.56406 26.0014 4.56406C22.6027 4.56406 19.8482 7.31859 19.8482 10.7173C19.8482 13.6597 21.9134 16.1204 24.6736 16.7278L24.5168 18.9653C22.3584 19.0317 20.2028 19.2323 18.0895 19.5713C17.1431 19.7239 16.4976 20.6138 16.6501 21.5617C16.8027 22.5095 17.694 23.1536 18.6404 23.0011C20.4938 22.703 22.381 22.5208 24.2738 22.4516L23.1325 38.8192C23.083 38.8517 23.035 38.8828 22.9841 38.9138C16.8196 42.7885 12.0225 36.9729 11.8812 36.6184C11.7767 36.5237 11.7569 36.3726 11.8092 36.2554C12.6497 34.6803 12.0748 33.3172 10.5124 32.4513L5.15169 30.2561C5.15875 30.3183 5.16864 30.379 5.17853 30.4412C5.18842 30.5019 5.19972 30.5626 5.20961 30.6262C6.51483 38.3926 13.9846 46.4429 21.693 46.4895C21.7086 46.4895 21.7227 46.4895 21.7382 46.4895C23.4941 46.4895 25.0465 47.3512 25.9986 48.6762C26.9521 47.3512 28.5045 46.4895 30.2603 46.4895C30.2759 46.4895 30.2914 46.4895 30.3056 46.4895C38.0126 46.4443 45.4838 38.394 46.789 30.6262C46.8003 30.5626 46.8102 30.5019 46.8201 30.4412C46.8314 30.3776 46.8398 30.3169 46.8483 30.2561L46.8158 30.2688L49.5704 28.6896C49.3175 30.9426 48.744 33.1321 47.8569 35.2284L47.8583 35.2298Z" fill="#01B1EC"/>
<path d="M144.701 10.5746V9.12524H137.975V7.77905H136.526V9.12524H129.801V10.5746H132.855L133.903 14.0862H129.802V15.5355H144.701V14.0862H140.573L141.621 10.5746H144.702H144.701ZM135.414 14.0862L134.368 10.5746H140.108L139.062 14.0862H135.414Z" fill="#01B1EC"/>
<path d="M131.172 28.4861H143.328V16.8125H131.172V28.4861ZM141.88 18.2618V27.0382H132.622V18.2618H141.88Z" fill="#01B1EC"/>
<path d="M140.604 21.2523L133.862 22.5985V24.0761L140.604 22.7299V21.2523Z" fill="#01B1EC"/>
<path d="M86.9021 18.2139H83.7351V19.6632H86.9021V21.6352L83.6616 22.2821V23.7597L91.5904 22.1762V20.6986L88.3514 21.3456V19.6632H91.5763V18.2139H88.3514V16.8564H91.6851V7.92322H83.6023V16.8564H86.9035V18.2139H86.9021ZM90.2358 9.37111V15.4071H85.0502V9.37111H90.2358Z" fill="#01B1EC"/>
<path d="M87.453 10.5153H86.0037V14.2614H87.453V10.5153Z" fill="#01B1EC"/>
<path d="M89.377 10.5153H87.9277V14.2614H89.377V10.5153Z" fill="#01B1EC"/>
<path d="M96.8001 7.44434H95.3508V17.5443H93.1331V28.6218H100.23V17.5443H96.8001V12.904L100.857 12.0931V10.6156L96.8001 11.4264V7.44575V7.44434ZM94.5824 27.1725V18.9922H98.782V27.1725H94.5824Z" fill="#01B1EC"/>
<path d="M83.8524 24.7767L82.7195 28.5807H84.2295L85.4613 24.4546L83.8524 24.7767Z" fill="#01B1EC"/>
<path d="M86.0842 24.3317L84.8171 28.5808H86.3286L87.6917 24.0096L86.0842 24.3317Z" fill="#01B1EC"/>
<path d="M89.9222 23.5633L88.3161 23.8854L86.9148 28.5808H88.4263L89.7682 24.086L91.1088 28.5808H92.6202L91.0565 23.3387L89.9222 23.5633Z" fill="#01B1EC"/>
<path d="M66.2839 27.9254H76.1692V13.955H66.2839V27.9254ZM70.4482 19.7706L68.6698 20.1251V21.6027L70.4482 21.2481V26.4775H67.7332V15.4043H70.4482V19.7706ZM71.8975 20.9585L73.7819 20.5828V19.1052L71.8975 19.481V15.4029H74.7213V26.4761H71.8975V20.9571V20.9585Z" fill="#01B1EC"/>
<path d="M68.6699 13.0127H70.1178V11.7428H72.2494V13.0127H73.6987V11.7428H76.1397V10.2949H73.6987V7.62231H72.2494V10.2949H70.1178V7.62231H68.6699V10.2949H66.229V11.7428H68.6699V13.0127Z" fill="#01B1EC"/>
<path d="M58.8977 19.3566V26.0098L60.3484 25.7203V19.3566H58.8977Z" fill="#01B1EC"/>
<path d="M63.2427 19.3566V25.1425L64.692 24.8529V19.3566H63.2427Z" fill="#01B1EC"/>
<path d="M62.5592 7.83564H61.0406L58.5178 12.7627H58.5107V14.212H61.0759V15.554H58.5093V17.0033H61.0759V25.5749L62.5253 25.2853V17.0033H65.0919V15.554H62.5253V14.212H65.0919V12.7627H65.0834L62.5606 7.83423L62.5592 7.83564ZM60.145 12.7641L61.7992 9.52933L63.4547 12.7641H60.145Z" fill="#01B1EC"/>
<path d="M58.4795 28.6175L65.0904 27.2967V25.8177L58.4795 27.1413V28.6175Z" fill="#01B1EC"/>
<path d="M107.488 15.6656H116.446V7.81726H107.488V15.6656ZM114.997 9.26657V14.2163H108.937V9.26657H114.997Z" fill="#01B1EC"/>
<path d="M107.488 24.1283H111.242V27.1159H110.076V28.5652H112.69V24.1283H116.445V19.4159H107.486V24.1283H107.488ZM114.997 20.8652V22.679H108.937V20.8652H114.997Z" fill="#01B1EC"/>
<path d="M116.435 16.8168H107.462V18.2661H116.435V16.8168Z" fill="#01B1EC"/>
<path d="M117.569 12.6285V14.5072L123.549 9.57026L123.574 9.55049V7.67175L117.593 12.6073L117.569 12.6285Z" fill="#01B1EC"/>
<path d="M117.569 19.69V21.5673L123.549 16.6317L123.574 16.6105V14.7318L117.593 19.6688L117.569 19.69Z" fill="#01B1EC"/>
<path d="M117.569 26.7501V28.6288L123.549 23.6918L123.574 23.6707V21.7933L117.593 26.7289L117.569 26.7501Z" fill="#01B1EC"/>
<path d="M107.52 28.5327H109.032L110.045 25.1411H108.532L107.52 28.5327Z" fill="#01B1EC"/>
<path d="M113.839 25.1411L114.85 28.5327H116.361L115.35 25.1411H113.839Z" fill="#01B1EC"/>
<path d="M111.07 13.0749C111.107 13.0989 111.148 13.1074 111.186 13.1074C111.252 13.1074 111.31 13.0834 111.324 13.0778L113.295 11.9463C113.348 11.9208 113.436 11.8502 113.435 11.7443C113.433 11.6214 113.337 11.5507 113.289 11.5338L111.321 10.4051C111.294 10.3953 111.159 10.3486 111.071 10.4051C110.978 10.4645 110.977 10.5944 110.977 10.6086V12.8418C110.977 12.8588 110.97 13.0085 111.071 13.0778L111.07 13.0749Z" fill="#01B1EC"/>
<path d="M61.2086 36.5223H60.2579L58.4795 44.4893H59.6209L59.9387 42.8648L60.1605 41.7037H60.1576L60.2014 41.4862L60.2509 41.2305L60.717 38.8192H60.7396L61.2369 41.383L61.5109 42.7801L61.5278 42.8662L61.8457 44.4907H62.987L61.2086 36.5238V36.5223Z" fill="#01B1EC"/>
<path d="M64.8983 40.1824V41.1952L59.8936 42.1953V41.1825L64.8983 40.1824Z" fill="#01B1EC"/>
<path d="M67.9663 44.4893V36.5223H69.0625L70.7858 41.3223H70.8084V36.5223H71.9498V44.4893H70.8762L69.1303 39.7007H69.1077V44.4893H67.9663Z" fill="#01B1EC"/>
<path d="M80.5751 42.2179V42.7108C80.5751 42.9566 80.5284 43.1897 80.4352 43.4101C80.342 43.6304 80.2134 43.8254 80.0496 43.9977C79.8857 44.17 79.6936 44.3057 79.4732 44.4059C79.2529 44.5062 79.0156 44.5571 78.7627 44.5571C78.5466 44.5571 78.3262 44.5274 78.103 44.4681C77.8798 44.4088 77.6778 44.3042 77.4985 44.1545C77.3191 44.0062 77.1721 43.8127 77.0563 43.5782C76.9405 43.3437 76.8826 43.0428 76.8826 42.6769V38.2909C76.8826 38.0296 76.9278 37.788 77.0168 37.5634C77.1057 37.3402 77.2329 37.1453 77.3967 36.9814C77.5606 36.8176 77.757 36.689 77.9844 36.5958C78.2118 36.5026 78.4632 36.4559 78.7401 36.4559C79.2769 36.4559 79.7134 36.6311 80.0496 36.9814C80.2134 37.1537 80.342 37.3557 80.4352 37.5917C80.5284 37.8261 80.5751 38.0818 80.5751 38.3587V38.8065H79.4337V38.4265C79.4337 38.2033 79.3701 38.0084 79.243 37.8445C79.1159 37.6806 78.9449 37.5987 78.7288 37.5987C78.4449 37.5987 78.257 37.6863 78.1638 37.8615C78.0706 38.0366 78.0239 38.2584 78.0239 38.5268V42.5993C78.0239 42.8309 78.0748 43.0244 78.1751 43.1812C78.2754 43.338 78.4562 43.4157 78.7175 43.4157C78.7924 43.4157 78.8729 43.403 78.9577 43.3762C79.0438 43.3508 79.1229 43.307 79.1978 43.2476C79.2656 43.1883 79.3207 43.1064 79.3659 43.0018C79.4111 42.8973 79.4337 42.7674 79.4337 42.6106V42.2193H80.5751V42.2179Z" fill="#01B1EC"/>
<path d="M85.5093 44.4893V36.5223H86.6506V40.2233L88.0604 39.9351V36.5223H89.2018V44.4893H88.0604V40.9423L86.6506 41.2305V44.4893H85.5093Z" fill="#01B1EC"/>
<path d="M94.1345 38.4025C94.1345 38.0818 94.191 37.7979 94.3026 37.5521C94.4142 37.3063 94.5639 37.1015 94.7504 36.9362C94.9298 36.7794 95.1332 36.6608 95.3606 36.5788C95.5881 36.4969 95.8169 36.4559 96.0486 36.4559C96.2802 36.4559 96.5091 36.4969 96.7365 36.5788C96.9639 36.6608 97.1716 36.7808 97.358 36.9362C97.5374 37.1001 97.6829 37.3049 97.7945 37.5521C97.9061 37.7979 97.9626 38.0818 97.9626 38.4025V42.6091C97.9626 42.9453 97.9061 43.2321 97.7945 43.4708C97.6829 43.7095 97.5374 43.9073 97.358 44.0641C97.1716 44.228 96.9639 44.3509 96.7365 44.4328C96.5091 44.5147 96.2788 44.5557 96.0486 44.5557C95.8183 44.5557 95.5881 44.5147 95.3606 44.4328C95.1332 44.3509 94.9298 44.228 94.7504 44.0641C94.5639 43.9073 94.4142 43.7095 94.3026 43.4708C94.191 43.2321 94.1345 42.9453 94.1345 42.6091V38.4025ZM95.2759 42.6091C95.2759 42.8846 95.3522 43.088 95.5047 43.2194C95.6573 43.3493 95.8381 43.4157 96.0472 43.4157C96.2562 43.4157 96.437 43.3508 96.5896 43.2194C96.7421 43.0894 96.8184 42.886 96.8184 42.6091V38.4025C96.8184 38.127 96.7421 37.9236 96.5896 37.7922C96.437 37.6623 96.2562 37.5959 96.0472 37.5959C95.8381 37.5959 95.6573 37.6609 95.5047 37.7922C95.3522 37.9222 95.2759 38.1256 95.2759 38.4025V42.6091Z" fill="#01B1EC"/>
<path d="M102.885 44.4893V36.5223H104.72C106.062 36.5223 106.735 37.3021 106.735 38.8602C106.735 39.3306 106.663 39.7289 106.517 40.058C106.372 40.3858 106.116 40.6513 105.75 40.8519L106.981 44.4879H105.773L104.711 41.0864H104.028V44.4879H102.887L102.885 44.4893ZM104.027 37.5973V40.0806H104.675C104.877 40.0806 105.037 40.0524 105.157 39.9973C105.276 39.9408 105.369 39.8617 105.437 39.7572C105.496 39.6526 105.537 39.5241 105.56 39.3715C105.582 39.219 105.593 39.041 105.593 38.8404C105.593 38.6398 105.582 38.4618 105.56 38.3093C105.537 38.1567 105.492 38.0239 105.425 37.9123C105.284 37.7033 105.014 37.5987 104.62 37.5987H104.027V37.5973Z" fill="#01B1EC"/>
<path d="M116.842 44.4893V36.5223H120.243V37.5959H117.983V40.0128L119.952 39.6145V40.688L117.983 41.0864V44.4879H116.842V44.4893Z" fill="#01B1EC"/>
<path d="M125.066 44.4893V36.5223H126.207V44.4893H125.066Z" fill="#01B1EC"/>
<path d="M131.141 44.4893V36.5223H132.283V43.3479H134.543V44.4893H131.141Z" fill="#01B1EC"/>
<path d="M138.548 44.4893V36.5223H139.644L141.11 40.7403H141.133L142.588 36.5223H143.695V44.4893H142.554V39.6441H142.531L141.401 43.0683H140.83L139.712 39.6441H139.689V44.4893H138.548Z" fill="#01B1EC"/>
</g>
<defs>
<clipPath id="clip0_18_2240">
<rect width="144.701" height="52" fill="white"/>
</clipPath>
</defs>
</svg>
