<svg width="72" height="100" viewBox="0 0 72 100" fill="none" xmlns="http://www.w3.org/2000/svg">
<g id="logo" clip-path="url(#clip0_139_9696)">
<path id="Vector" d="M71.9999 71.7079V70.5019H66.384V69.3818H65.1744V70.5019H59.5585V71.7079H62.1084L62.9833 74.6319H59.5585V75.838H71.9999V74.6319H68.5536L69.4285 71.7079H72.0012H71.9999ZM64.2449 74.6319L63.3713 71.7079H68.1643L67.2906 74.6319H64.2449Z" fill="white"/>
<path id="Vector_2" d="M60.7035 86.6199H70.855V76.9009H60.7035V86.6199ZM69.6453 78.1069V85.4138H61.9132V78.1069H69.6453Z" fill="white"/>
<path id="Vector_3" d="M68.5802 80.5977L62.9491 81.719V82.949L68.5802 81.8277V80.5977Z" fill="white"/>
<path id="Vector_4" d="M23.7354 78.0678H21.0916V79.2738H23.7354V80.916L21.0295 81.4545V82.6846L27.6496 81.366V80.136L24.9437 80.6745V79.2738H27.637V78.0678H24.9437V76.9376H27.7282V69.5005H20.9788V76.9376H23.7354V78.0678ZM26.5199 70.7052V75.7303H22.1897V70.7052H26.5199Z" fill="white"/>
<path id="Vector_5" d="M24.1944 71.6587H22.9847V74.7774H24.1944V71.6587Z" fill="white"/>
<path id="Vector_6" d="M25.801 71.6587H24.5913V74.7774H25.801V71.6587Z" fill="white"/>
<path id="Vector_7" d="M32.0002 69.1011H30.7905V77.5091H28.938V86.7325H34.8646V77.5091H32.0002V73.6458L35.3882 72.9707V71.7407L32.0002 72.4157V69.1011ZM30.1476 85.5265V78.7164H33.6549V85.5265H30.1476Z" fill="white"/>
<path id="Vector_8" d="M21.188 83.5314L20.2421 86.6994H21.5037L22.5308 83.2646L21.188 83.5314Z" fill="white"/>
<path id="Vector_9" d="M23.052 83.1613L21.9945 86.6997H23.2562L24.3948 82.8945L23.052 83.1613Z" fill="white"/>
<path id="Vector_10" d="M26.2562 82.5228L26.2575 82.5216L24.916 82.7896L23.7456 86.6997H25.0073L26.1281 82.9577L27.2478 86.6997H28.5094L27.2034 82.3345L26.2562 82.5228Z" fill="white"/>
<path id="Vector_11" d="M6.51746 86.1536H14.7733V74.522H6.51746V86.1536ZM9.99427 79.3638L8.50946 79.6596V80.8896L9.99427 80.5938V84.9476H7.72711V75.728H9.99427V79.3638ZM11.2039 80.3536L12.7775 80.0401V78.8101L11.2039 79.1236V75.7293H13.5624V84.9489H11.2039V80.3549V80.3536Z" fill="white"/>
<path id="Vector_12" d="M8.50945 73.7378H9.71911V72.681H11.4994V73.7378H12.709V72.681H14.7479V71.475H12.709V69.25H11.4994V71.475H9.71911V69.25H8.50945V71.475H6.4718V72.681H8.50945V73.7378Z" fill="white"/>
<path id="Vector_13" d="M0.349976 79.0195V84.5591L1.5609 84.3177V79.0195H0.349976Z" fill="white"/>
<path id="Vector_14" d="M3.97766 79.0195V83.8373L5.18732 83.5958V79.0195H3.97766Z" fill="white"/>
<path id="Vector_15" d="M3.40703 69.427H2.13905L0.0316558 73.5293H0.0253158V74.7366H2.16694V75.8541H0.0240479V77.0614H2.16694V84.1977L3.37787 83.9562V77.0614H5.52076V75.8541H3.37787V74.7366H5.52076V73.5293H5.51316L3.40576 69.4258L3.40703 69.427ZM1.39094 73.5306L2.77177 70.8379L4.15388 73.5306H1.39094Z" fill="white"/>
<path id="Vector_16" d="M0 86.7301L5.52081 85.6302V84.3989L0 85.5V86.7301Z" fill="white"/>
<path id="Vector_17" d="M40.9255 75.9463H48.4066V69.4131H40.9255V75.9463ZM47.197 70.6191V74.7403H42.1365V70.6191H47.197Z" fill="white"/>
<path id="Vector_18" d="M40.9255 82.993H44.0613V85.4809H43.0875V86.687H45.2709V82.993H48.4066V79.0703H40.9255V82.993ZM47.197 80.2763V81.787H42.1365V80.2763H47.197Z" fill="white"/>
<path id="Vector_19" d="M48.3965 76.9048H40.9039V78.1108H48.3965V76.9048Z" fill="white"/>
<path id="Vector_20" d="M49.3436 73.4183V74.982L54.337 70.8722L54.3585 70.8545V69.292L49.3652 73.4006L49.3436 73.4183Z" fill="white"/>
<path id="Vector_21" d="M49.3436 79.2965V80.8603L54.337 76.7504L54.3585 76.7327V75.1689L49.3652 79.28L49.3436 79.2965Z" fill="white"/>
<path id="Vector_22" d="M49.3436 85.1751V86.7389L54.337 82.629L54.3585 82.6113V81.0488L49.3652 85.1574L49.3436 85.1751Z" fill="white"/>
<path id="Vector_23" d="M40.9521 86.6591H42.2151L43.0595 83.835H41.7966L40.9521 86.6591Z" fill="white"/>
<path id="Vector_24" d="M46.2281 83.835L47.0726 86.6591H48.3355L47.4911 83.835H46.2281Z" fill="white"/>
<path id="Vector_25" d="M43.9166 73.79C43.947 73.8102 43.9813 73.8166 44.013 73.8166C44.0675 73.8166 44.117 73.7963 44.1284 73.7913L45.7742 72.8495C45.8199 72.828 45.8921 72.7698 45.8909 72.6813C45.8896 72.5789 45.8097 72.5208 45.7704 72.5056L44.1271 71.5651C44.1055 71.5575 43.9914 71.5183 43.9179 71.5651C43.8405 71.6144 43.838 71.7218 43.838 71.7345V73.5941C43.838 73.608 43.8317 73.7331 43.9166 73.7913V73.79Z" fill="white"/>
<path id="Vector_26" d="M2.69959 93.311H1.90583L0.421021 99.9429H1.37455L1.63955 98.5902L1.82468 97.6231H1.82214L1.85892 97.4411L1.89949 97.2287L2.28876 95.2212H2.30778L2.72241 97.3551L2.95192 98.5182L2.96587 98.5902L3.23088 99.9429H4.1844L2.69959 93.311Z" fill="white"/>
<path id="Vector_27" d="M5.78072 96.3594V97.2013L1.60144 98.0344V97.1912L5.78072 96.3594Z" fill="white"/>
<path id="Vector_28" d="M8.34204 99.9444V93.3125H9.25753L10.6967 97.3086H10.7157V93.3125H11.6692V99.9444H10.7728L9.31459 95.9572H9.29557V99.9444H8.34204Z" fill="white"/>
<path id="Vector_29" d="M18.8714 98.053V98.4626C18.8714 98.6674 18.8321 98.8621 18.7548 99.0454C18.6774 99.2287 18.5696 99.3918 18.4327 99.5346C18.2957 99.6775 18.1347 99.7913 17.9521 99.8747C17.7683 99.9581 17.5705 100.001 17.3587 100.001C17.1774 100.001 16.9948 99.9758 16.8071 99.9265C16.6207 99.8772 16.4521 99.79 16.3025 99.6661C16.1529 99.5422 16.0299 99.3817 15.9335 99.187C15.8371 98.991 15.7889 98.742 15.7889 98.4373V94.7864C15.7889 94.569 15.827 94.3667 15.9005 94.1809C15.9753 93.995 16.0806 93.8332 16.2188 93.6967C16.3557 93.5601 16.5193 93.4527 16.7095 93.3756C16.8997 93.2985 17.1102 93.2593 17.3397 93.2593C17.7886 93.2593 18.1525 93.4059 18.4327 93.6967C18.5696 93.8395 18.6774 94.0089 18.7548 94.2049C18.8321 94.4008 18.8714 94.6132 18.8714 94.8433V95.2162H17.9179V94.9002C17.9179 94.7143 17.8646 94.5525 17.7594 94.416C17.6529 94.2795 17.5096 94.2112 17.3295 94.2112C17.0924 94.2112 16.9352 94.2845 16.8579 94.4299C16.7805 94.5753 16.7412 94.7611 16.7412 94.9836V98.3741C16.7412 98.5663 16.783 98.7281 16.8667 98.8583C16.9504 98.9885 17.1013 99.0542 17.3194 99.0542C17.3815 99.0542 17.4487 99.0441 17.5197 99.0214C17.5907 98.9999 17.658 98.9645 17.7201 98.9139C17.7759 98.8646 17.8228 98.7964 17.8596 98.7091C17.8976 98.6219 17.9154 98.5132 17.9154 98.383V98.0568H18.8689L18.8714 98.053Z" fill="white"/>
<path id="Vector_30" d="M22.9911 99.9444V93.3125H23.9446V96.3933L25.1213 96.1531V93.3125H26.0748V99.9444H25.1213V96.9912L23.9446 97.2314V99.9444H22.9911Z" fill="white"/>
<path id="Vector_31" d="M30.1946 94.8765C30.1946 94.6098 30.2415 94.3734 30.3353 94.1686C30.4292 93.9638 30.5534 93.7931 30.7094 93.6566C30.859 93.5264 31.0289 93.4265 31.2191 93.3583C31.4093 93.29 31.6008 93.2559 31.7935 93.2559C31.9862 93.2559 32.1777 93.29 32.3679 93.3583C32.5581 93.4265 32.7305 93.5264 32.8865 93.6566C33.0361 93.7931 33.1579 93.9638 33.2504 94.1686C33.3443 94.3734 33.3899 94.6098 33.3899 94.8765V98.3796C33.3899 98.6589 33.343 98.8979 33.2504 99.0963C33.1566 99.2948 33.0361 99.4592 32.8865 99.5906C32.7305 99.7272 32.5581 99.8296 32.3679 99.8978C32.1777 99.9661 31.9862 100 31.7935 100C31.6008 100 31.4093 99.9661 31.2191 99.8978C31.0289 99.8296 30.859 99.7272 30.7094 99.5906C30.5534 99.4604 30.4292 99.2961 30.3353 99.0963C30.2415 98.8979 30.1946 98.6589 30.1946 98.3796V94.8765ZM31.1481 98.3796C31.1481 98.6096 31.2115 98.779 31.3396 98.8878C31.4676 98.9965 31.6185 99.0508 31.7922 99.0508C31.966 99.0508 32.1181 98.9965 32.2449 98.8878C32.373 98.779 32.4364 98.6096 32.4364 98.3796V94.8765C32.4364 94.6465 32.373 94.4771 32.2449 94.3683C32.1168 94.2596 31.966 94.2053 31.7922 94.2053C31.6185 94.2053 31.4664 94.2596 31.3396 94.3683C31.2115 94.4771 31.1481 94.6465 31.1481 94.8765V98.3796Z" fill="white"/>
<path id="Vector_32" d="M37.5019 99.9444V93.3125H39.0336C40.1545 93.3125 40.715 93.961 40.715 95.2593C40.715 95.65 40.6541 95.9824 40.5324 96.2555C40.4106 96.5286 40.1976 96.7498 39.892 96.9167L40.9204 99.9444H39.9111L39.0235 97.1126H38.4541V99.9444H37.5006H37.5019ZM38.4554 94.2063V96.2745H38.9968C39.1655 96.2745 39.2986 96.2517 39.3988 96.2049C39.499 96.1582 39.5763 96.0912 39.6321 96.0052C39.6815 95.918 39.7158 95.8118 39.7348 95.6841C39.7538 95.5564 39.7627 95.4098 39.7627 95.2416C39.7627 95.0735 39.7538 94.9269 39.7348 94.7992C39.7158 94.6715 39.679 94.5615 39.6232 94.468C39.5053 94.2948 39.2809 94.2075 38.9499 94.2075H38.4541L38.4554 94.2063Z" fill="white"/>
<path id="Vector_33" d="M49.156 99.9444V93.3125H51.9963V94.2063H50.1095V96.2188L51.7541 95.8876V96.7814L50.1095 97.1126V99.9444H49.156Z" fill="white"/>
<path id="Vector_34" d="M56.0234 99.9444V93.3125H56.977V99.9444H56.0234Z" fill="white"/>
<path id="Vector_35" d="M61.0966 99.9444V93.3125H62.0501V98.995H63.9368V99.9456H61.0966V99.9444Z" fill="white"/>
<path id="Vector_36" d="M67.2818 99.9444V93.3125H68.1973L69.4209 96.8244H69.4399L70.6547 93.3125H71.579V99.9444H70.6255V95.9104H70.6065L69.6631 98.7611H69.1864L68.2518 95.9104H68.2328V99.9444H67.2793H67.2818Z" fill="white"/>
<path id="Vector_37" d="M67.5887 30.7435C67.5658 29.411 67.4606 28.0975 67.2755 26.8106C67.1829 26.1659 67.0701 25.5275 66.9369 24.8954C66.7201 23.8499 66.45 22.8234 66.1292 21.8184C65.9415 21.2255 65.7349 20.6402 65.5117 20.0625C65.1414 19.0979 64.7217 18.1561 64.2589 17.2421C63.9838 16.696 63.6934 16.1587 63.3866 15.6328C62.8717 14.7428 62.3126 13.8819 61.7128 13.0526C61.354 12.552 60.9786 12.064 60.5894 11.5874C59.8577 10.6886 59.0754 9.83022 58.2499 9.01609C58.023 8.79233 57.7922 8.57237 57.5576 8.35619C57.3218 8.13749 57.0821 7.92258 56.8399 7.71273C51.3255 2.91013 44.1068 0 36.2073 0C18.8752 0 4.82593 14.0071 4.82593 31.2858C4.82593 48.5645 18.8752 62.5779 36.206 62.5779C53.5368 62.5779 66.7239 49.4153 67.5532 32.8723C67.5798 32.3464 67.5925 31.8167 67.5925 31.2845C67.5925 31.1025 67.5912 30.923 67.5874 30.7422L67.5887 30.7435ZM64.8422 31.2858C64.8422 31.6334 64.8359 31.9798 64.8244 32.3262L39.6727 46.715L39.3963 42.7594L64.6875 28.291C64.7915 29.2795 64.8422 30.2795 64.8422 31.2871V31.2858ZM53.339 43.6317C53.405 43.7733 53.3796 43.9554 53.2528 44.0691C53.0956 44.461 48.1745 50.4279 41.5848 47.7264L52.9739 41.2121C52.7684 41.9428 52.8724 42.7607 53.339 43.6317ZM38.2957 27.0205C39.8274 27.0761 41.354 27.1924 42.868 27.3719L38.496 29.8737L38.2969 27.0205H38.2957ZM36.2098 16.6479C34.1367 16.6479 32.4503 14.9666 32.4503 12.8984C32.4503 10.8302 34.1367 9.15009 36.2098 9.15009C38.283 9.15009 39.9707 10.8314 39.9707 12.8984C39.9707 14.9653 38.2843 16.6479 36.2098 16.6479ZM34.531 54.5732V47.4306C34.531 47.4306 34.531 47.0968 34.7314 46.9691C34.933 46.844 35.3375 46.9944 35.3375 46.9944L41.6051 50.5834C41.6051 50.5834 41.9525 50.7187 41.9576 51.0676C41.9614 51.3609 41.6292 51.5113 41.6292 51.5113L35.3096 55.1269C35.3096 55.1269 34.9571 55.2773 34.7301 55.1269C34.5044 54.9739 34.5297 54.5719 34.5297 54.5719L34.531 54.5732ZM64.4149 26.3378L39.2543 40.7317L39.0159 37.3298L63.6833 23.2191C63.9863 24.2443 64.2298 25.286 64.4149 26.3391V26.3378ZM62.5928 20.1775C62.7716 20.5985 62.939 21.022 63.0962 21.4467L38.8751 35.3021L38.6367 31.9014L46.2878 27.5249L46.3005 27.5173C46.4209 27.4617 46.5363 27.3959 46.6453 27.3201L46.653 27.3163L61.8738 18.6099C62.1274 19.1232 62.3696 19.6453 62.5941 20.1775H62.5928ZM61.0053 16.9981L47.3605 24.8031H47.358C47.0853 24.1647 46.5008 23.6729 45.7616 23.5541C45.1238 23.4517 44.4809 23.3632 43.838 23.281H43.8406L59.3176 14.4255C59.9275 15.2523 60.4892 16.1106 61.0053 16.9981ZM56.4557 11.1045C57.058 11.705 57.6312 12.327 58.1726 12.973L40.7036 22.9663C39.8046 22.9005 38.9043 22.8537 38.004 22.8272V22.8247L37.8544 20.6844L55.766 10.4383C55.9993 10.6557 56.23 10.877 56.457 11.1032L56.4557 11.1045ZM62.5928 42.3966C61.1498 45.796 59.0855 48.8502 56.4545 51.4721C53.8247 54.0953 50.7612 56.1546 47.3516 57.592C43.8228 59.0799 40.0746 59.8346 36.2073 59.8346C32.3399 59.8346 28.593 59.0799 25.0642 57.592C21.6559 56.1546 18.5937 54.0953 15.9639 51.4734C13.3328 48.8502 11.2686 45.7973 9.82686 42.3966C8.33444 38.8797 7.57872 35.1415 7.57872 31.2858C7.57872 27.4301 8.33444 23.6932 9.82686 20.1762C11.2698 16.7781 13.3328 13.7251 15.9626 11.102C18.5937 8.48008 21.6559 6.42201 25.0642 4.98464C28.5918 3.49671 32.3412 2.74326 36.2073 2.74326C40.0734 2.74326 43.8241 3.49671 47.3516 4.98464C49.8711 6.04655 52.1991 7.44725 54.3052 9.16527L43.1508 15.5468C43.4665 14.7238 43.639 13.8313 43.639 12.8984C43.639 8.80877 40.3118 5.49284 36.2098 5.49284C32.1079 5.49284 28.782 8.80877 28.782 12.8984C28.782 16.4393 31.2748 19.4013 34.6058 20.132L34.4169 22.8247V22.8272C31.8125 22.9043 29.2106 23.1458 26.6594 23.5541C25.5156 23.7374 24.7384 24.8094 24.921 25.9484C25.1048 27.0887 26.1813 27.8637 27.3225 27.6816C29.5605 27.3239 31.8365 27.1039 34.1227 27.0205L32.7457 46.7176C32.6874 46.7568 32.6278 46.7947 32.5669 46.8313C25.1251 51.4949 19.3355 44.4952 19.1656 44.0691C19.04 43.9554 19.0147 43.772 19.0793 43.6317C20.0937 41.7367 19.4001 40.0958 17.5147 39.0541L11.0441 36.4133C11.053 36.4879 11.0657 36.5612 11.0771 36.637C11.0885 36.7104 11.1025 36.7837 11.1139 36.8595C12.69 46.2068 21.7066 55.8942 31.0111 55.9498C31.0288 55.9486 31.0466 55.9486 31.0656 55.9486C33.1844 55.9486 35.0598 56.9865 36.2086 58.5793C37.3586 56.9852 39.234 55.9486 41.3528 55.9486C41.3705 55.9486 41.3895 55.9486 41.4073 55.9498C50.7105 55.8955 59.7284 46.2068 61.3033 36.8595C61.3159 36.7837 61.3299 36.7104 61.34 36.637C61.3527 36.5612 61.3641 36.4879 61.3743 36.4133L61.335 36.4285L64.6596 34.5271C64.354 37.2375 63.663 39.8733 62.5915 42.3954L62.5928 42.3966Z" fill="white"/>
</g>
<defs>
<clipPath id="clip0_139_9696">
<rect width="72" height="100" fill="white"/>
</clipPath>
</defs>
</svg>
