<svg width="132" height="145" viewBox="0 0 132 145" fill="none" xmlns="http://www.w3.org/2000/svg">
<path d="M103.934 47.5603C102.47 43.609 98.4619 41.4518 94.4707 42.9312C90.4798 44.4104 87.1213 49.298 88.5858 53.2493L87.2833 49.7351C85.8188 45.7841 80.5742 44.0823 76.5878 45.5599C72.5918 47.041 69.7283 51.7478 71.1928 55.6991L69.2157 50.3649C67.7675 46.4577 62.5819 44.7713 58.6293 46.1544C58.4534 46.2091 58.2719 46.2632 58.0901 46.3305C54.1037 47.8081 51.2772 52.5012 52.7419 56.4528L42.6796 29.3054C41.2151 25.3544 36.26 23.5453 32.2691 25.0245C28.2779 26.5039 25.8199 31.0604 27.2845 35.0116L47.54 89.6596L39.7091 84.7428C35.5706 82.1474 30.0729 83.3815 27.4286 87.5076C24.7843 91.6337 25.9966 97.0793 30.1415 99.6774L66.8187 122.702L69.9553 126.657C71.0155 128.273 73.0995 129.002 75.0063 128.295L114.027 113.832C114.027 113.832 114.03 113.826 114.037 113.818C114.07 113.806 114.101 113.805 114.134 113.793C115.961 113.115 117.047 111.338 116.923 109.502C116.922 109.471 116.929 109.447 116.924 109.417C111.634 63.2534 103.934 47.5603 103.934 47.5603Z" fill="white"/>
<path d="M107.064 46.2316C104.865 40.5431 98.8525 37.6989 93.2947 39.759C91.0101 40.6058 88.8927 42.2471 87.3472 44.3003C84.2064 41.7632 79.552 40.8527 75.4116 42.3873C73.4114 43.1287 71.6949 44.3781 70.3724 45.918C69.2348 44.7086 67.775 43.7452 66.0579 43.105C63.3251 42.0852 60.2377 42.0242 57.5745 42.9373C57.3893 42.9954 57.1657 43.0651 56.9138 43.1584C55.2165 43.7876 53.7163 44.7903 52.4943 46.0286L45.859 28.127C43.7837 22.5281 37.0223 19.6515 31.0918 21.8497C25.2263 24.0238 22.0241 30.5931 24.0994 36.1923L40.8969 81.5106C37.7646 79.7848 34.0787 79.5119 30.675 80.7734C28.1386 81.7136 26.0279 83.416 24.5743 85.689C22.7982 88.4517 22.2155 91.7291 22.9302 94.9164C23.6434 98.0995 25.5581 100.805 28.3309 102.548L64.515 125.258L67.211 128.668C69.1991 131.542 72.8661 132.694 76.1814 131.465L115.672 116.828L115.701 116.807C118.605 115.54 120.473 112.569 120.319 109.406C120.317 109.301 120.31 109.166 120.291 109.015C115.215 64.7181 107.942 48.1156 107.064 46.2316ZM113.531 109.649C113.536 109.678 113.538 109.71 113.539 109.741C113.557 110.035 113.404 110.409 113.03 110.585C112.978 110.604 112.921 110.62 112.86 110.643L111.816 111.03L111.808 111.038L73.8275 125.116C73.3892 125.278 72.9753 125.077 72.79 124.792L72.7092 124.673L69.1216 120.145L31.9485 96.8126C30.719 96.042 29.8703 94.8393 29.5558 93.4331C29.2379 92.0177 29.4973 90.5575 30.2864 89.324C30.9441 88.3084 31.8914 87.5448 33.0289 87.1231C34.6654 86.5166 36.4389 86.6947 37.8948 87.6034L54.1924 97.8366L30.4686 33.8315C29.6959 31.7468 31.1134 29.0615 33.4446 28.1975C35.7945 27.3264 38.7362 28.4383 39.4951 30.4858L49.5575 57.6332L54.4662 70.8767L54.471 70.8749C54.4778 70.8934 54.48 70.9139 54.4869 70.9326C55.1348 72.6805 57.0887 73.5741 58.846 72.9227C60.6039 72.2712 61.4986 70.3217 60.8508 68.5738C60.8439 68.5554 60.837 68.5366 60.83 68.5179L55.9213 55.2744C55.176 53.2638 56.8366 50.4038 59.2657 49.5035C59.3683 49.4654 59.4735 49.4342 59.5692 49.4069L59.7443 49.3498C62.1899 48.4934 65.3083 49.582 66.0355 51.5438L68.0126 56.8779L70.9382 64.7709C70.945 64.7894 70.9519 64.8081 70.9589 64.8269C71.6068 66.5748 73.5562 67.47 75.3138 66.8186C77.0714 66.1671 77.9709 64.2159 77.323 62.468C77.3162 62.4495 77.3045 62.4326 77.2975 62.4138L77.3023 62.412L74.3767 54.519C73.6324 52.5108 75.3068 49.646 77.7642 48.7352C80.1699 47.8435 83.3677 48.9447 84.0982 50.9157L85.4008 54.4299L87.0238 58.8087L87.0286 58.807C87.0354 58.8254 87.0376 58.8459 87.0445 58.8647C87.6924 60.6126 89.6463 61.5061 91.4042 60.8546C93.1618 60.2031 94.0613 58.2519 93.4134 56.504C93.4066 56.4856 93.3949 56.4686 93.3879 56.4498L93.3927 56.4481L91.7697 52.0693C91.0667 50.1726 93.0968 47.0515 95.6473 46.1061C98.0298 45.223 100.016 46.7606 100.75 48.7408L100.805 48.8896L100.884 49.0455C100.958 49.2029 108.404 65.0273 113.531 109.649Z" fill="black"/>
</svg>
