<svg width="174" height="234" viewBox="0 0 174 234" fill="none" xmlns="http://www.w3.org/2000/svg">
<rect x="73.354" y="73" width="99.3917" height="99.3917" rx="31" transform="rotate(13.5898 73.354 73)" fill="#F5A218"/>
<circle cx="96.6034" cy="104.887" r="4.55925" transform="rotate(13.5898 96.6034 104.887)" fill="black"/>
<circle cx="122.307" cy="111.1" r="4.55925" transform="rotate(13.5898 122.307 111.1)" fill="black"/>
<path d="M78.994 115.641C80.0168 119.172 84.2875 135.01 106.159 139.094C123.213 142.278 131.209 132.485 133.06 128.711" stroke="black" stroke-width="6" stroke-linecap="round"/>
<path d="M171.895 189.4C162.189 192.278 144.279 186.688 150.286 141.306" stroke="#F5A218" stroke-width="10"/>
<path d="M64.7172 128.132C49.8879 128.299 24.6438 116.756 42.3015 69.246" stroke="#F5A218" stroke-width="10"/>
<path d="M85.6377 173.533C29.3564 159.928 69.4928 211.823 69.4928 211.823L41.4349 205.04" stroke="#F5A218" stroke-width="10"/>
<path d="M120.816 182.976C115.926 224.551 151.438 212.892 151.438 212.892L149.961 232.778" stroke="#F5A218" stroke-width="10"/>
<path d="M71.5205 49.3174C70.8233 50.3155 69.6205 50.8331 68.4162 50.6551L56.3176 48.8673L51.6413 80.5119L63.74 82.2997C64.9443 82.4777 65.946 83.3209 66.3247 84.4782C66.7033 85.6352 67.7051 86.4786 68.9093 86.6566L110.894 92.8609C114.771 89.9823 117.344 85.683 118.05 80.9065L120.002 67.6966C120.708 62.9199 119.488 58.0601 116.61 54.1839L74.6248 47.9796C73.4205 47.8016 72.2177 48.3191 71.5205 49.3174Z" fill="#025682"/>
<path d="M66.6058 52.1862C66.4624 53.1566 65.5583 53.8279 64.5879 53.6845C63.6174 53.5411 62.9462 52.637 63.0896 51.6666C63.233 50.6961 64.137 50.0248 65.1075 50.1682C66.0779 50.3117 66.7492 51.2157 66.6058 52.1862Z" fill="#00344F"/>
<path d="M65.5666 59.2179C65.4232 60.1884 64.5192 60.8596 63.5487 60.7162C62.5782 60.5728 61.907 59.6688 62.0504 58.6983C62.1938 57.7278 63.0978 57.0566 64.0683 57.2C65.0388 57.3434 65.71 58.2474 65.5666 59.2179Z" fill="#00344F"/>
<path d="M64.5274 66.2494C64.384 67.2199 63.48 67.8911 62.5095 67.7477C61.539 67.6043 60.8678 66.7003 61.0112 65.7298C61.1546 64.7593 62.0586 64.0881 63.0291 64.2315C63.9996 64.3749 64.6708 65.2791 64.5274 66.2494Z" fill="#00344F"/>
<path d="M63.4884 73.2821C63.3449 74.2526 62.4409 74.9238 61.4704 74.7804C60.5 74.637 59.8287 73.733 59.9721 72.7625C60.1155 71.792 61.0196 71.1208 61.99 71.2642C62.9605 71.4076 63.6318 72.3116 63.4884 73.2821Z" fill="#00344F"/>
<path d="M62.4492 80.3148C62.3058 81.2853 61.4017 81.9565 60.4313 81.8131C59.4608 81.6697 58.7895 80.7657 58.9329 79.7952C59.0764 78.8248 59.9804 78.1535 60.9509 78.2969C61.9213 78.4403 62.5926 79.3444 62.4492 80.3148Z" fill="#00344F"/>
<path d="M41.3528 77.1967L51.9008 78.7554L56.0575 50.6271L45.5094 49.0684L41.3528 77.1967Z" fill="#00344F"/>
<path d="M30.2851 79.1531L40.8333 80.7118L46.0291 45.5514L35.4808 43.9927L30.2851 79.1531Z" fill="#025682"/>
<path d="M35.5121 43.7802C32.9431 38.0923 27.916 33.8913 20.9576 32.863L13.164 85.6039C20.1223 86.6322 26.1496 84.0648 30.2539 79.3628L35.5121 43.7802Z" fill="#00344F"/>
<path d="M53.1217 34.0234L35.5414 31.4255C31.6579 30.8516 28.9746 27.2378 29.5485 23.3543C30.1224 19.4709 33.7362 16.7875 37.6197 17.3614L55.2 19.9593C59.0834 20.5332 61.7667 24.147 61.1929 28.0305C60.619 31.9139 57.0051 34.5973 53.1217 34.0234Z" fill="#025682"/>
<path d="M120.706 38.6215C121.137 35.7085 119.125 32.9985 116.211 32.568L68.7446 25.5537L60.7367 24.3704C61.1882 25.4969 61.3829 26.7436 61.1928 28.0306C61.0026 29.3175 60.4554 30.4546 59.6975 31.4024L62.4313 31.8064L73.5382 47.8191L84.0864 49.3778L77.7341 37.6605L91.7984 39.7388L98.1507 51.4561L109.578 53.1448L102.346 41.2976L114.653 43.1161C117.566 43.5465 120.276 41.5345 120.706 38.6215Z" fill="#00344F"/>
<path d="M75.2573 30.1093L78.7733 30.6289L79.2929 27.1128L75.7769 26.5933L75.2573 30.1093Z" fill="#025682"/>
<path d="M82.2895 31.1493L85.8055 31.6689L86.3251 28.1529L82.8091 27.6333L82.2895 31.1493Z" fill="#025682"/>
<path d="M68.2252 29.0705L71.7412 29.59L72.2608 26.074L68.7448 25.5544L68.2252 29.0705Z" fill="#025682"/>
<path d="M89.3214 32.1881L92.8374 32.7077L93.357 29.1917L89.8409 28.6721L89.3214 32.1881Z" fill="#025682"/>
<path d="M96.3536 33.227L99.8696 33.7465L100.389 30.2305L96.8732 29.7109L96.3536 33.227Z" fill="#025682"/>
<path d="M103.386 34.267L106.902 34.7866L107.421 31.2705L103.905 30.751L103.386 34.267Z" fill="#025682"/>
<path d="M110.418 35.3058L113.934 35.8254L114.453 32.3094L110.937 31.7898L110.418 35.3058Z" fill="#025682"/>
<path d="M113.033 66.2311C112.603 69.1441 109.893 71.1563 106.98 70.7258C104.067 70.2954 102.055 67.5855 102.485 64.6723C102.916 61.7593 105.625 59.7471 108.539 60.1776C111.452 60.608 113.464 63.3181 113.033 66.2311Z" fill="#00344F"/>
<path d="M93.7808 83.1466L73.2577 80.1138C72.2854 79.9702 71.6159 79.0664 71.7594 78.0959L74.8768 56.9998C75.0202 56.0293 75.9224 55.3578 76.8947 55.5015L91.3895 57.6434C92.1754 57.7596 92.7876 58.3818 92.8924 59.1679L95.8032 81.1551C95.9573 82.3258 94.9482 83.3191 93.7808 83.1466Z" fill="#00344F"/>
<path d="M72.5382 72.8215L83.0863 74.3802L84.645 63.8322L74.0969 62.2734L72.5382 72.8215Z" fill="#37B5FE"/>
</svg>
