<svg width="428" height="260" viewBox="0 0 428 260" fill="none" xmlns="http://www.w3.org/2000/svg">
<path fill-rule="evenodd" clip-rule="evenodd" d="M515.531 76.4171C504.178 84.8374 472.17 88.6653 429.92 88.0079C457.589 99.4794 469.096 110.856 457.742 119.276C446.389 127.697 414.382 131.524 372.134 130.867C399.801 142.339 411.307 153.715 399.954 162.135C388.601 170.555 356.594 174.383 314.347 173.726C342.012 185.197 353.517 196.572 342.164 204.992C330.811 213.413 298.803 217.24 256.554 216.583C284.222 228.055 295.729 239.431 284.376 247.852C262.247 264.263 161.66 263.229 59.707 245.543C-42.2457 227.857 -106.956 200.216 -84.8278 183.804C-73.4743 175.384 -41.4665 171.556 0.782611 172.214C-26.8859 160.742 -38.3929 149.365 -27.0392 140.945C-15.6861 132.525 16.3201 128.697 58.5674 129.354C30.9023 117.883 19.3973 106.507 30.7503 98.0877C42.1036 89.6676 74.1102 85.8397 116.358 86.4968C88.6913 75.0256 77.1854 63.6493 88.5387 55.2293C99.8922 46.809 131.9 42.9811 174.15 43.6385C146.481 32.1669 134.974 20.7902 146.328 12.3699C168.456 -4.04136 269.044 -3.00785 370.996 14.6783C472.949 32.3644 537.659 60.0058 515.531 76.4171Z" fill="white"/>
</svg>
