<svg width="854" height="746" viewBox="0 0 854 746" fill="none" xmlns="http://www.w3.org/2000/svg">
<path fill-rule="evenodd" clip-rule="evenodd" d="M356.566 201.108C341.375 200.845 334.883 203.191 332.23 204.95C329.576 206.709 326.345 210.811 328.357 219.811C330.337 228.666 337.059 240.131 349.117 253.568C373.124 280.32 415.853 312.214 471.988 342.441C528.124 372.669 585.644 394.755 632.664 406.249C656.28 412.022 676.061 414.828 691.006 415.086C706.196 415.349 712.689 413.004 715.342 411.244C717.996 409.485 721.227 405.383 719.214 396.383C717.235 387.528 710.512 376.063 698.454 362.626C674.448 335.875 631.719 303.98 575.584 273.753C519.448 243.525 461.927 221.439 414.908 209.945C391.291 204.172 371.51 201.366 356.566 201.108ZM433.76 184.6C486.441 197.477 548.039 221.401 606.811 253.048C665.582 284.694 711.791 318.822 738.689 348.795C752.083 363.72 761.304 378.294 764.251 391.472C767.165 404.505 764.306 418.432 748.344 429.015C732.383 439.598 709.497 442.741 687.501 442.361C665.259 441.976 640.045 438.007 613.812 431.594C561.131 418.717 499.532 394.793 440.761 363.146C381.99 331.5 335.78 297.372 308.883 267.399C295.489 252.474 286.268 237.9 283.321 224.722C280.407 211.689 283.266 197.763 299.227 187.179C315.189 176.596 338.074 173.453 360.071 173.833C382.312 174.218 407.527 178.187 433.76 184.6Z" fill="#DDE1FF"/>
<path fill-rule="evenodd" clip-rule="evenodd" d="M259.307 265.595C244.117 265.332 237.624 267.678 234.971 269.437C232.317 271.196 229.086 275.298 231.099 284.298C233.078 293.153 239.801 304.618 251.859 318.055C275.865 344.807 318.594 376.701 374.729 406.928C430.865 437.156 488.386 459.242 535.405 470.736C559.021 476.509 578.803 479.315 593.747 479.573C608.937 479.836 615.43 477.491 618.083 475.731C620.737 473.972 623.968 469.87 621.956 460.87C619.976 452.015 613.254 440.55 601.196 427.113C577.189 400.362 534.46 368.467 478.325 338.24C422.189 308.012 364.669 285.926 317.649 274.432C294.033 268.66 274.252 265.853 259.307 265.595ZM336.501 249.087C389.182 261.964 450.781 285.888 509.552 317.535C568.323 349.181 614.533 383.309 641.43 413.282C654.824 428.208 664.045 442.781 666.992 455.959C669.906 468.992 667.047 482.919 651.086 493.502C635.124 504.085 612.239 507.228 590.242 506.848C568 506.463 542.786 502.494 516.553 496.081C463.872 483.204 402.274 459.28 343.502 427.633C284.731 395.987 238.522 361.859 211.624 331.886C198.23 316.961 189.009 302.388 186.062 289.209C183.148 276.176 186.007 262.25 201.969 251.666C217.93 241.083 240.816 237.94 262.812 238.321C285.054 238.705 310.268 242.675 336.501 249.087Z" fill="#DDE1FF"/>
<path fill-rule="evenodd" clip-rule="evenodd" d="M162.053 330.079C146.862 329.817 140.37 332.162 137.716 333.922C135.063 335.681 131.832 339.783 133.844 348.783C135.824 357.638 142.546 369.103 154.604 382.539C178.611 409.291 221.339 441.186 277.475 471.413C333.611 501.64 391.131 523.727 438.151 535.22C461.767 540.993 481.548 543.8 496.493 544.058C511.683 544.321 518.176 541.975 520.829 540.216C523.482 538.457 526.714 534.355 524.701 525.355C522.721 516.5 515.999 505.035 503.941 491.598C479.935 464.846 437.206 432.952 381.07 402.724C324.935 372.497 267.414 350.41 220.395 338.917C196.778 333.144 176.997 330.338 162.053 330.079ZM239.247 313.572C291.928 326.449 353.526 350.373 412.297 382.019C471.069 413.666 517.278 447.793 544.176 477.766C557.57 492.692 566.791 507.265 569.737 520.444C572.652 533.477 569.793 547.403 553.831 557.987C537.869 568.57 514.984 571.713 492.988 571.332C470.746 570.947 445.532 566.978 419.299 560.566C366.618 547.688 305.019 523.765 246.248 492.118C187.477 460.472 141.267 426.344 114.37 396.371C100.976 381.445 91.7547 366.872 88.808 353.694C85.8938 340.661 88.7526 326.734 104.714 316.151C120.676 305.568 143.561 302.425 165.557 302.805C187.799 303.19 213.013 307.159 239.247 313.572Z" fill="#DDE1FF"/>
</svg>
