<svg width="368" height="69" viewBox="0 0 368 69" fill="none" xmlns="http://www.w3.org/2000/svg">
<g clip-path="url(#clip0_137_961)">
<path d="M0 68.19C0.29 65.81 0.43 63.94 0.43 59.98V40.39C0.43 37.94 0.36 35.85 0.14 33.69C2.44 33.91 4.39 33.98 7.48 33.98H25.34C27.28 33.98 28.8 33.91 30.31 33.76C30.17 35.13 30.17 36.06 30.17 39.52V61.19C30.17 63.78 30.24 65.51 30.39 67.09H19.59V65.07H11.24V68.17H0V68.19ZM9.14 9.15003C9.14 6.49003 9.07 4.61003 8.85 2.53003C10.87 2.75003 13.24 2.82003 17.06 2.82003H47.73C51.69 2.82003 54.07 2.75003 56.01 2.53003C55.79 4.33003 55.72 6.27003 55.72 9.15003V23.55C55.72 26.72 55.79 28.66 56.01 30.53C53.99 30.39 52.63 30.31 48.67 30.31H16.13C12.24 30.31 10.8 30.38 8.86 30.53C9 28.73 9.15 26.35 9.15 23.55V9.15003H9.14ZM19.58 43.93H11.16V55.16H19.58V43.93ZM20.01 13.04V20.46H44.78V13.04H20.01ZM57.81 33.99C61.05 33.99 62.85 33.92 64.51 33.7C64.29 35.79 64.22 37.59 64.22 40.47V60.06C64.22 64.02 64.29 66.04 64.65 68.2H53.34V65.1H44.27V68.2H33.61C33.75 66.47 33.83 64.82 33.83 62.3V39.4C33.83 36.09 33.83 35.44 33.69 33.78C35.2 33.92 36.64 34 38.66 34H57.81V33.99ZM44.27 55.16H53.42V43.93H44.27V55.16Z" fill="#224CE7"/>
<path d="M132.92 6.26C135.94 6.26 137.46 6.19 139.83 5.97C139.61 8.06 139.54 9.43 139.54 12.45V32.04C139.54 35.14 139.61 36.5 139.83 38.59C137.38 38.37 135.94 38.3 133.57 38.3H130.62V45.93H133C136.74 45.93 139.05 45.79 141.42 45.5V56.16C139.04 55.87 136.6 55.73 133 55.73H130.62V60.34C130.62 63.65 130.69 65.74 131.05 68.4H119.67C119.96 66.02 120.1 64.15 120.1 60.34V55.73H109.15C105.48 55.73 102.17 55.87 100.15 56.16V45.58C101.59 45.8 102.74 45.87 103.97 45.87C105.48 43.06 106.49 40.54 107.14 38.31C104.33 38.31 103.39 38.38 101.45 38.53C101.59 36.66 101.67 34.79 101.67 32.05V28.38C100.88 28.31 100.16 28.31 98.5 28.31H86.4L86.33 34.29H93.17C95.55 34.29 97.2 34.22 98.93 34.07C98.79 35.8 98.71 37.17 98.71 39.4V59.63C98.71 62.87 98.78 65.53 99.07 68.2H88.7C88.99 66.26 89.06 64.17 89.06 59.63V44.08H86.04C85.32 55.31 84.1 61.22 80.93 68.85C78.12 64.75 76.11 62.59 72.51 59.63C75.61 53.15 76.54 45.52 76.54 25.43V9.22C76.54 6.48 76.4 3.89 76.18 2.38H86.69C86.62 3.32 86.55 3.82 86.55 4.25C86.55 5.69 86.5267 7.22667 86.48 8.86V18.58H89.36V6.19C89.36 3.89 89.29 2.66 89 0.93H98.86C98.64 2.44 98.57 3.88 98.57 6.19V18.57H99.29C100.37 18.57 101.02 18.57 101.67 18.5V12.52C101.67 9.71 101.6 8.27 101.38 5.97C103.54 6.19 105.05 6.26 107.72 6.26H112.4C113.48 4.03 114.13 2.23 114.63 0L126.37 1.01C125.87 2.02 125 3.82 123.7 6.27H132.92V6.26ZM116.79 40.75C115.78 42.84 115.13 44.06 113.98 45.93H120.1V38.3H109.23L116.79 40.75ZM110.89 18.72H115.79V15.12H110.89V18.72ZM110.89 29.74H115.79V26.07H110.89V29.74ZM124.64 18.72H129.61V15.12H124.64V18.72ZM124.64 29.74H129.61V26.07H124.64V29.74Z" fill="#224CE7"/>
<path d="M161.06 18.58C159.62 21.89 158.83 23.33 156.52 26.93C153.86 23.55 151.62 21.67 148.46 19.73C151.7 15.12 153.57 11.09 155.3 5.18C156.02 2.88 156.16 1.87 156.31 0L166.75 1.58C166.46 2.44 166.03 3.81 165.6 5.47C165.38 6.55 165.24 6.98 164.74 8.64H171.36C174.53 8.64 176.33 8.57 178.2 8.28V18.86C176.4 18.64 175.1 18.64 172.22 18.57C172.173 22.5567 172.077 25.6767 171.93 27.93H172.65C175.67 27.93 177.04 27.86 178.99 27.57V38.23C177.12 38.01 175.46 37.94 172.22 37.94H171.28C173.66 43.2 176.03 46.22 180.93 50.54C177.91 54.36 176.75 56.16 174.74 60.77C171.36 57.1 169.56 54.72 167.47 50.91C164.59 57.68 161.28 62.5 155.73 67.76C153.71 63.73 151.99 61.35 148.82 58.26C155.37 52.86 159.12 46.45 160.7 37.95H157.82C154 37.95 152.28 38.02 149.97 38.38V27.51C152.27 27.87 153.79 27.94 158.04 27.94H161.78C161.873 25.8733 161.92 22.7533 161.92 18.58H161.06ZM187.99 41.05C184.97 41.05 182.95 41.12 180.5 41.27C180.72 38.89 180.79 37.02 180.79 33.64V23.99C180.79 20.46 180.72 18.52 180.5 16.14C182.66 16.28 185.11 16.36 188.78 16.36H205.92C209.52 16.36 212.04 16.29 214.2 16.14C213.98 18.66 213.91 20.32 213.91 23.99V33.64C213.91 37.24 213.98 38.75 214.2 41.27C211.61 41.13 209.74 41.05 206.64 41.05H204.55L213.19 44.22C210.89 51.13 210.6 52 208.58 56.17H209.23C213.05 56.17 214.63 56.1 217.29 55.88V66.68C214.77 66.39 212.97 66.32 209.23 66.32H185.47C181.73 66.32 180 66.39 177.41 66.68V55.88C180.07 56.1 181.66 56.17 185.47 56.17H186.91C185.33 51.71 183.74 48.39 181.51 44.79L189.72 41.05H187.99ZM179.64 2.67C182.23 2.96 183.74 3.03 187.7 3.03H208.15C212.11 3.03 213.69 2.96 216.21 2.67V13.33C213.62 13.11 211.67 13.04 208.15 13.04H187.7C184.24 13.04 182.23 13.11 179.64 13.33V2.66V2.67ZM191.38 41.05C193.9 45.44 194.04 45.8 197.07 52.57L189 56.17H197.79C199.81 51.35 201.25 46.67 202.47 41.05H191.38ZM191.16 31.33H203.18V26H191.16V31.33Z" fill="#224CE7"/>
<path d="M262.01 35.8601C262.95 35.4301 263.23 35.2801 263.95 34.9201C262.22 34.8501 261.21 34.8501 259.13 34.8501H232.85C229.32 34.8501 227.59 34.9201 225.51 35.1401V26.2101C227.53 26.5001 229.18 26.5701 233 26.5701H241.35V24.3401H234.22C231.41 24.3401 229.39 24.4101 228.24 24.4801C228.46 22.8201 228.53 21.4601 228.53 19.1501V7.92012C228.53 5.40012 228.46 4.03012 228.24 2.38012C229.82 2.52012 232.13 2.60012 235.37 2.60012H256.97C259.99 2.60012 262.3 2.53012 264.24 2.38012C264.02 3.96012 264.02 5.12012 264.02 7.92012V13.9001C268.2 11.9601 271.15 10.1601 275.9 6.63012C279 4.33012 280.65 2.67012 282.38 0.370117L291.6 7.50012C291.1 7.93012 290.95 8.00012 287.06 11.3901C280.72 16.9301 276.69 19.8901 269.35 24.0601C266.47 18.6601 266.33 18.3701 264.02 15.6401V19.1701C264.02 21.6201 264.09 22.9901 264.24 24.5001C263.23 24.4301 260.86 24.3601 258.34 24.3601H252.08V26.5901H259.14C263.1 26.5901 264.61 26.5201 266.77 26.2301V33.5001C272.68 30.1901 277.21 26.8801 281.39 22.7701C282.4 21.7601 283.26 20.6801 283.98 19.4601L292.84 26.8001C291.98 27.5201 291.26 28.1701 290.18 29.2501C283.41 36.0201 276.57 41.1301 268.22 45.7401C266.78 42.3601 265.12 39.5501 263.25 37.2401C263.11 38.3201 263.11 39.4001 263.11 40.4801V46.8201C263.11 48.4001 263.18 49.7001 263.33 50.7101C261.96 50.5701 260.95 50.5701 257.79 50.5701H252.39V53.8101L259.88 50.8601C261.82 53.7401 262.33 54.6001 264.06 57.4101C270.04 54.6001 275.15 51.0701 280.12 46.5401C282.93 43.9501 284.58 42.0001 285.88 39.9901L294.38 47.9101C293.95 48.3401 293.88 48.4101 293.3 48.9201C293.23 49.0601 292.94 49.3501 292.65 49.6401L289.41 52.8801C283 59.5001 276.81 63.9701 267.81 68.6501C266.59 66.2001 266.01 65.3401 264.5 63.1801L258.31 66.4201C256.29 61.4501 255.29 59.3601 252.41 54.6101V61.3101C252.41 63.6901 251.55 65.5601 250.11 66.7101C248.6 67.7901 246.37 68.2201 241.69 68.2201C241.26 68.2201 240.11 68.2201 238.52 68.1501C238.16 65.3401 237.73 63.4701 236.94 60.8801C235.43 63.5401 234.64 64.7701 232.33 67.8601C229.81 64.9101 228.15 63.4701 224.55 61.2401C227.93 57.7101 229.81 54.7601 231.32 50.6601C230.38 50.6601 230.1 50.6601 229.3 50.7301C229.52 49.4301 229.59 48.4301 229.59 46.8401V40.5001C229.59 38.9901 229.52 37.9101 229.3 36.6101C230.6 36.7501 231.46 36.7501 234.92 36.7501H257.67C260.48 36.7501 261.85 36.7501 262.78 36.6801L262.06 35.8901L262.01 35.8601ZM240.05 53.2901C239.04 56.1001 238.68 57.1101 237.89 58.8301C239.11 58.9701 239.62 59.0501 240.27 59.0501C241.35 59.0501 241.71 58.7601 241.71 57.7501V50.5501H233.65L240.06 53.2901H240.05ZM239.04 11.1701H253.66V9.30012H239.04V11.1701ZM239.04 18.3701H253.66V16.2801H239.04V18.3701ZM240.12 44.8701H252.5V42.4201H240.12V44.8701Z" fill="#224CE7"/>
<path d="M328.32 4.75007C328.32 3.24007 328.18 1.87007 327.96 0.570068H340.13C339.91 1.87007 339.77 3.09007 339.77 4.67007V5.61007H354.39C358.57 5.61007 361.95 5.47007 364.4 5.18007V15.8401C362.1 15.6201 360.22 15.5501 356.48 15.5501H353.53C352.67 17.6401 351.87 19.2201 351.01 20.8101H359.51C363.61 20.8101 365.56 20.7401 367.58 20.5201V30.9601C365.28 30.6701 363.55 30.6001 359.37 30.6001H309.69C305.59 30.6001 303.93 30.6701 301.63 30.9601V20.4501C303.86 20.7401 305.37 20.8101 310.2 20.8101H317.26C316.54 18.8701 315.75 17.2801 314.74 15.5501H312.36C308.76 15.5501 306.96 15.6201 304.66 15.8401V5.18007C307.18 5.47007 310.2 5.61007 314.16 5.61007H328.34V4.75007H328.32ZM352.87 33.1901C356.33 33.1901 357.84 33.1201 360.07 32.9701C359.78 35.5601 359.71 37.5101 359.71 40.3101V60.4701C359.71 63.7801 359.85 66.0101 360.14 68.3201H348.91V65.7301H320.18V68.3201H308.95C309.24 66.0201 309.38 63.5701 309.38 60.4701V40.3101C309.38 37.5701 309.31 35.4101 309.02 32.9701C311.18 33.1101 312.77 33.1901 316.15 33.1901H352.87ZM320.18 45.2201H348.91V42.0501H320.18V45.2201ZM320.18 56.7401H348.91V53.4301H320.18V56.7401ZM339.41 20.8101C340.35 18.9401 340.92 17.5001 341.71 15.5501H326.8C327.81 17.5701 328.46 19.0801 329.1 20.8101H339.4H339.41Z" fill="#224CE7"/>
</g>
<defs>
<clipPath id="clip0_137_961">
<rect width="367.57" height="68.84" fill="white"/>
</clipPath>
</defs>
</svg>
