<svg width="372" height="39" viewBox="0 0 372 39" fill="none" xmlns="http://www.w3.org/2000/svg">
<path d="M341.735 0.879971L347.135 2.63997C346.135 5.07997 344.935 7.63997 343.575 10.08V38.68H338.055V18.4C337.175 19.52 336.255 20.52 335.335 21.44C334.855 20.04 333.335 16.84 332.375 15.4C336.055 11.92 339.655 6.39997 341.735 0.879971ZM361.335 32.08H371.215V37.6H345.255V32.08H355.415V25.32H347.375V19.84H355.415V13.92H346.095V8.39997H356.015C354.215 7.15997 352.175 5.83997 350.455 4.87997L354.295 0.719971C357.215 2.19997 361.455 4.63997 363.535 6.43997L361.775 8.39997H370.615V13.92H361.335V19.84H369.535V25.32H361.335V32.08Z" fill="black"/>
<path d="M318.615 7.19984V5.91984H309.735V7.19984H318.615ZM318.615 12.2398V10.9198H309.735V12.2398H318.615ZM324.495 1.91984V16.2398H304.135V1.91984H324.495ZM296.895 0.839844L302.415 3.07984C299.575 6.91984 295.335 10.9598 291.455 13.4398C290.855 12.1198 289.495 9.71984 288.615 8.47984C291.695 6.63984 295.215 3.39984 296.895 0.839844ZM298.135 9.59984L303.215 11.7598C302.175 13.4398 300.975 15.1998 299.615 16.8798V38.7998H293.975V23.0798C292.975 24.0398 291.975 24.9198 290.975 25.6798C290.575 24.3598 289.175 21.0398 288.335 19.5998C291.815 17.1998 295.775 13.3598 298.135 9.59984ZM315.255 33.0798V28.6398H308.335C309.775 30.0398 311.415 31.7598 312.255 32.9998L311.375 33.6398C312.615 33.6798 314.095 33.6798 314.535 33.6798C315.095 33.6398 315.255 33.5198 315.255 33.0798ZM326.335 23.7598V28.6398H321.135V33.2398C321.135 35.7598 320.695 37.1198 318.975 37.9198C317.295 38.7198 315.255 38.7598 312.655 38.7598C312.415 37.2798 311.695 35.2798 311.015 33.8798L307.935 36.0398C307.095 34.5598 305.095 32.2398 303.495 30.5998L306.415 28.6398H301.295V23.7598H315.255V22.1598H302.375V17.4398H325.455V22.1598H321.135V23.7598H326.335Z" fill="black"/>
<path d="M268.767 35.56C263.087 35.56 259.447 31.04 259.447 23.6C259.447 16.16 264.127 11.68 268.847 11.68C271.367 11.68 272.847 12.6 274.327 14.04L274.087 10.64V3.04004H281.207V35H275.407L274.887 32.8H274.727C273.127 34.4 270.927 35.56 268.767 35.56ZM270.647 29.72C272.007 29.72 273.087 29.28 274.087 27.8V18.84C273.007 17.84 271.727 17.48 270.527 17.48C268.567 17.48 266.767 19.32 266.767 23.52C266.767 27.88 268.207 29.72 270.647 29.72Z" fill="black"/>
<path d="M249.805 35.56C244.925 35.56 243.325 32.36 243.325 27.6V3.04004H250.445V27.84C250.445 29.36 251.125 29.8 251.685 29.8C251.925 29.8 252.085 29.8 252.485 29.72L253.325 34.96C252.565 35.28 251.405 35.56 249.805 35.56Z" fill="black"/>
<path d="M223.737 35.5599C217.937 35.5599 212.577 31.1599 212.577 23.5999C212.577 16.0799 217.937 11.6799 223.737 11.6799C229.497 11.6799 234.857 16.0799 234.857 23.5999C234.857 31.1599 229.497 35.5599 223.737 35.5599ZM223.737 29.7999C226.377 29.7999 227.577 27.3999 227.577 23.5999C227.577 19.8399 226.377 17.4399 223.737 17.4399C221.057 17.4399 219.857 19.8399 219.857 23.5999C219.857 27.3999 221.057 29.7999 223.737 29.7999Z" fill="black"/>
<path d="M179.44 35V5.19995H186.6V16.56H196.4V5.19995H203.52V35H196.4V22.76H186.6V35H179.44Z" fill="black"/>
<path d="M141.28 0.959961L146.92 2.75996C145.92 5.43996 144.68 8.19996 143.24 10.88V38.76H137.36V19.88C136.8 20.56 136.24 21.16 135.68 21.76C135.16 20.32 133.56 16.96 132.56 15.48C136.04 12 139.36 6.47996 141.28 0.959961ZM171.12 12.76H160.28V16.08H170.04V21.36H160.28V24.96H170.56V30.36H160.28V38.8H154.28V12.76H153.52C151.92 15.64 150.2 18.2 148.44 20.2C147.52 19.12 145.28 17.04 144.04 16.12C147.52 12.6 150.64 6.83996 152.4 1.11996L158 2.59996C157.48 4.15996 156.88 5.71996 156.2 7.23996H171.12V12.76Z" fill="black"/>
<path d="M124.8 1.08005V16.76C124.8 19.12 124.36 20.28 122.76 21C121.16 21.72 119.12 21.76 116.36 21.76C116.12 20.4 115.36 18.48 114.72 17.24C116.28 17.32 118.24 17.32 118.8 17.28C119.36 17.28 119.56 17.12 119.56 16.64V1.08005H124.8ZM116.36 2.44005V15.76H111.2V2.44005H116.36ZM103.64 29.8801V32.64C105.88 32.4 108.2 32.12 110.48 31.8C109.4 30.52 108.48 29.04 107.72 27.4C106.48 28.32 105.12 29.1601 103.64 29.8801ZM119.8 26.84H112.84C113.52 27.8801 114.32 28.8 115.24 29.64C116.76 28.84 118.44 27.8 119.8 26.84ZM93.6001 7.92005H97.6401V6.84005H94.3201C94.0801 7.24005 93.8401 7.60005 93.6001 7.92005ZM122.4 26.84L125.2 28.92C123.36 30.16 121.24 31.32 119.32 32.24C121.48 33.2 124.04 33.88 127.04 34.28C125.92 35.36 124.56 37.4801 123.92 38.8801C118.04 37.8001 113.96 35.7201 111 32.4001L111.16 36.2401C105.48 37.0001 99.4401 37.7601 94.9601 38.3601L94.1601 33.68C95.3201 33.56 96.6401 33.44 98.0801 33.28V32.0401C96.2001 32.6001 94.2001 33.0401 92.1601 33.3601C91.5201 32.1601 90.1601 30.28 89.1201 29.24C93.0001 28.8 96.8001 28 99.9201 26.84H89.8001V22.32H105.08V20.72H103.88C103.64 19.64 103 18.36 102.56 17.48C103.24 17.52 104.12 17.5201 104.4 17.5201C104.72 17.5201 104.84 17.44 104.84 17.12V16.12H102.56V21.68H97.6401V16.12H95.5201V20.84H91.2001V12.72H97.6401V11.72H89.7601V7.92005H92.0801C91.2001 7.36005 90.0801 6.76005 89.4001 6.40005C90.7201 4.96005 91.8401 2.84005 92.4801 0.840048L96.6801 1.88005C96.5201 2.32005 96.3601 2.80005 96.1601 3.24005H97.6401V0.800049H102.56V3.24005H108.88V6.84005H102.56V7.92005H109.76V11.72H102.56V12.72H109.44V17.08C109.44 18.84 109.12 19.6401 108 20.2001C107.88 20.24 107.76 20.32 107.6 20.36H110.92V22.32H126.2V26.84H122.4Z" fill="black"/>
<path d="M71.2001 5.68V4.8H56.4001V5.68H71.2001ZM71.2001 9.2V8.32H56.4001V9.2H71.2001ZM77.0801 2V12H50.8001V2H77.0801ZM55.5201 25.36H61.1601V24.44H55.5201V25.36ZM55.5201 20.8V21.72H61.1601V20.8H55.5201ZM72.2401 21.72V20.8H66.8001V21.72H72.2401ZM72.2401 25.36V24.44H66.8001V25.36H72.2401ZM66.8001 32.72V33.68H82.4401V37.84H45.6801V33.68H61.1601V32.72H49.4401V29.12H61.1601V28.28H50.0801V17.88H77.9601V28.28H66.8001V29.12H78.6401V32.72H66.8001ZM45.6801 12.96H82.4401V17H45.6801V12.96Z" fill="black"/>
<path d="M13.2401 17.5998L13.9601 22.7998C12.8001 23.1598 11.6401 23.4798 10.4401 23.7998V32.8398C10.4401 35.3598 10.0401 36.8398 8.68005 37.7198C7.32005 38.6398 5.48005 38.8398 2.84005 38.8398C2.72005 37.3998 2.08005 34.9998 1.40005 33.4398C2.68005 33.5198 4.00005 33.5198 4.48005 33.4798C4.96005 33.4798 5.12005 33.3598 5.12005 32.8398V25.2398L1.88005 26.1198L0.680054 20.5598C1.96005 20.3198 3.48005 19.9598 5.12005 19.5998V13.4398H1.36005V8.11984H5.12005V0.839844H10.4401V8.11984H13.6401V13.4398H10.4401V18.3198L13.2401 17.5998ZM20.8001 31.0398L24.8401 30.3198L25.3601 35.4798C21.1601 36.4798 16.6801 37.4398 13.0401 38.1998L11.5201 32.5998C12.6001 32.4398 13.8401 32.2398 15.1601 32.0398V1.23984H20.8001V12.6798H25.0801V18.2798H20.8001V31.0398ZM32.2801 33.3598H33.3601C34.0001 33.3598 34.1201 31.9198 34.2801 26.8798C35.5201 27.8798 37.7601 28.9598 39.2801 29.3598C38.8001 35.8398 37.5601 38.4398 33.9201 38.4398H31.1201C27.0401 38.4398 25.9601 36.5998 25.9601 30.9198V1.15984H31.6401V13.1598C32.9601 12.0398 34.2801 10.8398 35.2401 9.75984L39.1601 14.1198C36.6801 15.9198 33.9201 17.9198 31.6401 19.2798V30.9598C31.6401 33.0398 31.7201 33.3598 32.2801 33.3598Z" fill="black"/>
</svg>
