<svg width="100" height="100" viewBox="0 0 100 100" fill="none" xmlns="http://www.w3.org/2000/svg">
<g clip-path="url(#clip0_229_1151)">
<rect width="100" height="100" rx="50" fill="white"/>
<path d="M47.0534 21.6473C48.9139 18.0293 54.0861 18.0293 55.9466 21.6473L60.6662 30.8257C61.8566 33.1407 64.624 34.155 67.0285 33.1577L76.0874 29.4C79.753 27.8795 83.644 31.0304 82.9189 34.9321L80.8187 46.2328C80.3718 48.6371 81.7296 51.0118 84.0283 51.8463L94.1709 55.5283C97.7679 56.834 98.6247 61.5315 95.7203 64.0231L87.0852 71.4308C85.2696 72.9884 84.8115 75.6138 85.9925 77.6941L91.7471 87.8314C93.6644 91.2089 91.1672 95.3872 87.2846 95.2985L77.1155 95.066C74.5875 95.0082 72.4143 96.8469 72.0526 99.3495L70.4843 110.202C69.9063 114.201 65.0695 115.898 62.1193 113.137L54.9164 106.397C52.994 104.598 50.006 104.598 48.0836 106.397L40.8807 113.137C37.9305 115.898 33.0937 114.201 32.5157 110.202L30.9474 99.3496C30.5857 96.8469 28.4125 95.0082 25.8845 95.066L15.7154 95.2985C11.8327 95.3872 9.33564 91.2088 11.2529 87.8314L17.0075 77.6941C18.1885 75.6138 17.7304 72.9884 15.9148 71.4308L7.27969 64.0231C4.3753 61.5315 5.23208 56.834 8.82906 55.5283L18.9717 51.8463C21.2704 51.0118 22.6282 48.6371 22.1813 46.2328L20.0811 34.9321C19.356 31.0304 23.247 27.8795 26.9126 29.4L35.9715 33.1577C38.376 34.155 41.1434 33.1407 42.3338 30.8257L47.0534 21.6473Z" fill="#F5A218"/>
<g clip-path="url(#clip1_229_1151)">
<path d="M74.4662 66.3527C73.2129 71.2967 68.1849 74.291 63.2409 73.0377C58.2969 71.7843 55.3026 66.7563 56.5559 61.8123C57.8092 56.8683 62.8372 53.874 67.7812 55.1273C72.7252 56.3807 75.7195 61.4087 74.4662 66.3527Z" fill="white"/>
<path d="M71.9145 61.5665C71.2603 64.1473 68.6098 65.7257 66.029 65.0715C63.4482 64.4172 61.8698 61.7668 62.524 59.186C63.1783 56.6051 65.8287 55.0267 68.4095 55.681C70.9904 56.3352 72.5688 58.9857 71.9145 61.5665Z" fill="black"/>
</g>
<g clip-path="url(#clip2_229_1151)">
<path d="M47.3233 66.3527C46.07 71.2967 41.042 74.291 36.098 73.0377C31.154 71.7843 28.1597 66.7563 29.413 61.8123C30.6663 56.8683 35.6943 53.874 40.6383 55.1273C45.5823 56.3807 48.5766 61.4087 47.3233 66.3527Z" fill="white"/>
<path d="M44.8665 61.3614C44.2122 63.9422 41.5618 65.5206 38.981 64.8664C36.4002 64.2121 34.8218 61.5617 35.476 58.9809C36.1302 56.4001 38.7807 54.8217 41.3615 55.4759C43.9423 56.1302 45.5207 58.7806 44.8665 61.3614Z" fill="black"/>
</g>
<path d="M57.5714 77.8571C57.5714 81.8412 54.9627 84.7143 52.1429 84.7143C49.323 84.7143 46.7143 81.8412 46.7143 77.8571C46.7143 73.8731 49.323 71 52.1429 71C54.9627 71 57.5714 73.8731 57.5714 77.8571Z" stroke="white" stroke-width="2"/>
<path d="M50.7972 33.0391C48.5671 33.0176 46.7743 34.8691 46.793 37.1748L46.8236 40.956C46.844 43.48 48.397 45.7464 50.7031 46.6176C54.169 47.9269 57.8656 45.628 58.331 41.874L59.4158 33.1223L50.7972 33.0391Z" fill="#00344F"/>
<path d="M67.1478 10.6032C64.8356 8.17986 60.9644 8.22511 58.7175 10.7019L57.2326 12.3387C53.682 16.2528 49.0542 19.0229 43.9323 20.3L40.371 21.1879C35.9442 22.2916 33.2536 26.7882 34.3614 31.2311C35.4692 35.6743 39.9558 38.3812 44.3825 37.2775L47.9439 36.3896C53.0658 35.1125 58.4524 35.3858 63.425 37.175L65.5045 37.923C68.6512 39.0549 72.0904 37.2775 72.9943 34.0523C75.3191 25.7559 73.0954 16.8371 67.1478 10.6032Z" fill="#00679D"/>
<circle cx="41.5" cy="31.4998" r="3.5" fill="white" fill-opacity="0.9"/>
<circle cx="48.0001" cy="30.9998" r="2" fill="white" fill-opacity="0.9"/>
</g>
<rect x="1.5" y="1.5" width="97" height="97" rx="48.5" stroke="#DDE1FF" stroke-width="3"/>
<defs>
<clipPath id="clip0_229_1151">
<rect width="100" height="100" rx="50" fill="white"/>
</clipPath>
<clipPath id="clip1_229_1151">
<rect width="18.4769" height="18.4769" fill="white" transform="translate(58.826 52.8572) rotate(14.225)"/>
</clipPath>
<clipPath id="clip2_229_1151">
<rect width="18.4769" height="18.4769" fill="white" transform="translate(31.6832 52.8572) rotate(14.225)"/>
</clipPath>
</defs>
</svg>
