<svg width="100" height="100" viewBox="0 0 100 100" fill="none" xmlns="http://www.w3.org/2000/svg">
<g clip-path="url(#clip0_229_443)">
<rect width="100" height="100" rx="50" fill="white"/>
<path d="M24.2857 5.71436L67.587 30.7144V80.7144L24.2857 105.714L-19.0155 80.7144V30.7144L24.2857 5.71436Z" fill="#37B5FE"/>
<path d="M-13.4192 34.4028L24.2857 58.993L64.4497 34.4028" stroke="white" stroke-opacity="0.5" stroke-linecap="round" stroke-linejoin="round"/>
<path d="M24.2857 101.616V58.9932" stroke="white" stroke-opacity="0.5" stroke-linecap="round" stroke-linejoin="round"/>
<g opacity="0.5">
<mask id="mask0_229_443" style="mask-type:alpha" maskUnits="userSpaceOnUse" x="-20" y="5" width="88" height="101">
<path d="M24.2857 5.71436L67.587 30.7144V80.7144L24.2857 105.714L-19.0155 80.7144V30.7144L24.2857 5.71436Z" fill="#DDE1FF"/>
</mask>
<g mask="url(#mask0_229_443)">
<mask id="mask1_229_443" style="mask-type:alpha" maskUnits="userSpaceOnUse" x="-27" y="-37" width="76" height="79">
<path fill-rule="evenodd" clip-rule="evenodd" d="M48.2785 -10.0755C49.956 -1.66368 43.7253 5.81274 41.1147 13.9833C38.4385 22.3587 39.9008 33.1404 32.8092 38.3384C25.713 43.5398 15.802 39.9945 7.06716 38.9395C-0.67179 38.0047 -8.82231 37.5345 -14.8426 32.5826C-20.725 27.7442 -23.0028 20.058 -24.8667 12.673C-26.6371 5.65807 -26.3155 -1.34766 -25.2105 -8.49763C-23.8656 -17.2008 -24.5689 -27.5657 -17.7812 -33.1766C-10.9483 -38.8249 -0.839072 -36.4309 8.01376 -35.9618C16.4852 -35.5129 25.1027 -35.1139 32.2386 -30.5263C39.7088 -25.7237 46.5417 -18.7849 48.2785 -10.0755Z" fill="#F5A218"/>
</mask>
<g mask="url(#mask1_229_443)">
<path fill-rule="evenodd" clip-rule="evenodd" d="M33.0455 57.3364L-28.4733 -32.2314L-25.7706 -34.0876L35.7481 55.4802L33.0455 57.3364Z" fill="white"/>
<path fill-rule="evenodd" clip-rule="evenodd" d="M9.26452 77.9719L-52.2542 -11.5959L-49.5516 -13.4521L11.9671 76.1157L9.26452 77.9719Z" fill="white"/>
<path fill-rule="evenodd" clip-rule="evenodd" d="M37.7169 53.0149L-23.8019 -36.5529L-21.0993 -38.4092L40.4195 51.1586L37.7169 53.0149Z" fill="white"/>
<path fill-rule="evenodd" clip-rule="evenodd" d="M13.9359 73.6504L-47.5828 -15.9174L-44.8802 -17.7737L16.6385 71.7941L13.9359 73.6504Z" fill="white"/>
<path fill-rule="evenodd" clip-rule="evenodd" d="M42.3882 48.6934L-19.1305 -40.8745L-16.4279 -42.7307L45.0908 46.8371L42.3882 48.6934Z" fill="white"/>
<path fill-rule="evenodd" clip-rule="evenodd" d="M18.6073 69.3289L-42.9115 -20.239L-40.2089 -22.0952L21.3099 67.4726L18.6073 69.3289Z" fill="white"/>
<path fill-rule="evenodd" clip-rule="evenodd" d="M47.0596 44.3716L-14.4592 -45.1962L-11.7566 -47.0525L49.7622 42.5153L47.0596 44.3716Z" fill="white"/>
<path fill-rule="evenodd" clip-rule="evenodd" d="M23.2786 65.0073L-38.2401 -24.5605L-35.5375 -26.4167L25.9812 63.1511L23.2786 65.0073Z" fill="white"/>
<path fill-rule="evenodd" clip-rule="evenodd" d="M51.731 40.0503L-9.78777 -49.5175L-7.08516 -51.3738L54.4336 38.194L51.731 40.0503Z" fill="white"/>
<path fill-rule="evenodd" clip-rule="evenodd" d="M27.95 60.6858L-33.5687 -28.882L-30.8661 -30.7383L30.6526 58.8295L27.95 60.6858Z" fill="white"/>
<path fill-rule="evenodd" clip-rule="evenodd" d="M56.4023 35.7285L-5.11643 -53.8393L-2.41382 -55.6956L59.1049 33.8723L56.4023 35.7285Z" fill="white"/>
<path fill-rule="evenodd" clip-rule="evenodd" d="M61.0738 31.407L-0.44498 -58.1608L2.25763 -60.0171L63.7764 29.5507L61.0738 31.407Z" fill="white"/>
<path fill-rule="evenodd" clip-rule="evenodd" d="M65.7451 27.0855L4.22636 -62.4824L6.92897 -64.3386L68.4477 25.2292L65.7451 27.0855Z" fill="white"/>
<path fill-rule="evenodd" clip-rule="evenodd" d="M70.4164 22.7639L8.8977 -66.8039L11.6003 -68.6602L73.119 20.9077L70.4164 22.7639Z" fill="white"/>
<path fill-rule="evenodd" clip-rule="evenodd" d="M75.0878 18.4424L13.569 -71.1254L16.2717 -72.9817L77.7904 16.5861L75.0878 18.4424Z" fill="white"/>
<path fill-rule="evenodd" clip-rule="evenodd" d="M79.7592 14.1209L18.2405 -75.447L20.9431 -77.3032L82.4618 12.2646L79.7592 14.1209Z" fill="white"/>
</g>
</g>
</g>
<g clip-path="url(#clip1_229_443)">
<path d="M62.6193 44.0582C61.181 49.7316 55.4112 53.1677 49.7378 51.7295C44.0643 50.2912 40.6282 44.5214 42.0664 38.8479C43.5047 33.1745 49.2745 29.7384 54.948 31.1766C60.6214 32.6149 64.0575 38.3847 62.6193 44.0582Z" fill="white"/>
<path d="M61.3304 41.6092C60.5796 44.5708 57.5382 46.3821 54.5766 45.6313C51.615 44.8806 49.8037 41.8391 50.5545 38.8775C51.3052 35.9159 54.3467 34.1046 57.3083 34.8554C60.2699 35.6061 62.0812 38.6476 61.3304 41.6092Z" fill="black"/>
</g>
<g clip-path="url(#clip2_229_443)">
<path d="M44.5865 52.2549C43.1483 57.9284 37.3784 61.3645 31.705 59.9262C26.0316 58.488 22.5955 52.7182 24.0337 47.0447C25.4719 41.3713 31.2418 37.9352 36.9152 39.3734C42.5887 40.8117 46.0248 46.5815 44.5865 52.2549Z" fill="white"/>
<path d="M43.4065 49.5709C42.6557 52.5325 39.6143 54.3438 36.6527 53.593C33.6911 52.8422 31.8798 49.8008 32.6306 46.8392C33.3813 43.8775 36.4228 42.0663 39.3844 42.817C42.346 43.5678 44.1573 46.6093 43.4065 49.5709Z" fill="black"/>
</g>
<path d="M37.5 66.5L40.824 69.5195C41.1404 69.8069 41.6045 69.8614 41.9789 69.6551L57.8146 60.9307C58.0693 60.7903 58.2503 60.5461 58.3104 60.2616L59 57" stroke="white" stroke-width="3" stroke-linecap="round" stroke-linejoin="round"/>
<path d="M73.9504 35.5395C73.533 36.7518 72.1986 37.3915 70.9699 36.9685C69.7412 36.5454 69.0835 35.2197 69.5009 34.0075C69.9183 32.7952 71.2528 32.1555 72.4814 32.5785C73.7101 33.0016 74.3678 34.3273 73.9504 35.5395Z" fill="#AE1914"/>
<path fill-rule="evenodd" clip-rule="evenodd" d="M73.4794 20.6463C73.7924 19.7371 74.7933 19.2572 75.7148 19.5745C80.1033 21.0855 84.1453 23.412 86.5393 27.047C88.9908 30.7694 89.5047 35.5364 87.4772 41.4248C87.1642 42.334 86.1633 42.8138 85.2418 42.4965C84.3203 42.1792 83.827 41.1849 84.1401 40.2757C85.9087 35.1393 85.3101 31.5438 83.5912 28.9337C81.8146 26.2362 78.6283 24.2604 74.5812 22.867C73.6597 22.5497 73.1664 21.5554 73.4794 20.6463Z" fill="#AE1914"/>
<path fill-rule="evenodd" clip-rule="evenodd" d="M71.2121 27.2312C71.5251 26.322 72.5259 25.8422 73.4474 26.1595C76.0125 27.0426 78.5002 28.4091 80.0275 30.5902C81.6265 32.8738 81.9669 35.7464 80.803 39.1267C80.4899 40.0359 79.4891 40.5157 78.5676 40.1984C77.646 39.8811 77.1528 38.8869 77.4658 37.9777C78.3459 35.4217 77.9696 33.7508 77.1359 32.5601C76.2304 31.267 74.5691 30.2284 72.3138 29.4519C71.3923 29.1347 70.899 28.1404 71.2121 27.2312Z" fill="#AE1914"/>
</g>
<rect x="1.5" y="1.5" width="97" height="97" rx="48.5" stroke="#DDE1FF" stroke-width="3"/>
<defs>
<clipPath id="clip0_229_443">
<rect width="100" height="100" rx="50" fill="white"/>
</clipPath>
<clipPath id="clip1_229_443">
<rect width="21.2029" height="21.2029" fill="white" transform="translate(44.6715 28.5715) rotate(14.225)"/>
</clipPath>
<clipPath id="clip2_229_443">
<rect width="21.2029" height="21.2029" fill="white" transform="translate(26.6388 36.7683) rotate(14.225)"/>
</clipPath>
</defs>
</svg>
