<svg width="100" height="100" viewBox="0 0 100 100" fill="none" xmlns="http://www.w3.org/2000/svg">
<g clip-path="url(#clip0_229_1766)">
<rect width="100" height="100" rx="50" fill="white"/>
<rect x="-7.90247" y="34.1772" width="83.8135" height="83.8135" rx="11" transform="rotate(-15.7487 -7.90247 34.1772)" fill="#224CE7"/>
<path d="M41.4286 52.8572C42.178 54.2404 45.4131 60.4776 54.5433 59.9708C61.6628 59.5756 63.911 54.6356 64.2857 52.8572" stroke="white" stroke-width="3" stroke-linecap="round"/>
<g clip-path="url(#clip1_229_1766)">
<path d="M73.0376 42.067C71.7843 47.011 66.7563 50.0053 61.8123 48.752C56.8683 47.4987 53.874 42.4707 55.1273 37.5267C56.3806 32.5827 61.4086 29.5884 66.3526 30.8417C71.2966 32.095 74.2909 37.123 73.0376 42.067Z" fill="white"/>
<path d="M70.4859 41.0562C69.8316 43.6371 67.1812 45.2155 64.6004 44.5612C62.0195 43.907 60.4411 41.2565 61.0954 38.6757C61.7496 36.0949 64.4001 34.5165 66.9809 35.1707C69.5617 35.825 71.1401 38.4754 70.4859 41.0562Z" fill="black"/>
</g>
<g clip-path="url(#clip2_229_1766)">
<path d="M50.1804 42.2716C48.9271 47.2156 43.8991 50.2099 38.9551 48.9566C34.0111 47.7033 31.0168 42.6753 32.2701 37.7313C33.5234 32.7873 38.5514 29.793 43.4954 31.0463C48.4394 32.2996 51.4338 37.3276 50.1804 42.2716Z" fill="white"/>
<path d="M47.7235 41.056C47.0693 43.6368 44.4189 45.2152 41.838 44.561C39.2572 43.9067 37.6788 41.2563 38.3331 38.6755C38.9873 36.0946 41.6377 34.5162 44.2186 35.1705C46.7994 35.8247 48.3778 38.4752 47.7235 41.056Z" fill="black"/>
</g>
<rect x="1.42859" y="61.1052" width="10" height="8.57143" rx="2" transform="rotate(-17.9277 1.42859 61.1052)" fill="#212121"/>
<rect x="10.943" y="58.0271" width="10" height="8.57143" rx="2" transform="rotate(-17.9277 10.943 58.0271)" fill="#FAFAFA"/>
<rect x="20.4575" y="54.949" width="10" height="8.57143" rx="2" transform="rotate(-17.9277 20.4575 54.949)" fill="#212121"/>
<rect x="39.4865" y="48.7925" width="10" height="8.57143" rx="2" transform="rotate(-17.9277 39.4865 48.7925)" fill="#212121"/>
<rect x="29.9719" y="51.8708" width="10" height="8.57143" rx="2" transform="rotate(-17.9277 29.9719 51.8708)" fill="#FAFAFA"/>
<rect x="2.85718" y="64.2859" width="10" height="8.57143" rx="2" fill="#212121"/>
<rect x="12.8572" y="64.2859" width="10" height="8.57143" rx="2" fill="#FAFAFA"/>
<rect x="22.8572" y="64.2859" width="10" height="8.57143" rx="2" fill="#212121"/>
<rect x="42.8572" y="64.2859" width="10" height="8.57143" rx="2" fill="#212121"/>
<rect x="32.8572" y="64.2859" width="10" height="8.57143" rx="2" fill="#FAFAFA"/>
<rect x="2.85718" y="70.0002" width="50" height="30" rx="2" fill="#212121"/>
<path d="M12.8572 76.7144C12.8572 76.1621 13.3049 75.7144 13.8572 75.7144H52.8572V80.0001H13.8572C13.3049 80.0001 12.8572 79.5524 12.8572 79.0001V76.7144Z" fill="#FAFAFA"/>
<path d="M12.8572 83.8572C12.8572 83.3049 13.3049 82.8572 13.8572 82.8572H52.8572V87.1429H13.8572C13.3049 87.1429 12.8572 86.6952 12.8572 86.1429V83.8572Z" fill="#FAFAFA"/>
</g>
<rect x="1.5" y="1.5" width="97" height="97" rx="48.5" stroke="#DDE1FF" stroke-width="3"/>
<defs>
<clipPath id="clip0_229_1766">
<rect width="100" height="100" rx="50" fill="white"/>
</clipPath>
<clipPath id="clip1_229_1766">
<rect width="18.4769" height="18.4769" fill="white" transform="translate(57.3975 28.5715) rotate(14.225)"/>
</clipPath>
<clipPath id="clip2_229_1766">
<rect width="18.4769" height="18.4769" fill="white" transform="translate(34.5403 28.7761) rotate(14.225)"/>
</clipPath>
</defs>
</svg>
