<svg width="110" height="83" viewBox="0 0 110 83" fill="none" xmlns="http://www.w3.org/2000/svg">
<rect x="7" y="22.5684" width="83.149" height="83.149" rx="11.3313" transform="rotate(-15.7487 7 22.5684)" fill="#224CE7"/>
<path d="M55.9399 41.1001C56.6834 42.4723 59.8928 48.6601 68.9507 48.1573C76.0136 47.7653 78.2441 42.8644 78.6158 41.1001" stroke="white" stroke-width="3.09036" stroke-linecap="round"/>
<g clip-path="url(#clip0_444_2462)">
<path d="M87.2983 30.3958C86.0549 35.3006 81.0668 38.2712 76.162 37.0278C71.2572 35.7844 68.2866 30.7963 69.53 25.8915C70.7734 20.9867 75.7615 18.0161 80.6663 19.2595C85.5711 20.5029 88.5417 25.491 87.2983 30.3958Z" fill="white"/>
<path d="M84.7669 29.3927C84.1178 31.9531 81.4884 33.519 78.928 32.8699C76.3677 32.2208 74.8018 29.5914 75.4508 27.0311C76.0999 24.4707 78.7293 22.9048 81.2897 23.5539C83.85 24.2029 85.4159 26.8323 84.7669 29.3927Z" fill="black"/>
</g>
<g clip-path="url(#clip1_444_2462)">
<path d="M64.6226 30.5989C63.3792 35.5037 58.3911 38.4743 53.4863 37.2309C48.5815 35.9875 45.6109 30.9994 46.8543 26.0946C48.0977 21.1898 53.0858 18.2192 57.9906 19.4626C62.8954 20.706 65.866 25.6941 64.6226 30.5989Z" fill="white"/>
<path d="M62.1853 29.3927C61.5362 31.9531 58.9068 33.519 56.3464 32.8699C53.7861 32.2208 52.2202 29.5914 52.8692 27.0311C53.5183 24.4707 56.1477 22.9048 58.7081 23.5539C61.2684 24.2029 62.8343 26.8323 62.1853 29.3927Z" fill="black"/>
</g>
<rect y="50.8418" width="9.63064" height="8.25483" rx="2" transform="rotate(-17.9277 0 50.8418)" fill="#212121"/>
<rect x="9.16296" y="47.8774" width="9.63064" height="8.25483" rx="2" transform="rotate(-17.9277 9.16296 47.8774)" fill="#FAFAFA"/>
<rect x="18.326" y="44.9131" width="9.63064" height="8.25483" rx="2" transform="rotate(-17.9277 18.326 44.9131)" fill="#212121"/>
<rect x="36.6522" y="38.9839" width="9.63064" height="8.25483" rx="2" transform="rotate(-17.9277 36.6522 38.9839)" fill="#212121"/>
<rect x="27.4891" y="41.9487" width="9.63064" height="8.25483" rx="2" transform="rotate(-17.9277 27.4891 41.9487)" fill="#FAFAFA"/>
<rect x="1.37579" y="53.9053" width="9.63064" height="8.25483" rx="2" fill="#212121"/>
<rect x="11.0065" y="53.9053" width="9.63064" height="8.25483" rx="2" fill="#FAFAFA"/>
<rect x="20.6371" y="53.9053" width="9.63064" height="8.25483" rx="2" fill="#212121"/>
<rect x="39.8984" y="53.9053" width="9.63064" height="8.25483" rx="2" fill="#212121"/>
<rect x="30.2677" y="53.9053" width="9.63064" height="8.25483" rx="2" fill="#FAFAFA"/>
<rect x="1.37579" y="59.4082" width="48.1532" height="28.8919" rx="2" fill="#212121"/>
<path d="M11.0065 65.9116C11.0065 65.3593 11.4542 64.9116 12.0065 64.9116H49.529V69.039H12.0065C11.4542 69.039 11.0065 68.5913 11.0065 68.039V65.9116Z" fill="#FAFAFA"/>
<path d="M11.0065 72.7905C11.0065 72.2382 11.4542 71.7905 12.0065 71.7905H49.529V75.9179H12.0065C11.4542 75.9179 11.0065 75.4702 11.0065 74.9179V72.7905Z" fill="#FAFAFA"/>
<defs>
<clipPath id="clip0_444_2462">
<rect width="18.3304" height="18.3304" fill="white" transform="translate(71.7822 17.0073) rotate(14.225)"/>
</clipPath>
<clipPath id="clip1_444_2462">
<rect width="18.3304" height="18.3304" fill="white" transform="translate(49.1064 17.2104) rotate(14.225)"/>
</clipPath>
</defs>
</svg>
