<svg width="113" height="95" viewBox="0 0 113 95" fill="none" xmlns="http://www.w3.org/2000/svg">
<path d="M51.6217 16.0694C53.6628 12.1001 59.3372 12.1001 61.3783 16.0694L66.5561 26.1389C67.8621 28.6786 70.8982 29.7914 73.5361 28.6972L83.4745 24.5748C87.496 22.9067 91.7648 26.3635 90.9693 30.644L88.6651 43.0418C88.1749 45.6796 89.6646 48.2848 92.1864 49.2003L103.314 53.2397C107.26 54.6723 108.2 59.8259 105.014 62.5593L95.5401 70.6862C93.5482 72.395 93.0457 75.2753 94.3413 77.5576L100.655 88.6791C102.758 92.3845 100.018 96.9685 95.7588 96.8711L84.6024 96.6161C81.829 96.5527 79.4448 98.5699 79.048 101.316L77.3274 113.221C76.6934 117.609 71.3869 119.471 68.1503 116.442L60.2481 109.047C58.1391 107.074 54.8609 107.074 52.7519 109.047L44.8497 116.442C41.6131 119.471 36.3067 117.609 35.6726 113.221L33.952 101.316C33.5552 98.5699 31.171 96.5527 28.3976 96.6161L17.2412 96.8711C12.9816 96.9685 10.242 92.3845 12.3454 88.6791L18.6587 77.5576C19.9543 75.2753 19.4518 72.395 17.4599 70.6862L7.98645 62.5593C4.80008 59.8259 5.74004 54.6723 9.68625 53.2397L20.8136 49.2003C23.3354 48.2848 24.8251 45.6796 24.3349 43.0418L22.0307 30.6439C21.2352 26.3635 25.504 22.9067 29.5255 24.5748L39.4639 28.6972C42.1018 29.7914 45.1379 28.6786 46.4439 26.1389L51.6217 16.0694Z" fill="#F5A218"/>
<g clip-path="url(#clip0_449_2793)">
<path d="M81.6958 65.1148C80.3208 70.5388 74.8046 73.8238 69.3806 72.4488C63.9567 71.0738 60.6716 65.5577 62.0466 60.1337C63.4216 54.7097 68.9378 51.4246 74.3618 52.7996C79.7858 54.1746 83.0708 59.6908 81.6958 65.1148Z" fill="white"/>
<path d="M78.8964 59.8638C78.1786 62.6952 75.2709 64.4268 72.4395 63.7091C69.6081 62.9913 67.8764 60.0836 68.5942 57.2522C69.312 54.4208 72.2197 52.6891 75.0511 53.4069C77.8825 54.1247 79.6141 57.0324 78.8964 59.8638Z" fill="black"/>
</g>
<g clip-path="url(#clip1_449_2793)">
<path d="M51.9178 65.1148C50.5428 70.5388 45.0266 73.8238 39.6026 72.4488C34.1786 71.0738 30.8936 65.5577 32.2686 60.1337C33.6436 54.7097 39.1597 51.4246 44.5837 52.7996C50.0077 54.1746 53.2928 59.6908 51.9178 65.1148Z" fill="white"/>
<path d="M49.2224 59.6392C48.5046 62.4706 45.5969 64.2022 42.7655 63.4845C39.9341 62.7667 38.2024 59.8589 38.9202 57.0276C39.638 54.1962 42.5457 52.4645 45.3771 53.1823C48.2085 53.9 49.9401 56.8078 49.2224 59.6392Z" fill="black"/>
</g>
<path d="M63.161 77.7367C63.161 82.1076 60.299 85.2596 57.2054 85.2596C54.1117 85.2596 51.2497 82.1076 51.2497 77.7367C51.2497 73.3658 54.1117 70.2138 57.2054 70.2138C60.299 70.2138 63.161 73.3658 63.161 77.7367Z" stroke="white" stroke-width="2.19417"/>
<path d="M55.7289 28.5669C53.2822 28.5433 51.3154 30.5746 51.3359 33.1041L51.3695 37.2524C51.3919 40.0215 53.0957 42.5079 55.6256 43.4637C59.428 44.9001 63.4835 42.378 63.9941 38.2595L65.1842 28.6582L55.7289 28.5669Z" fill="#00344F"/>
<path d="M73.6669 3.95303C71.1302 1.29437 66.8832 1.34402 64.4181 4.06129L62.7891 5.85703C58.8937 10.1511 53.8166 13.1902 48.1974 14.5912L44.2903 15.5653C39.4338 16.7762 36.482 21.7093 37.6973 26.5836C38.9126 31.4582 43.8348 34.4279 48.6914 33.217L52.5985 32.2429C58.2177 30.8419 64.1273 31.1416 69.5826 33.1045L71.8641 33.9252C75.3162 35.167 79.0894 33.2171 80.081 29.6787C82.6315 20.5768 80.1919 10.7921 73.6669 3.95303Z" fill="#00679D"/>
<circle cx="45.529" cy="26.8789" r="3.83981" fill="white" fill-opacity="0.9"/>
<circle cx="52.6602" cy="26.3299" r="2.19417" fill="white" fill-opacity="0.9"/>
<defs>
<clipPath id="clip0_449_2793">
<rect width="20.2707" height="20.2707" fill="white" transform="translate(64.5372 50.3091) rotate(14.225)"/>
</clipPath>
<clipPath id="clip1_449_2793">
<rect width="20.2707" height="20.2707" fill="white" transform="translate(34.7591 50.3091) rotate(14.225)"/>
</clipPath>
</defs>
</svg>
