<svg width="24" height="25" viewBox="0 0 24 25" fill="none" xmlns="http://www.w3.org/2000/svg">
<g clip-path="url(#clip0_18_2235)">
<path fill-rule="evenodd" clip-rule="evenodd" d="M12 0.5C18.6274 0.5 24 5.87258 24 12.5C24 18.4895 19.6118 23.454 13.875 24.3542V15.9687H16.6711L17.2031 12.5H13.875V10.25C13.875 9.30102 14.34 8.375 15.8306 8.375H17.3438V5.42187C17.3438 5.42187 17.1841 5.39463 16.9216 5.35872C16.5105 5.30247 15.847 5.22495 15.1498 5.19757C14.9867 5.19116 14.8216 5.1875 14.6576 5.1875C11.9166 5.1875 10.125 6.84875 10.125 9.85625V12.5H7.07812V15.9687H10.125V24.3542C4.3882 23.454 0 18.4895 0 12.5C0 5.87258 5.37258 0.5 12 0.5Z" fill="#224CE7"/>
</g>
<defs>
<clipPath id="clip0_18_2235">
<rect width="24" height="24" fill="white" transform="translate(0 0.5)"/>
</clipPath>
</defs>
</svg>
