<svg width="78" height="70" viewBox="0 0 78 70" fill="none" xmlns="http://www.w3.org/2000/svg">
<g clip-path="url(#clip0_235_2216)">
<rect width="70" height="70" rx="35" fill="white"/>
<path d="M31.6174 16.9806C33.5162 13.523 38.4838 13.523 40.3826 16.9806L41.7712 19.5092C42.9783 21.7072 45.6267 22.6711 47.9641 21.7633L50.6532 20.7188C54.3303 19.2906 58.1358 22.4838 57.3678 26.353L56.8062 29.1826C56.318 31.6422 57.7272 34.083 60.1013 34.89L62.8327 35.8184C66.5675 37.088 67.4301 41.9802 64.3547 44.4505L62.1057 46.2571C60.1507 47.8275 59.6613 50.6031 60.9613 52.7473L62.4568 55.2142C64.5018 58.5874 62.018 62.8896 58.0742 62.8052L55.19 62.7434C52.683 62.6898 50.524 64.5014 50.1415 66.9796L49.7015 69.8307C49.0998 73.7292 44.4317 75.4282 41.4649 72.8285L39.2952 70.9274C37.4092 69.2748 34.5908 69.2748 32.7048 70.9274L30.5351 72.8285C27.5683 75.4282 22.9002 73.7292 22.2985 69.8306L21.8585 66.9796C21.476 64.5014 19.317 62.6898 16.81 62.7434L13.9258 62.8052C9.98202 62.8896 7.49819 58.5874 9.5432 55.2142L11.0387 52.7473C12.3387 50.6031 11.8493 47.8275 9.89433 46.2571L7.64527 44.4505C4.56987 41.9802 5.43251 37.088 9.16735 35.8184L11.8987 34.89C14.2728 34.083 15.682 31.6422 15.1938 29.1826L14.6322 26.353C13.8642 22.4838 17.6697 19.2906 21.3468 20.7188L24.0359 21.7633C26.3733 22.6711 29.0217 21.7072 30.2288 19.5092L31.6174 16.9806Z" fill="#F5A218"/>
<g clip-path="url(#clip1_235_2216)">
<path d="M52.1263 44.4468C51.249 47.9076 47.7294 50.0037 44.2686 49.1263C40.8078 48.249 38.7118 44.7294 39.5891 41.2686C40.4664 37.8078 43.986 35.7118 47.4468 36.5891C50.9076 37.4664 53.0037 40.986 52.1263 44.4468Z" fill="white"/>
<path d="M50.3401 41.0966C49.8822 42.9032 48.0269 44.008 46.2203 43.5501C44.4137 43.0921 43.3088 41.2368 43.7668 39.4302C44.2248 37.6236 46.0801 36.5188 47.8866 36.9767C49.6932 37.4347 50.7981 39.29 50.3401 41.0966Z" fill="black"/>
</g>
<g clip-path="url(#clip2_235_2216)">
<path d="M33.1263 44.4468C32.249 47.9076 28.7294 50.0037 25.2686 49.1263C21.8078 48.249 19.7118 44.7294 20.5891 41.2686C21.4664 37.8078 24.986 35.7118 28.4468 36.5891C31.9076 37.4664 34.0037 40.986 33.1263 44.4468Z" fill="white"/>
<path d="M31.4065 40.953C30.9486 42.7596 29.0933 43.8645 27.2867 43.4065C25.4801 42.9485 24.3752 41.0932 24.8332 39.2867C25.2912 37.4801 27.1465 36.3752 28.953 36.8332C30.7596 37.2912 31.8645 39.1465 31.4065 40.953Z" fill="black"/>
</g>
<path d="M40 52.5C40 55.1823 38.2547 57 36.5 57C34.7453 57 33 55.1823 33 52.5C33 49.8177 34.7453 48 36.5 48C38.2547 48 40 49.8177 40 52.5Z" stroke="white" stroke-width="2"/>
</g>
<rect x="1.5" y="1.5" width="67" height="67" rx="33.5" stroke="black" stroke-width="3"/>
<g filter="url(#filter0_b_235_2216)">
<path d="M78 18.1892C78 24.9211 71.7315 30.3783 64 30.3783C62.6134 30.3802 61.2325 30.2011 59.8927 29.8455C58.8707 30.3609 56.524 31.35 52.576 31.9943C52.226 32.05 51.96 31.6878 52.0982 31.3639C52.7178 29.9082 53.2778 27.9684 53.4457 26.1992C51.302 24.0574 50 21.2539 50 18.1892C50 11.4573 56.2685 6 64 6C71.7315 6 78 11.4573 78 18.1892ZM58.75 18.1892C58.75 17.7273 58.5656 17.2844 58.2374 16.9579C57.9092 16.6313 57.4641 16.4479 57 16.4479C56.5359 16.4479 56.0908 16.6313 55.7626 16.9579C55.4344 17.2844 55.25 17.7273 55.25 18.1892C55.25 18.651 55.4344 19.0939 55.7626 19.4205C56.0908 19.747 56.5359 19.9305 57 19.9305C57.4641 19.9305 57.9092 19.747 58.2374 19.4205C58.5656 19.0939 58.75 18.651 58.75 18.1892ZM65.75 18.1892C65.75 17.7273 65.5656 17.2844 65.2374 16.9579C64.9092 16.6313 64.4641 16.4479 64 16.4479C63.5359 16.4479 63.0908 16.6313 62.7626 16.9579C62.4344 17.2844 62.25 17.7273 62.25 18.1892C62.25 18.651 62.4344 19.0939 62.7626 19.4205C63.0908 19.747 63.5359 19.9305 64 19.9305C64.4641 19.9305 64.9092 19.747 65.2374 19.4205C65.5656 19.0939 65.75 18.651 65.75 18.1892ZM71 19.9305C71.4641 19.9305 71.9092 19.747 72.2374 19.4205C72.5656 19.0939 72.75 18.651 72.75 18.1892C72.75 17.7273 72.5656 17.2844 72.2374 16.9579C71.9092 16.6313 71.4641 16.4479 71 16.4479C70.5359 16.4479 70.0908 16.6313 69.7626 16.9579C69.4344 17.2844 69.25 17.7273 69.25 18.1892C69.25 18.651 69.4344 19.0939 69.7626 19.4205C70.0908 19.747 70.5359 19.9305 71 19.9305Z" fill="#37B5FE"/>
</g>
<circle cx="57" cy="18" r="2" fill="white"/>
<circle cx="64" cy="18" r="2" fill="white"/>
<circle cx="71" cy="18" r="2" fill="white"/>
<defs>
<filter id="filter0_b_235_2216" x="46" y="2" width="36" height="34" filterUnits="userSpaceOnUse" color-interpolation-filters="sRGB">
<feFlood flood-opacity="0" result="BackgroundImageFix"/>
<feGaussianBlur in="BackgroundImageFix" stdDeviation="2"/>
<feComposite in2="SourceAlpha" operator="in" result="effect1_backgroundBlur_235_2216"/>
<feBlend mode="normal" in="SourceGraphic" in2="effect1_backgroundBlur_235_2216" result="shape"/>
</filter>
<clipPath id="clip0_235_2216">
<rect width="70" height="70" rx="35" fill="white"/>
</clipPath>
<clipPath id="clip1_235_2216">
<rect width="12.9338" height="12.9338" fill="white" transform="translate(41.1782 35) rotate(14.225)"/>
</clipPath>
<clipPath id="clip2_235_2216">
<rect width="12.9338" height="12.9338" fill="white" transform="translate(22.1782 35) rotate(14.225)"/>
</clipPath>
</defs>
</svg>
