<svg width="79" height="70" viewBox="0 0 79 70" fill="none" xmlns="http://www.w3.org/2000/svg">
<g clip-path="url(#clip0_235_2217)">
<rect width="70" height="70" rx="35" fill="white"/>
<path d="M23.5 9L49.9138 24.25V54.75L23.5 70L-2.91377 54.75V24.25L23.5 9Z" fill="#37B5FE"/>
<path d="M33.2817 45.0493C33.9647 45.4825 36.9656 47.4706 41.8551 45.0275C45.6677 43.1225 45.9199 40.3793 45.7731 39.4974" stroke="#FFCB24" stroke-width="2" stroke-linecap="round"/>
<path d="M0.5 26.5L23.5 41.5L48 26.5" stroke="white" stroke-opacity="0.5" stroke-linecap="round" stroke-linejoin="round"/>
<path d="M23.5 67.5V41.5" stroke="white" stroke-opacity="0.5" stroke-linecap="round" stroke-linejoin="round"/>
<g opacity="0.5">
<mask id="mask0_235_2217" style="mask-type:alpha" maskUnits="userSpaceOnUse" x="-3" y="9" width="53" height="61">
<path d="M23.5 9L49.9138 24.25V54.75L23.5 70L-2.91377 54.75V24.25L23.5 9Z" fill="#DDE1FF"/>
</mask>
<g mask="url(#mask0_235_2217)">
<mask id="mask1_235_2217" style="mask-type:alpha" maskUnits="userSpaceOnUse" x="-8" y="-17" width="47" height="48">
<path fill-rule="evenodd" clip-rule="evenodd" d="M38.1356 -0.631981C39.1589 4.49925 35.3582 9.05986 33.7656 14.0439C32.1332 19.1529 33.0252 25.7297 28.6993 28.9005C24.3706 32.0734 18.3249 29.9108 12.9967 29.2672C8.27591 28.6969 3.30409 28.4101 -0.36829 25.3895C-3.95655 22.438 -5.346 17.7495 -6.48295 13.2446C-7.56292 8.96551 -7.36673 4.69202 -6.69273 0.330536C-5.8723 -4.97841 -6.30132 -11.301 -2.16084 -14.7236C2.00726 -18.1691 8.17387 -16.7087 13.5741 -16.4226C18.7417 -16.1488 23.9984 -15.9054 28.3512 -13.1069C32.9081 -10.1773 37.0761 -5.94471 38.1356 -0.631981Z" fill="#F5A218"/>
</mask>
<g mask="url(#mask1_235_2217)">
<line x1="-8.27084" y1="-14.4301" x2="29.2556" y2="40.2063" stroke="white"/>
<line x1="-22.7772" y1="-1.84265" x2="14.7492" y2="52.7937" stroke="white"/>
<line x1="-5.42123" y1="-17.0663" x2="32.1052" y2="37.5701" stroke="white"/>
<line x1="-19.9277" y1="-4.47888" x2="17.5987" y2="50.1575" stroke="white"/>
<line x1="-2.57174" y1="-19.7025" x2="34.9547" y2="34.9339" stroke="white"/>
<line x1="-17.0781" y1="-7.11462" x2="20.4483" y2="47.5217" stroke="white"/>
<line x1="0.277749" y1="-22.3387" x2="37.8042" y2="32.2976" stroke="white"/>
<line x1="-14.2286" y1="-9.75085" x2="23.2978" y2="44.8855" stroke="white"/>
<line x1="3.12736" y1="-24.975" x2="40.6538" y2="29.6614" stroke="white"/>
<line x1="-11.3791" y1="-12.3871" x2="26.1473" y2="42.2493" stroke="white"/>
<line x1="5.97685" y1="-27.6112" x2="43.5033" y2="27.0252" stroke="white"/>
<line x1="8.82645" y1="-30.2469" x2="46.3529" y2="24.3894" stroke="white"/>
<line x1="11.6759" y1="-32.8832" x2="49.2024" y2="21.7532" stroke="white"/>
<line x1="14.5254" y1="-35.5194" x2="52.0519" y2="19.117" stroke="white"/>
<line x1="17.375" y1="-38.1556" x2="54.9015" y2="16.4807" stroke="white"/>
<line x1="20.2245" y1="-40.7919" x2="57.751" y2="13.8445" stroke="white"/>
<mask id="mask2_235_2217" style="mask-type:alpha" maskUnits="userSpaceOnUse" x="-8" y="-17" width="47" height="48">
<path fill-rule="evenodd" clip-rule="evenodd" d="M38.1356 -0.632466C39.1589 4.49876 35.3582 9.05938 33.7656 14.0434C32.1332 19.1524 33.0252 25.7293 28.6993 28.9001C24.3706 32.0729 18.3249 29.9103 12.9967 29.2667C8.27591 28.6965 3.30409 28.4097 -0.368293 25.389C-3.95656 22.4376 -5.346 17.749 -6.48296 13.2441C-7.56292 8.96503 -7.36674 4.69153 -6.69273 0.330051C-5.87231 -4.9789 -6.30132 -11.3015 -2.16085 -14.7241C2.00726 -18.1696 8.17387 -16.7092 13.5741 -16.4231C18.7417 -16.1493 23.9984 -15.9059 28.3512 -13.1074C32.9081 -10.1778 37.0761 -5.94519 38.1356 -0.632466Z" fill="#F5A218"/>
</mask>
<g mask="url(#mask2_235_2217)">
<line x1="-7.85869" y1="-14.7136" x2="29.6677" y2="39.9228" stroke="white" stroke-width="2"/>
<line x1="-22.365" y1="-2.12573" x2="15.1614" y2="52.5106" stroke="white" stroke-width="2"/>
<line x1="-5.00908" y1="-17.3499" x2="32.5174" y2="37.2865" stroke="white" stroke-width="2"/>
<line x1="-19.5155" y1="-4.76196" x2="18.0109" y2="49.8744" stroke="white" stroke-width="2"/>
<line x1="-2.15959" y1="-19.9861" x2="35.3668" y2="34.6503" stroke="white" stroke-width="2"/>
<line x1="-16.6659" y1="-7.39819" x2="20.8605" y2="47.2382" stroke="white" stroke-width="2"/>
<line x1="0.689897" y1="-22.6218" x2="38.2163" y2="32.0145" stroke="white" stroke-width="2"/>
<line x1="-13.8165" y1="-10.0344" x2="23.71" y2="44.602" stroke="white" stroke-width="2"/>
<line x1="3.53951" y1="-25.2581" x2="41.0659" y2="29.3783" stroke="white" stroke-width="2"/>
<line x1="-10.967" y1="-12.6707" x2="26.5595" y2="41.9657" stroke="white" stroke-width="2"/>
<line x1="6.38899" y1="-27.8943" x2="43.9154" y2="26.7421" stroke="white" stroke-width="2"/>
<line x1="9.2386" y1="-30.5305" x2="46.765" y2="24.1059" stroke="white" stroke-width="2"/>
<line x1="12.0881" y1="-33.1667" x2="49.6145" y2="21.4696" stroke="white" stroke-width="2"/>
<line x1="14.9376" y1="-35.803" x2="52.464" y2="18.8334" stroke="white" stroke-width="2"/>
<line x1="17.7872" y1="-38.4387" x2="55.3136" y2="16.1977" stroke="white" stroke-width="2"/>
<line x1="20.6367" y1="-41.0749" x2="58.1631" y2="13.5614" stroke="white" stroke-width="2"/>
</g>
</g>
</g>
</g>
<g clip-path="url(#clip1_235_2217)">
<path d="M48.1263 32.4468C47.249 35.9076 43.7294 38.0037 40.2686 37.1263C36.8078 36.249 34.7118 32.7294 35.5891 29.2686C36.4664 25.8078 39.986 23.7118 43.4468 24.5891C46.9076 25.4664 49.0037 28.986 48.1263 32.4468Z" fill="white"/>
<path d="M47.3401 30.953C46.8822 32.7596 45.0269 33.8645 43.2203 33.4065C41.4137 32.9485 40.3088 31.0932 40.7668 29.2867C41.2248 27.4801 43.0801 26.3752 44.8866 26.8332C46.6932 27.2912 47.7981 29.1465 47.3401 30.953Z" fill="black"/>
</g>
<g clip-path="url(#clip2_235_2217)">
<path d="M37.1263 37.4468C36.249 40.9076 32.7294 43.0037 29.2686 42.1263C25.8078 41.249 23.7118 37.7294 24.5891 34.2686C25.4664 30.8078 28.986 28.7118 32.4468 29.5891C35.9076 30.4664 38.0037 33.986 37.1263 37.4468Z" fill="white"/>
<path d="M36.4065 35.8095C35.9486 37.6161 34.0933 38.7209 32.2867 38.263C30.4801 37.805 29.3752 35.9497 29.8332 34.1431C30.2912 32.3365 32.1465 31.2317 33.953 31.6896C35.7596 32.1476 36.8645 34.0029 36.4065 35.8095Z" fill="black"/>
</g>
</g>
<rect x="1.5" y="1.5" width="67" height="67" rx="33.5" stroke="black" stroke-width="3"/>
<g filter="url(#filter0_b_235_2217)">
<path d="M79 20.1892C79 26.9211 72.7315 32.3783 65 32.3783C63.6134 32.3802 62.2325 32.2011 60.8927 31.8455C59.8707 32.3609 57.524 33.35 53.576 33.9943C53.226 34.05 52.96 33.6878 53.0983 33.3639C53.7178 31.9082 54.2777 29.9684 54.4457 28.1992C52.302 26.0574 51 23.2539 51 20.1892C51 13.4573 57.2685 8 65 8C72.7315 8 79 13.4573 79 20.1892ZM59.75 20.1892C59.75 19.7273 59.5656 19.2844 59.2374 18.9579C58.9092 18.6313 58.4641 18.4479 58 18.4479C57.5359 18.4479 57.0908 18.6313 56.7626 18.9579C56.4344 19.2844 56.25 19.7273 56.25 20.1892C56.25 20.651 56.4344 21.0939 56.7626 21.4205C57.0908 21.747 57.5359 21.9305 58 21.9305C58.4641 21.9305 58.9092 21.747 59.2374 21.4205C59.5656 21.0939 59.75 20.651 59.75 20.1892ZM66.75 20.1892C66.75 19.7273 66.5656 19.2844 66.2374 18.9579C65.9092 18.6313 65.4641 18.4479 65 18.4479C64.5359 18.4479 64.0908 18.6313 63.7626 18.9579C63.4344 19.2844 63.25 19.7273 63.25 20.1892C63.25 20.651 63.4344 21.0939 63.7626 21.4205C64.0908 21.747 64.5359 21.9305 65 21.9305C65.4641 21.9305 65.9092 21.747 66.2374 21.4205C66.5656 21.0939 66.75 20.651 66.75 20.1892ZM72 21.9305C72.4641 21.9305 72.9092 21.747 73.2374 21.4205C73.5656 21.0939 73.75 20.651 73.75 20.1892C73.75 19.7273 73.5656 19.2844 73.2374 18.9579C72.9092 18.6313 72.4641 18.4479 72 18.4479C71.5359 18.4479 71.0908 18.6313 70.7626 18.9579C70.4344 19.2844 70.25 19.7273 70.25 20.1892C70.25 20.651 70.4344 21.0939 70.7626 21.4205C71.0908 21.747 71.5359 21.9305 72 21.9305Z" fill="#FFCB24" fill-opacity="0.9"/>
</g>
<circle cx="58" cy="20" r="2" fill="white"/>
<circle cx="65" cy="20" r="2" fill="white"/>
<circle cx="72" cy="20" r="2" fill="white"/>
<defs>
<filter id="filter0_b_235_2217" x="47" y="4" width="36" height="34" filterUnits="userSpaceOnUse" color-interpolation-filters="sRGB">
<feFlood flood-opacity="0" result="BackgroundImageFix"/>
<feGaussianBlur in="BackgroundImageFix" stdDeviation="2"/>
<feComposite in2="SourceAlpha" operator="in" result="effect1_backgroundBlur_235_2217"/>
<feBlend mode="normal" in="SourceGraphic" in2="effect1_backgroundBlur_235_2217" result="shape"/>
</filter>
<clipPath id="clip0_235_2217">
<rect width="70" height="70" rx="35" fill="white"/>
</clipPath>
<clipPath id="clip1_235_2217">
<rect width="12.9338" height="12.9338" fill="white" transform="translate(37.1782 23) rotate(14.225)"/>
</clipPath>
<clipPath id="clip2_235_2217">
<rect width="12.9338" height="12.9338" fill="white" transform="translate(26.1782 28) rotate(14.225)"/>
</clipPath>
</defs>
</svg>
