<svg width="85" height="70" viewBox="0 0 85 70" fill="none" xmlns="http://www.w3.org/2000/svg">
<g clip-path="url(#clip0_235_2215)">
<rect width="70" height="70" rx="35" fill="white"/>
<rect x="-5.53174" y="23.9241" width="58.6695" height="58.6695" rx="11" transform="rotate(-15.7487 -5.53174 23.9241)" fill="#224CE7"/>
<path d="M29 37C29.5246 37.9682 31.7892 42.3343 38.1803 41.9796C43.1639 41.7029 44.7377 38.2449 45 37" stroke="white" stroke-width="3" stroke-linecap="round"/>
<g clip-path="url(#clip1_235_2215)">
<path d="M51.1263 29.4468C50.249 32.9076 46.7294 35.0037 43.2686 34.1263C39.8078 33.249 37.7118 29.7294 38.5891 26.2686C39.4664 22.8078 42.986 20.7118 46.4468 21.5891C49.9076 22.4664 52.0037 25.986 51.1263 29.4468Z" fill="white"/>
<path d="M49.3401 28.7394C48.8822 30.546 47.0269 31.6509 45.2203 31.1929C43.4137 30.7349 42.3088 28.8796 42.7668 27.073C43.2248 25.2665 45.0801 24.1616 46.8866 24.6196C48.6932 25.0775 49.7981 26.9328 49.3401 28.7394Z" fill="black"/>
</g>
<g clip-path="url(#clip2_235_2215)">
<path d="M35.1263 29.5902C34.249 33.0509 30.7294 35.147 27.2686 34.2696C23.8078 33.3923 21.7118 29.8727 22.5891 26.4119C23.4664 22.9511 26.986 20.8551 30.4468 21.7324C33.9076 22.6097 36.0037 26.1294 35.1263 29.5902Z" fill="white"/>
<path d="M33.4065 28.7392C32.9486 30.5457 31.0933 31.6506 29.2867 31.1926C27.4801 30.7347 26.3752 28.8794 26.8332 27.0728C27.2912 25.2662 29.1465 24.1613 30.953 24.6193C32.7596 25.0773 33.8645 26.9326 33.4065 28.7392Z" fill="black"/>
</g>
<rect x="1" y="42.7737" width="7" height="6" rx="2" transform="rotate(-17.9277 1 42.7737)" fill="#212121"/>
<rect x="7.66016" y="40.6189" width="7" height="6" rx="2" transform="rotate(-17.9277 7.66016 40.6189)" fill="#FAFAFA"/>
<rect x="14.3203" y="38.4641" width="7" height="6" rx="2" transform="rotate(-17.9277 14.3203 38.4641)" fill="#212121"/>
<rect x="27.6405" y="34.1548" width="7" height="6" rx="2" transform="rotate(-17.9277 27.6405 34.1548)" fill="#212121"/>
<rect x="20.9803" y="36.3096" width="7" height="6" rx="2" transform="rotate(-17.9277 20.9803 36.3096)" fill="#FAFAFA"/>
<rect x="2" y="45" width="7" height="6" rx="2" fill="#212121"/>
<rect x="9" y="45" width="7" height="6" rx="2" fill="#FAFAFA"/>
<rect x="16" y="45" width="7" height="6" rx="2" fill="#212121"/>
<rect x="30" y="45" width="7" height="6" rx="2" fill="#212121"/>
<rect x="23" y="45" width="7" height="6" rx="2" fill="#FAFAFA"/>
<rect x="2" y="49" width="35" height="21" rx="2" fill="#212121"/>
<path d="M9 54C9 53.4477 9.44772 53 10 53H37V56H10C9.44771 56 9 55.5523 9 55V54Z" fill="#FAFAFA"/>
<path d="M9 59C9 58.4477 9.44772 58 10 58H37V61H10C9.44771 61 9 60.5523 9 60V59Z" fill="#FAFAFA"/>
</g>
<rect x="1.5" y="1.5" width="67" height="67" rx="33.5" stroke="black" stroke-width="3"/>
<g filter="url(#filter0_b_235_2215)">
<path d="M85 29.1892C85 35.9211 78.7315 41.3783 71 41.3783C69.6134 41.3802 68.2325 41.2011 66.8927 40.8455C65.8707 41.3609 63.524 42.35 59.576 42.9943C59.226 43.05 58.96 42.6878 59.0982 42.3639C59.7178 40.9082 60.2778 38.9684 60.4457 37.1992C58.302 35.0574 57 32.2539 57 29.1892C57 22.4573 63.2685 17 71 17C78.7315 17 85 22.4573 85 29.1892ZM65.75 29.1892C65.75 28.7273 65.5656 28.2844 65.2374 27.9579C64.9092 27.6313 64.4641 27.4479 64 27.4479C63.5359 27.4479 63.0908 27.6313 62.7626 27.9579C62.4344 28.2844 62.25 28.7273 62.25 29.1892C62.25 29.651 62.4344 30.0939 62.7626 30.4205C63.0908 30.747 63.5359 30.9305 64 30.9305C64.4641 30.9305 64.9092 30.747 65.2374 30.4205C65.5656 30.0939 65.75 29.651 65.75 29.1892ZM72.75 29.1892C72.75 28.7273 72.5656 28.2844 72.2374 27.9579C71.9092 27.6313 71.4641 27.4479 71 27.4479C70.5359 27.4479 70.0908 27.6313 69.7626 27.9579C69.4344 28.2844 69.25 28.7273 69.25 29.1892C69.25 29.651 69.4344 30.0939 69.7626 30.4205C70.0908 30.747 70.5359 30.9305 71 30.9305C71.4641 30.9305 71.9092 30.747 72.2374 30.4205C72.5656 30.0939 72.75 29.651 72.75 29.1892ZM78 30.9305C78.4641 30.9305 78.9092 30.747 79.2374 30.4205C79.5656 30.0939 79.75 29.651 79.75 29.1892C79.75 28.7273 79.5656 28.2844 79.2374 27.9579C78.9092 27.6313 78.4641 27.4479 78 27.4479C77.5359 27.4479 77.0908 27.6313 76.7626 27.9579C76.4344 28.2844 76.25 28.7273 76.25 29.1892C76.25 29.651 76.4344 30.0939 76.7626 30.4205C77.0908 30.747 77.5359 30.9305 78 30.9305Z" fill="#F5A218"/>
</g>
<circle cx="64" cy="29" r="2" fill="white"/>
<circle cx="71" cy="29" r="2" fill="white"/>
<circle cx="78" cy="29" r="2" fill="white"/>
<defs>
<filter id="filter0_b_235_2215" x="53" y="13" width="36" height="34" filterUnits="userSpaceOnUse" color-interpolation-filters="sRGB">
<feFlood flood-opacity="0" result="BackgroundImageFix"/>
<feGaussianBlur in="BackgroundImageFix" stdDeviation="2"/>
<feComposite in2="SourceAlpha" operator="in" result="effect1_backgroundBlur_235_2215"/>
<feBlend mode="normal" in="SourceGraphic" in2="effect1_backgroundBlur_235_2215" result="shape"/>
</filter>
<clipPath id="clip0_235_2215">
<rect width="70" height="70" rx="35" fill="white"/>
</clipPath>
<clipPath id="clip1_235_2215">
<rect width="12.9338" height="12.9338" fill="white" transform="translate(40.1782 20) rotate(14.225)"/>
</clipPath>
<clipPath id="clip2_235_2215">
<rect width="12.9338" height="12.9338" fill="white" transform="translate(24.1782 20.1433) rotate(14.225)"/>
</clipPath>
</defs>
</svg>
