<svg width="90" height="90" viewBox="0 0 90 90" fill="none" xmlns="http://www.w3.org/2000/svg">
<rect x="1.5" y="1.5" width="87" height="87" rx="21.5" fill="white" fill-opacity="0.4"/>
<rect x="1.5" y="1.5" width="87" height="87" rx="21.5" stroke="white" stroke-width="3"/>
<path d="M22 17.75C22.8192 17.25 23.7624 16.9902 24.722 17H63.548C64.184 17 64.818 17 65.454 17C66.5796 17.023 67.6658 17.4184 68.5426 18.1244C69.4195 18.8305 70.0375 19.8073 70.3 20.902C70.4219 21.4681 70.4703 22.0476 70.444 22.626C70.444 30.076 70.444 37.528 70.444 44.978C69.396 44.978 68.3474 44.978 67.298 44.978C67.1506 44.9837 67.0037 44.9984 66.858 45.022C66.4714 44.9932 66.0835 44.9858 65.696 45C65.096 45.014 64.476 44.972 63.868 45.028C63.6031 44.9912 63.3354 44.9778 63.068 44.988H53.59C53.19 44.988 52.806 45.004 52.416 44.968L52.616 44.838C48.38 42.2954 44.1447 39.7534 39.91 37.212C39.91 39.812 39.91 42.398 39.91 44.99C35.484 44.98 31.056 44.99 26.63 44.99C26.462 44.9947 26.2945 45.0088 26.128 45.032C25.704 44.968 25.274 45 24.844 45C24.276 45.012 23.704 44.97 23.138 45.03C22.9704 45.0049 22.8014 44.9902 22.632 44.986C21.604 44.986 20.5767 44.986 19.55 44.986C19.562 37.716 19.55 30.446 19.55 23.186C19.5076 22.4291 19.5553 21.6697 19.692 20.924C19.8471 20.2684 20.1311 19.6502 20.5273 19.1053C20.9235 18.5604 21.4241 18.0997 22 17.75ZM23.08 22.126C22.8062 22.1921 22.5619 22.3467 22.3851 22.5658C22.2082 22.785 22.1087 23.0565 22.102 23.338C22.102 24.216 22.102 25.094 22.102 25.97C22.1216 26.2912 22.2616 26.5931 22.4941 26.8156C22.7265 27.038 23.0343 27.1646 23.356 27.17C24.228 27.17 25.102 27.17 25.974 27.17C26.289 27.1516 26.5859 27.0171 26.8076 26.7925C27.0292 26.5679 27.1597 26.2692 27.174 25.954C27.184 25.102 27.174 24.248 27.174 23.396C27.1788 23.1627 27.1201 22.9325 27.0042 22.7299C26.8883 22.5274 26.7196 22.3601 26.516 22.246C26.2952 22.1321 26.0482 22.0783 25.8 22.09H23.528C23.3778 22.0864 23.2277 22.0985 23.08 22.126ZM63.762 22.126C63.4935 22.1978 63.2557 22.3551 63.0846 22.5742C62.9135 22.7932 62.8185 23.0621 62.814 23.34C62.814 24.21 62.814 25.082 62.814 25.952C62.8283 26.2672 62.9589 26.5659 63.1805 26.7905C63.4021 27.0151 63.6991 27.1496 64.014 27.168C64.886 27.178 65.758 27.168 66.63 27.168C66.9537 27.1624 67.2631 27.0341 67.4959 26.8092C67.7286 26.5842 67.8674 26.2793 67.884 25.956C67.896 25.08 67.884 24.204 67.884 23.328C67.8763 23.0102 67.7502 22.7067 67.5305 22.477C67.3108 22.2473 67.0132 22.1079 66.696 22.086C66 22.068 65.296 22.086 64.606 22.086C64.3238 22.0719 64.0408 22.088 63.762 22.134V22.126ZM23.084 29.76C22.8789 29.8082 22.689 29.9065 22.5313 30.0462C22.3735 30.1858 22.2528 30.3623 22.18 30.56C22.1062 30.8103 22.0784 31.0719 22.098 31.332C22.098 32.088 22.098 32.846 22.098 33.602C22.1157 33.9145 22.2478 34.2096 22.4691 34.4309C22.6905 34.6522 22.9855 34.7843 23.298 34.802C24.098 34.818 24.888 34.802 25.682 34.802C25.952 34.8241 26.2233 34.7795 26.472 34.672C26.6873 34.567 26.8688 34.4038 26.9961 34.2009C27.1234 33.998 27.1912 33.7635 27.192 33.524C27.192 32.672 27.192 31.818 27.192 30.966C27.1856 30.6452 27.0585 30.3387 26.8361 30.1074C26.6137 29.8761 26.3123 29.7371 25.992 29.718C25.316 29.702 24.638 29.718 23.96 29.718C23.6674 29.7051 23.3741 29.7192 23.084 29.76ZM63.76 29.76C63.5619 29.8137 63.3797 29.9145 63.2289 30.0538C63.0781 30.1931 62.9633 30.3668 62.894 30.56C62.8197 30.8109 62.7919 31.0732 62.812 31.334C62.812 32.088 62.812 32.842 62.812 33.596C62.8271 33.9135 62.9602 34.2138 63.1851 34.4384C63.41 34.6629 63.7106 34.7954 64.028 34.81C64.84 34.822 65.652 34.81 66.464 34.81C66.7267 34.8266 66.9891 34.7728 67.224 34.654C67.4253 34.5449 67.5936 34.3838 67.7115 34.1875C67.8293 33.9913 67.8924 33.767 67.894 33.538C67.894 32.682 67.894 31.826 67.894 30.97C67.8873 30.6521 67.7619 30.3481 67.5424 30.1179C67.3229 29.8877 67.0253 29.7479 66.708 29.726C66.01 29.708 65.308 29.726 64.614 29.726C64.3279 29.7088 64.0408 29.7236 63.758 29.77L63.76 29.76ZM23.082 37.4C22.8069 37.4655 22.5612 37.6204 22.3835 37.8404C22.2058 38.0605 22.1061 38.3332 22.1 38.616C22.1 39.492 22.09 40.37 22.1 41.246C22.1192 41.5673 22.259 41.8695 22.4916 42.0921C22.7241 42.3146 23.0322 42.441 23.354 42.446C24.224 42.446 25.094 42.446 25.954 42.446C26.2715 42.4314 26.5721 42.2989 26.797 42.0744C27.0219 41.8498 27.1549 41.5495 27.17 41.232C27.17 40.36 27.17 39.49 27.17 38.618C27.1644 38.2949 27.0363 37.986 26.8117 37.7536C26.5872 37.5212 26.2828 37.3827 25.96 37.366C25.264 37.352 24.56 37.366 23.87 37.366C23.6069 37.3528 23.3431 37.3642 23.082 37.4ZM63.752 37.412C63.5562 37.4651 63.3758 37.5644 63.2262 37.7015C63.0766 37.8386 62.962 38.0095 62.892 38.2C62.8174 38.4501 62.7896 38.7118 62.81 38.972C62.81 39.726 62.81 40.48 62.81 41.234C62.8246 41.5515 62.9571 41.8521 63.1817 42.077C63.4062 42.3019 63.7066 42.4349 64.024 42.45C64.894 42.46 65.764 42.45 66.636 42.45C66.9597 42.4449 67.2694 42.3172 67.5025 42.0926C67.7356 41.868 67.8748 41.5633 67.892 41.24C67.904 40.364 67.892 39.488 67.892 38.614C67.8853 38.2964 67.7602 37.9927 67.5411 37.7625C67.3221 37.5324 67.025 37.3924 66.708 37.37C66.01 37.35 65.308 37.37 64.616 37.37C64.3285 37.3474 64.0393 37.3575 63.754 37.4L63.752 37.412Z" fill="#224CE7"/>
<path d="M39.916 37.2C44.1507 39.744 48.386 42.286 52.622 44.826L52.422 44.9559C48.2527 47.452 44.0854 49.9506 39.92 52.452C39.92 49.9613 39.92 47.4706 39.92 44.9799C39.918 42.3899 39.912 39.8 39.916 37.2Z" fill="white"/>
<path d="M19.55 44.9761C20.578 44.9761 21.6053 44.9761 22.632 44.9761C22.8014 44.9803 22.9704 44.995 23.138 45.0201C22.8039 45.0869 22.5099 45.2832 22.32 45.5661C22.1417 45.8806 22.0642 46.2422 22.098 46.6021C22.098 47.2981 22.098 48.0021 22.098 48.6921C22.0972 48.8726 22.132 49.0515 22.2005 49.2185C22.269 49.3855 22.3697 49.5374 22.497 49.6654C22.6243 49.7934 22.7756 49.8951 22.9422 49.9645C23.1088 50.034 23.2875 50.0698 23.468 50.0701C24.268 50.0701 25.0627 50.0701 25.852 50.0701C26.1694 50.0636 26.4745 49.9463 26.7145 49.7384C26.9545 49.5306 27.1142 49.2453 27.166 48.9321C27.182 48.0381 27.166 47.1321 27.166 46.2461C27.1617 45.9525 27.0554 45.6696 26.8653 45.4459C26.6751 45.2222 26.413 45.0716 26.124 45.0201C26.2904 44.9968 26.458 44.9828 26.626 44.9781C31.052 44.9781 35.48 44.9781 39.906 44.9781C39.906 47.4688 39.906 49.9594 39.906 52.4501C44.0753 49.9554 48.2427 47.4568 52.408 44.9541C52.808 44.9901 53.19 44.9681 53.582 44.9741H63.064C63.3313 44.9639 63.599 44.9773 63.864 45.0141C63.6538 45.0525 63.4566 45.1431 63.2906 45.2777C63.1246 45.4122 62.9951 45.5864 62.914 45.7841C62.8272 46.0461 62.7965 46.3235 62.824 46.5981C62.824 47.2741 62.824 47.9501 62.824 48.6261C62.8123 48.8132 62.8396 49.0007 62.9042 49.1768C62.9688 49.3528 63.0692 49.5135 63.1991 49.6487C63.329 49.7839 63.4856 49.8906 63.6589 49.9621C63.8323 50.0336 64.0186 50.0683 64.206 50.0641C64.9793 50.0641 65.7527 50.0641 66.526 50.0641C66.8807 50.0654 67.222 49.9289 67.4779 49.6834C67.7339 49.4379 67.8845 49.1025 67.898 48.7481C67.898 48.0921 67.898 47.4361 67.898 46.7801C67.9441 46.3764 67.8747 45.968 67.698 45.6021C67.6055 45.4524 67.4832 45.3233 67.3387 45.2228C67.1942 45.1224 67.0306 45.0527 66.858 45.0181C67.0036 44.9945 67.1506 44.9798 67.298 44.9741C68.346 44.9741 69.3947 44.9741 70.444 44.9741C70.466 48.4161 70.444 51.8601 70.444 55.3041C70.444 59.5001 70.444 63.6954 70.444 67.8901C70.4381 69.1007 70.0045 70.2702 69.22 71.1921C68.4229 72.1306 67.312 72.7476 66.094 72.9281C65.4421 72.9927 64.7867 73.0148 64.132 72.9941H26.448C25.5349 73.0296 24.6204 72.9975 23.712 72.8981C22.7653 72.7217 21.8876 72.2817 21.18 71.6285C20.4723 70.9754 19.9635 70.1357 19.712 69.2061C19.5858 68.719 19.5253 68.2172 19.532 67.7141C19.532 60.7368 19.532 53.7594 19.532 46.7821C19.546 46.1821 19.528 45.5781 19.55 44.9761ZM23.14 52.6621C22.8325 52.7142 22.5564 52.8816 22.368 53.1301C22.1803 53.4021 22.0862 53.7279 22.1 54.0581C22.1 54.8321 22.1 55.6081 22.1 56.3821C22.114 56.7364 22.2647 57.0714 22.5206 57.3168C22.7764 57.5622 23.1175 57.6989 23.472 57.6981C24.328 57.6981 25.182 57.6981 26.038 57.6981C26.37 57.6403 26.6692 57.4624 26.8787 57.1984C27.0881 56.9344 27.1932 56.6026 27.174 56.2661C27.174 55.4661 27.174 54.6781 27.174 53.8841C27.1749 53.712 27.1398 53.5415 27.0709 53.3838C27.002 53.226 26.9009 53.0844 26.774 52.9681C26.5032 52.737 26.1557 52.6157 25.8 52.6281H23.528C23.3979 52.6273 23.268 52.6386 23.14 52.6621ZM63.872 52.6621C63.5914 52.7066 63.3347 52.8461 63.1446 53.0573C62.9546 53.2684 62.8428 53.5384 62.828 53.8221C62.828 54.6361 62.828 55.4521 62.828 56.2661C62.8163 56.453 62.8436 56.6402 62.908 56.816C62.9725 56.9918 63.0728 57.1523 63.2025 57.2873C63.3323 57.4223 63.4886 57.5288 63.6617 57.6003C63.8348 57.6717 64.0208 57.7063 64.208 57.7021C65.064 57.7021 65.922 57.7121 66.778 57.7021C67.0943 57.6385 67.3789 57.4676 67.5837 57.2183C67.7885 56.9691 67.901 56.6567 67.902 56.3341C67.902 55.6581 67.902 54.9828 67.902 54.3081C67.9479 53.9126 67.8614 53.5131 67.656 53.1721C67.5328 53.0061 67.3723 52.8713 67.1875 52.7786C67.0027 52.6858 66.7988 52.6377 66.592 52.6381C65.956 52.6381 65.32 52.6381 64.684 52.6381C64.4132 52.6209 64.1414 52.6303 63.872 52.6621ZM23.142 60.2961C22.9823 60.3218 22.8292 60.3791 22.6919 60.4646C22.5545 60.5501 22.4356 60.6621 22.342 60.7941C22.1685 61.0599 22.0819 61.373 22.094 61.6901C22.094 62.4461 22.094 63.2001 22.094 63.9541C22.0963 64.2891 22.2187 64.6122 22.4388 64.8646C22.659 65.1171 22.9624 65.2823 23.294 65.3301C24.212 65.3301 25.128 65.3301 26.046 65.3301C26.378 65.2718 26.677 65.0935 26.8861 64.8291C27.0952 64.5647 27.1998 64.2326 27.18 63.8961C27.18 63.0961 27.18 62.3121 27.18 61.5181C27.1812 61.3456 27.1462 61.1748 27.0773 61.0167C27.0084 60.8586 26.9071 60.7167 26.78 60.6001C26.511 60.3701 26.1658 60.2488 25.812 60.2601H23.53C23.3998 60.2598 23.2699 60.2718 23.142 60.2961ZM63.866 60.2961C63.6386 60.3323 63.4258 60.4314 63.2519 60.5824C63.0779 60.7333 62.9498 60.93 62.882 61.1501C62.8257 61.3653 62.8061 61.5884 62.824 61.8101C62.824 62.6101 62.824 63.4101 62.824 64.2001C62.8769 64.5121 63.0368 64.796 63.2762 65.0029C63.5156 65.2098 63.8196 65.3269 64.136 65.3341H66.522C66.7076 65.3335 66.8912 65.2953 67.0617 65.222C67.2322 65.1487 67.3862 65.0417 67.5143 64.9074C67.6424 64.7731 67.7421 64.6143 67.8074 64.4405C67.8726 64.2667 67.9021 64.0815 67.894 63.8961C67.894 63.1201 67.894 62.3441 67.894 61.5681C67.8949 61.3535 67.8432 61.142 67.7435 60.952C67.6438 60.762 67.4991 60.5993 67.322 60.4781C66.8277 60.2608 66.2829 60.1846 65.748 60.2581C65.124 60.2781 64.49 60.2181 63.868 60.2941L63.866 60.2961Z" fill="#00228A"/>
</svg>
