<svg width="90" height="90" viewBox="0 0 90 90" fill="none" xmlns="http://www.w3.org/2000/svg">
<g clip-path="url(#clip0_31_6862)">
<rect x="3" y="3" width="84" height="84" rx="20" fill="white" fill-opacity="0.4"/>
<g clip-path="url(#clip1_31_6862)">
<path d="M64.4835 15.6832L14.104 28.6889C11.9399 29.2476 10.6384 31.4548 11.1971 33.6189L20.7346 70.5639C21.2933 72.728 23.5005 74.0294 25.6646 73.4707L76.0442 60.465C78.2083 59.9064 79.5097 57.6991 78.951 55.5351L69.4135 18.59C68.8548 16.4259 66.6476 15.1245 64.4835 15.6832Z" stroke="#E0E0E0" stroke-width="3.75" stroke-linejoin="round"/>
<path d="M73.154 49.2696L69.7954 50.1366C67.6313 50.6953 66.3298 52.9025 66.8885 55.0666L67.7556 58.4252C68.3142 60.5893 70.5214 61.8908 72.6855 61.3321L76.0442 60.4651C78.2082 59.9064 79.5097 57.6992 78.951 55.5351L78.084 52.1764C77.5253 50.0124 75.3181 48.7109 73.154 49.2696Z" stroke="#E0E0E0" stroke-width="3.75" stroke-linejoin="round"/>
<path d="M70.2639 38.074L66.9052 38.9411C64.7411 39.4997 63.4397 41.707 63.9984 43.871L64.8654 47.2297C65.4241 49.3938 67.6313 50.6952 69.7954 50.1365L73.154 49.2695C75.3181 48.7108 76.6195 46.5036 76.0609 44.3395L75.1938 40.9809C74.6352 38.8168 72.4279 37.5154 70.2639 38.074Z" stroke="#E0E0E0" stroke-width="3.75" stroke-linejoin="round"/>
<path d="M67.3737 26.8787L64.0151 27.7458C61.851 28.3044 60.5496 30.5117 61.1082 32.6757L61.9753 36.0344C62.5339 38.1985 64.7412 39.4999 66.9053 38.9412L70.2639 38.0742C72.428 37.5155 73.7294 35.3083 73.1707 33.1442L72.3037 29.7856C71.745 27.6215 69.5378 26.3201 67.3737 26.8787Z" stroke="#E0E0E0" stroke-width="3.75" stroke-linejoin="round"/>
<path d="M64.4836 15.6832L61.125 16.5502C58.9609 17.1089 57.6594 19.3161 58.2181 21.4802L59.0851 24.8388C59.6438 27.0029 61.851 28.3043 64.0151 27.7457L67.3738 26.8786C69.5378 26.32 70.8393 24.1127 70.2806 21.9487L69.4136 18.59C68.8549 16.4259 66.6477 15.1245 64.4836 15.6832Z" stroke="#E0E0E0" stroke-width="3.75" stroke-linejoin="round"/>
<path d="M26.1331 61.4083L22.7745 62.2753C20.6104 62.834 19.309 65.0412 19.8676 67.2053L20.7347 70.5639C21.2933 72.728 23.5006 74.0294 25.6646 73.4708L29.0233 72.6037C31.1874 72.0451 32.4888 69.8378 31.9301 67.6738L31.0631 64.3151C30.5044 62.151 28.2972 60.8496 26.1331 61.4083Z" stroke="#E0E0E0" stroke-width="3.75" stroke-linejoin="round"/>
<path d="M23.243 50.2127L19.8844 51.0798C17.7203 51.6384 16.4188 53.8456 16.9775 56.0097L17.8445 59.3684C18.4032 61.5324 20.6104 62.8339 22.7745 62.2752L26.1332 61.4082C28.2972 60.8495 29.5987 58.6423 29.04 56.4782L28.173 53.1196C27.6143 50.9555 25.4071 49.654 23.243 50.2127Z" stroke="#E0E0E0" stroke-width="3.75" stroke-linejoin="round"/>
<path d="M20.3529 39.0174L16.9942 39.8844C14.8301 40.4431 13.5287 42.6503 14.0874 44.8144L14.9544 48.173C15.5131 50.3371 17.7203 51.6386 19.8844 51.0799L23.243 50.2129C25.4071 49.6542 26.7085 47.447 26.1499 45.2829L25.2828 41.9242C24.7242 39.7602 22.5169 38.4587 20.3529 39.0174Z" stroke="#E0E0E0" stroke-width="3.75" stroke-linejoin="round"/>
<path d="M17.4626 27.8218L14.104 28.6889C11.9399 29.2476 10.6384 31.4548 11.1971 33.6189L12.0641 36.9775C12.6228 39.1416 14.83 40.443 16.9941 39.8843L20.3528 39.0173C22.5168 38.4586 23.8183 36.2514 23.2596 34.0873L22.3926 30.7287C21.8339 28.5646 19.6267 27.2632 17.4626 27.8218Z" stroke="#E0E0E0" stroke-width="3.75" stroke-linejoin="round"/>
<path d="M53.2882 18.5734L25.2995 25.7987C23.1354 26.3574 21.834 28.5646 22.3927 30.7287L26.1499 45.2828C26.7085 47.4469 28.9158 48.7483 31.0798 48.1897L59.0685 40.9643C61.2326 40.4056 62.534 38.1984 61.9753 36.0343L58.2181 21.4802C57.6595 19.3161 55.4523 18.0147 53.2882 18.5734Z" stroke="#E0E0E0" stroke-width="3.75" stroke-linejoin="round"/>
<path d="M59.0684 40.9642L31.0798 48.1896C28.9157 48.7483 27.6143 50.9555 28.1729 53.1196L31.9301 67.6737C32.4888 69.8378 34.696 71.1392 36.8601 70.5805L64.8488 63.3551C67.0128 62.7965 68.3143 60.5893 67.7556 58.4252L63.9984 43.8711C63.4397 41.707 61.2325 40.4056 59.0684 40.9642Z" stroke="#E0E0E0" stroke-width="3.75" stroke-linejoin="round"/>
</g>
<path d="M81.75 23.2828C81.1461 22.5682 80.3907 21.9933 79.5373 21.5989C78.6839 21.2044 77.7533 21 76.8112 21C75.8692 21 74.9385 21.2044 74.0852 21.5989C73.2318 21.9933 72.4764 22.5682 71.8725 23.2828L67.3725 27.7302L48.2475 46.543C47.4356 47.3634 46.7324 48.2825 46.155 49.2782L40.5525 60.5525H32.25C31.6533 60.5525 31.081 60.7868 30.659 61.2038C30.2371 61.6209 30 62.1865 30 62.7763C30 63.366 30.2371 63.9317 30.659 64.3487C31.081 64.7657 31.6533 65 32.25 65H41.25C41.8106 64.9925 42.3482 64.7784 42.7575 64.3996C42.8917 64.4204 43.0283 64.4204 43.1625 64.3996L55.56 58.3288C56.4955 57.7692 57.3571 57.0969 58.125 56.3274L59.385 55.1044L77.25 37.4702L81.75 33.0227C82.4377 32.4027 82.9915 31.6517 83.3782 30.8148C83.7648 29.9779 83.9763 29.0724 84 28.1527C83.9713 27.2339 83.7575 26.33 83.3711 25.4938C82.9848 24.6576 82.4337 23.906 81.75 23.2828ZM54.0075 53.8813L53.4 54.3038L47.1 57.3726L50.0925 51.3018C50.3998 50.8238 50.754 50.3769 51.15 49.9676L52.5225 51.324L54.5925 53.3921L54.0075 53.8813ZM57.81 50.2566L56.055 48.5444L54.3 46.7876L68.925 32.3334L72.435 35.8024L57.81 50.2566ZM78.4875 29.8205L75.6075 32.7559L72.0975 29.2646L75 26.4405C75.4444 25.9094 76.0674 25.5542 76.755 25.4398C77.4413 25.5579 78.063 25.9124 78.51 26.4405C79.0398 26.8859 79.3976 27.4987 79.5225 28.175C79.3864 28.8524 79.0215 29.464 78.4875 29.9095V29.8205Z" fill="#224CE7"/>
</g>
<rect x="1.5" y="1.5" width="87" height="87" rx="21.5" stroke="white" stroke-width="3"/>
<defs>
<clipPath id="clip0_31_6862">
<rect x="3" y="3" width="84" height="84" rx="20" fill="white"/>
</clipPath>
<clipPath id="clip1_31_6862">
<rect width="74" height="74" fill="white" transform="translate(0.00012207 18) rotate(-14.4751)"/>
</clipPath>
</defs>
</svg>
