<svg width="90" height="90" viewBox="0 0 90 90" fill="none" xmlns="http://www.w3.org/2000/svg">
<g clip-path="url(#clip0_31_6844)">
<rect x="3" y="3" width="84" height="84" rx="20" fill="white" fill-opacity="0.4"/>
<g clip-path="url(#clip1_31_6844)">
<path d="M65.5251 17.0525L14.7019 28.1997C12.5188 28.6785 11.1372 30.8364 11.616 33.0196L19.7906 70.2899C20.2694 72.473 22.4274 73.8546 24.6105 73.3758L75.4336 62.2287C77.6168 61.7498 78.9984 59.5919 78.5196 57.4087L70.345 20.1384C69.8662 17.9553 67.7082 16.5737 65.5251 17.0525Z" stroke="#E0E0E0" stroke-width="3.75" stroke-linejoin="round"/>
<path d="M72.9565 50.9345L69.5683 51.6777C67.3851 52.1565 66.0035 54.3145 66.4824 56.4976L67.2255 59.8858C67.7043 62.0689 69.8623 63.4505 72.0454 62.9717L75.4336 62.2286C77.6168 61.7497 78.9984 59.5918 78.5195 57.4087L77.7764 54.0205C77.2976 51.8373 75.1396 50.4557 72.9565 50.9345Z" stroke="#E0E0E0" stroke-width="3.75" stroke-linejoin="round"/>
<path d="M70.4793 39.6406L67.0911 40.3837C64.908 40.8626 63.5264 43.0205 64.0052 45.2036L64.7483 48.5919C65.2272 50.775 67.3851 52.1566 69.5682 51.6778L72.9564 50.9346C75.1396 50.4558 76.5212 48.2978 76.0424 46.1147L75.2992 42.7265C74.8204 40.5434 72.6624 39.1618 70.4793 39.6406Z" stroke="#E0E0E0" stroke-width="3.75" stroke-linejoin="round"/>
<path d="M68.0021 28.3464L64.6139 29.0895C62.4308 29.5684 61.0492 31.7263 61.528 33.9095L62.2712 37.2977C62.75 39.4808 64.9079 40.8624 67.0911 40.3836L70.4793 39.6404C72.6624 39.1616 74.044 37.0037 73.5652 34.8205L72.822 31.4323C72.3432 29.2492 70.1853 27.8676 68.0021 28.3464Z" stroke="#E0E0E0" stroke-width="3.75" stroke-linejoin="round"/>
<path d="M65.5251 17.0525L62.1369 17.7956C59.9537 18.2744 58.5721 20.4324 59.051 22.6155L59.7941 26.0037C60.2729 28.1869 62.4309 29.5685 64.614 29.0896L68.0022 28.3465C70.1854 27.8677 71.567 25.7097 71.0881 23.5266L70.345 20.1384C69.8662 17.9552 67.7082 16.5736 65.5251 17.0525Z" stroke="#E0E0E0" stroke-width="3.75" stroke-linejoin="round"/>
<path d="M25.5215 61.3386L22.1333 62.0817C19.9502 62.5606 18.5686 64.7185 19.0474 66.9016L19.7906 70.2899C20.2694 72.473 22.4273 73.8546 24.6105 73.3758L27.9987 72.6326C30.1818 72.1538 31.5634 69.9958 31.0846 67.8127L30.3415 64.4245C29.8626 62.2414 27.7047 60.8598 25.5215 61.3386Z" stroke="#E0E0E0" stroke-width="3.75" stroke-linejoin="round"/>
<path d="M23.0444 50.0444L19.6562 50.7875C17.473 51.2664 16.0914 53.4243 16.5702 55.6075L17.3134 58.9957C17.7922 61.1788 19.9502 62.5604 22.1333 62.0816L25.5215 61.3384C27.7046 60.8596 29.0863 58.7017 28.6074 56.5185L27.8643 53.1303C27.3854 50.9472 25.2275 49.5656 23.0444 50.0444Z" stroke="#E0E0E0" stroke-width="3.75" stroke-linejoin="round"/>
<path d="M20.5672 38.7505L17.179 39.4936C14.9959 39.9724 13.6142 42.1304 14.0931 44.3135L14.8362 47.7017C15.315 49.8849 17.473 51.2665 19.6561 50.7876L23.0443 50.0445C25.2275 49.5657 26.6091 47.4077 26.1302 45.2246L25.3871 41.8364C24.9083 39.6532 22.7503 38.2716 20.5672 38.7505Z" stroke="#E0E0E0" stroke-width="3.75" stroke-linejoin="round"/>
<path d="M18.0901 27.4565L14.7019 28.1997C12.5188 28.6785 11.1372 30.8364 11.616 33.0196L12.3592 36.4078C12.838 38.5909 14.9959 39.9725 17.1791 39.4937L20.5673 38.7505C22.7504 38.2717 24.132 36.1138 23.6532 33.9306L22.9101 30.5424C22.4312 28.3593 20.2733 26.9777 18.0901 27.4565Z" stroke="#E0E0E0" stroke-width="3.75" stroke-linejoin="round"/>
<path d="M54.231 19.5295L25.9959 25.7224C23.8127 26.2012 22.4311 28.3591 22.91 30.5423L26.1302 45.2245C26.6091 47.4076 28.767 48.7893 30.9502 48.3104L59.1852 42.1176C61.3684 41.6387 62.75 39.4808 62.2712 37.2977L59.0509 22.6154C58.572 20.4323 56.4141 19.0507 54.231 19.5295Z" stroke="#E0E0E0" stroke-width="3.75" stroke-linejoin="round"/>
<path d="M59.1853 42.1176L30.9502 48.3105C28.7671 48.7893 27.3855 50.9473 27.8643 53.1304L31.0846 67.8126C31.5634 69.9958 33.7214 71.3774 35.9045 70.8986L64.1396 64.7057C66.3227 64.2269 67.7043 62.0689 67.2255 59.8858L64.0052 45.2036C63.5264 43.0204 61.3684 41.6388 59.1853 42.1176Z" stroke="#E0E0E0" stroke-width="3.75" stroke-linejoin="round"/>
</g>
<rect x="35" y="21" width="42" height="42" rx="10" fill="#224CE7"/>
<rect x="35" y="21" width="42" height="42" rx="10" stroke="#00228A" stroke-width="4"/>
<path d="M52.0519 49.9921L45.9794 43.3412C45.2969 42.5937 44.1944 42.5937 43.5119 43.3412C42.8294 44.0887 42.8294 45.2962 43.5119 46.0437L50.8269 54.0554C51.5094 54.8029 52.6119 54.8029 53.2944 54.0554L71.8094 33.7771C72.4919 33.0296 72.4919 31.8221 71.8094 31.0746C71.1269 30.3271 70.0244 30.3271 69.3419 31.0746L52.0519 49.9921Z" fill="white"/>
<path fill-rule="evenodd" clip-rule="evenodd" d="M52.0522 48.4436L46.6865 42.5668C45.6135 41.3916 43.8778 41.3916 42.8048 42.5668C41.7317 43.742 41.7317 45.643 42.8048 46.8182L50.1198 54.8298C51.1928 56.0051 52.9285 56.0051 54.0015 54.8298L72.5165 34.5515C73.5895 33.3763 73.5895 31.4753 72.5165 30.3001C71.4435 29.1249 69.7078 29.1249 68.6348 30.3001L52.0522 48.4436ZM69.3419 31.0746C70.0244 30.3271 71.1269 30.3271 71.8094 31.0746C72.4919 31.8221 72.4919 33.0296 71.8094 33.7771L53.2944 54.0554C52.6119 54.8029 51.5094 54.8029 50.8269 54.0554L43.5119 46.0437C42.8294 45.2962 42.8294 44.0887 43.5119 43.3412C44.1944 42.5937 45.2969 42.5937 45.9794 43.3412L52.0519 49.9921L69.3419 31.0746Z" fill="white"/>
</g>
<rect x="1.5" y="1.5" width="87" height="87" rx="21.5" stroke="white" stroke-width="3"/>
<defs>
<clipPath id="clip0_31_6844">
<rect x="3" y="3" width="84" height="84" rx="20" fill="white"/>
</clipPath>
<clipPath id="clip1_31_6844">
<rect width="74" height="74" fill="white" transform="translate(1 17) rotate(-12.3709)"/>
</clipPath>
</defs>
</svg>
