<svg width="90" height="90" viewBox="0 0 90 90" fill="none" xmlns="http://www.w3.org/2000/svg">
<g clip-path="url(#clip0_31_6950)">
<rect x="3" y="3" width="84" height="84" rx="20" fill="white" fill-opacity="0.4"/>
<g clip-path="url(#clip1_31_6950)">
<path d="M60.283 23.4864L13.4054 32.8952C11.3918 33.2993 10.087 35.2593 10.4912 37.273L17.3909 71.6499C17.7951 73.6636 19.7551 74.9683 21.7688 74.5642L68.6464 65.1554C70.66 64.7512 71.9648 62.7912 71.5606 60.7776L64.6609 26.4007C64.2567 24.387 62.2967 23.0823 60.283 23.4864Z" stroke="#E0E0E0" stroke-width="3.75" stroke-linejoin="round"/>
<path d="M66.5555 54.7384L63.4303 55.3656C61.4167 55.7698 60.1119 57.7298 60.5161 59.7434L61.1433 62.8686C61.5475 64.8823 63.5075 66.187 65.5212 65.7829L68.6463 65.1556C70.66 64.7515 71.9647 62.7914 71.5606 60.7778L70.9333 57.6526C70.5292 55.639 68.5692 54.3342 66.5555 54.7384Z" stroke="#E0E0E0" stroke-width="3.75" stroke-linejoin="round"/>
<path d="M64.4647 44.3209L61.3395 44.9481C59.3259 45.3523 58.0211 47.3123 58.4253 49.326L59.0525 52.4511C59.4567 54.4648 61.4167 55.7695 63.4304 55.3654L66.5555 54.7381C68.5692 54.334 69.8739 52.374 69.4698 50.3603L68.8425 47.2351C68.4384 45.2215 66.4783 43.9167 64.4647 44.3209Z" stroke="#E0E0E0" stroke-width="3.75" stroke-linejoin="round"/>
<path d="M62.3739 33.9037L59.2487 34.5309C57.235 34.9351 55.9303 36.8951 56.3345 38.9087L56.9617 42.0339C57.3659 44.0476 59.3259 45.3523 61.3395 44.9482L64.4647 44.3209C66.4784 43.9167 67.7831 41.9567 67.379 39.9431L66.7517 36.8179C66.3475 34.8042 64.3875 33.4995 62.3739 33.9037Z" stroke="#E0E0E0" stroke-width="3.75" stroke-linejoin="round"/>
<path d="M60.2831 23.4864L57.1579 24.1137C55.1442 24.5178 53.8395 26.4778 54.2436 28.4915L54.8709 31.6167C55.275 33.6303 57.2351 34.9351 59.2487 34.5309L62.3739 33.9037C64.3875 33.4995 65.6923 31.5395 65.2881 29.5258L64.6609 26.4007C64.2567 24.387 62.2967 23.0823 60.2831 23.4864Z" stroke="#E0E0E0" stroke-width="3.75" stroke-linejoin="round"/>
<path d="M22.8031 63.5199L19.6779 64.1471C17.6642 64.5513 16.3595 66.5113 16.7637 68.5249L17.3909 71.6501C17.7951 73.6638 19.7551 74.9685 21.7687 74.5644L24.8939 73.9371C26.9076 73.533 28.2123 71.5729 27.8081 69.5593L27.1809 66.4341C26.7767 64.4205 24.8167 63.1157 22.8031 63.5199Z" stroke="#E0E0E0" stroke-width="3.75" stroke-linejoin="round"/>
<path d="M20.7123 53.1026L17.5871 53.7299C15.5734 54.134 14.2687 56.0941 14.6728 58.1077L15.3001 61.2329C15.7042 63.2465 17.6643 64.5513 19.6779 64.1471L22.8031 63.5199C24.8167 63.1157 26.1215 61.1557 25.7173 59.142L25.0901 56.0169C24.6859 54.0032 22.7259 52.6985 20.7123 53.1026Z" stroke="#E0E0E0" stroke-width="3.75" stroke-linejoin="round"/>
<path d="M18.6214 42.6851L15.4963 43.3124C13.4826 43.7166 12.1779 45.6766 12.582 47.6902L13.2093 50.8154C13.6134 52.8291 15.5734 54.1338 17.5871 53.7296L20.7123 53.1024C22.7259 52.6982 24.0307 50.7382 23.6265 48.7246L22.9993 45.5994C22.5951 43.5857 20.6351 42.281 18.6214 42.6851Z" stroke="#E0E0E0" stroke-width="3.75" stroke-linejoin="round"/>
<path d="M16.5306 32.2679L13.4054 32.8952C11.3918 33.2993 10.087 35.2593 10.4912 37.273L11.1184 40.3982C11.5226 42.4118 13.4826 43.7166 15.4963 43.3124L18.6214 42.6852C20.6351 42.281 21.9398 40.321 21.5357 38.3073L20.9084 35.1822C20.5043 33.1685 18.5443 31.8638 16.5306 32.2679Z" stroke="#E0E0E0" stroke-width="3.75" stroke-linejoin="round"/>
<path d="M49.8658 25.5773L23.8227 30.8043C21.809 31.2085 20.5043 33.1685 20.9084 35.1822L23.6265 48.7246C24.0307 50.7382 25.9907 52.043 28.0043 51.6388L54.0475 46.4118C56.0611 46.0076 57.3659 44.0476 56.9617 42.0339L54.2436 28.4915C53.8395 26.4779 51.8794 25.1731 49.8658 25.5773Z" stroke="#E0E0E0" stroke-width="3.75" stroke-linejoin="round"/>
<path d="M54.0474 46.4117L28.0043 51.6388C25.9907 52.043 24.6859 54.003 25.0901 56.0166L27.8082 69.5591C28.2123 71.5727 30.1723 72.8775 32.186 72.4733L58.2291 67.2462C60.2427 66.8421 61.5475 64.882 61.1433 62.8684L58.4253 49.326C58.0211 47.3123 56.0611 46.0076 54.0474 46.4117Z" stroke="#E0E0E0" stroke-width="3.75" stroke-linejoin="round"/>
</g>
<g clip-path="url(#clip2_31_6950)">
<path d="M30.4556 69.4588C29.8724 70.043 28.9269 70.044 28.3418 69.4588C27.7586 68.8747 27.7586 67.9311 28.3418 67.3451L41.4094 54.2804C41.9946 53.6962 42.9381 53.6962 43.5232 54.2804C44.1084 54.8646 44.1084 55.8101 43.5232 56.3933L30.4556 69.4588Z" fill="black"/>
<path d="M61.3571 69.4588C61.9422 70.043 62.8858 70.044 63.4708 69.4588C64.054 68.8747 64.054 67.9311 63.4708 67.3451L50.4062 54.2804C49.82 53.6962 48.8755 53.6962 48.2904 54.2804C47.7053 54.8646 47.7053 55.8101 48.2904 56.3933L61.3571 69.4588Z" fill="black"/>
<path d="M51.5222 52.1335C51.5222 53.0839 50.752 53.855 49.8026 53.855H42.011C41.0616 53.855 40.2914 53.0839 40.2914 52.1335C40.2914 51.1842 41.0615 50.4131 42.011 50.4131H49.8027C50.752 50.4131 51.5222 51.1842 51.5222 52.1335Z" fill="#00228A"/>
<path d="M50.4362 54.912C50.4362 55.6793 49.8132 56.3012 49.0489 56.3012H42.7636C41.9993 56.3012 41.3763 55.6793 41.3763 54.912C41.3763 54.1456 41.9993 53.5237 42.7636 53.5237H49.0489C49.8132 53.5248 50.4362 54.1457 50.4362 54.912Z" fill="#00228A"/>
<path d="M70.5215 29.054H66.3549V46.2649H70.5215V29.054Z" fill="#224CE7"/>
<path d="M77.3135 49.5229L70.2483 46.2621V29.0512L77.3135 25.7903V49.5229Z" fill="#224CE7"/>
<path d="M77.3135 49.5229L70.2483 43.0013V32.312L77.3135 25.7903V49.5229Z" fill="#00228A"/>
<path d="M71.1667 31.8594H67V43.4545H71.1667V31.8594Z" fill="#00228A"/>
<path d="M68.0328 47.5466C68.0328 49.8474 66.1669 51.7123 63.8681 51.7123H27.9464C25.6456 51.7123 23.7817 49.8474 23.7817 47.5466V27.7645C23.7817 25.4647 25.6456 23.6008 27.9464 23.6008H63.8679C66.1668 23.6008 68.0326 25.4647 68.0326 27.7645V47.5466H68.0328Z" fill="#00228A"/>
<path d="M23.7819 27.7645C23.7819 25.4647 25.6457 23.6008 27.9466 23.6008H63.8681C66.1669 23.6008 68.0328 25.4647 68.0328 27.7645" fill="#224CE7"/>
<path d="M78.2183 49.6129C78.2183 49.9888 77.916 50.2921 77.5391 50.2921C77.1643 50.2921 76.86 49.9889 76.86 49.6129V25.7001C76.86 25.3243 77.1641 25.021 77.5391 25.021C77.916 25.021 78.2183 25.3242 78.2183 25.7001V49.6129Z" fill="#224CE7"/>
<path d="M60.7603 39.3549C61.6982 39.3549 62.4585 38.5946 62.4585 37.6567C62.4585 36.7188 61.6982 35.9585 60.7603 35.9585C59.8224 35.9585 59.0621 36.7188 59.0621 37.6567C59.0621 38.5946 59.8224 39.3549 60.7603 39.3549Z" fill="#224CE7"/>
<path d="M59.5599 36.4562C60.2226 35.7926 61.2969 35.7926 61.9615 36.4562C62.6242 37.1199 62.6242 38.1951 61.9615 38.8578" fill="#37B5FE"/>
<path d="M31.7537 42.1246C31.7537 42.3485 31.5706 42.5315 31.3449 42.5315H27.3603C27.1356 42.5315 26.9515 42.3493 26.9515 42.1246C26.9515 41.8999 27.1347 41.7168 27.3603 41.7168H31.3449C31.5696 41.7168 31.7537 41.8998 31.7537 42.1246Z" fill="#CAE6FF"/>
<path d="M31.7537 44.0262C31.7537 44.2509 31.5706 44.4341 31.3449 44.4341H27.3603C27.1356 44.4341 26.9515 44.2519 26.9515 44.0262C26.9515 43.8015 27.1347 43.6184 27.3603 43.6184H31.3449C31.5696 43.6184 31.7537 43.8015 31.7537 44.0262Z" fill="#CAE6FF"/>
<path d="M31.7537 45.9288C31.7537 46.1527 31.5706 46.3366 31.3449 46.3366H27.3603C27.1356 46.3366 26.9515 46.1535 26.9515 45.9288C26.9515 45.7041 27.1347 45.521 27.3603 45.521H31.3449C31.5696 45.5209 31.7537 45.704 31.7537 45.9288Z" fill="#CAE6FF"/>
<path d="M31.7537 47.8304C31.7537 48.0551 31.5706 48.2383 31.3449 48.2383H27.3603C27.1356 48.2383 26.9515 48.0561 26.9515 47.8304C26.9515 47.6066 27.1347 47.4226 27.3603 47.4226H31.3449C31.5696 47.4226 31.7537 47.6057 31.7537 47.8304Z" fill="#CAE6FF"/>
<path d="M35.0542 30.6408C39.649 30.6408 43.3739 26.916 43.3739 22.3212C43.3739 17.7263 39.649 14.0015 35.0542 14.0015C30.4593 14.0015 26.7345 17.7263 26.7345 22.3212C26.7345 26.916 30.4593 30.6408 35.0542 30.6408Z" fill="#CAE6FF"/>
<path d="M29.1681 16.4369C32.4173 13.1877 37.6854 13.1877 40.9346 16.4369C44.1848 19.6861 44.1848 24.9552 40.9346 28.2034" fill="#00228A"/>
<path d="M51.6781 30.6418C56.2735 30.6418 59.9988 26.9165 59.9988 22.3212C59.9988 17.7258 56.2735 14.0005 51.6781 14.0005C47.0827 14.0005 43.3574 17.7258 43.3574 22.3212C43.3574 26.9165 47.0827 30.6418 51.6781 30.6418Z" fill="#CAE6FF"/>
<path d="M45.8007 16.4369C49.0498 13.1877 54.317 13.1877 57.5662 16.4369C60.8164 19.6861 60.8164 24.9552 57.5662 28.2034" fill="#00228A"/>
<path d="M47.4011 74.5052C47.4011 75.3315 46.7316 75.9999 45.9063 75.9999C45.0809 75.9999 44.4115 75.3315 44.4115 74.5052V56.028C44.4115 55.2007 45.0809 54.5332 45.9063 54.5332C46.7316 54.5332 47.4011 55.2007 47.4011 56.028V74.5052Z" fill="black"/>
</g>
</g>
<rect x="1.5" y="1.5" width="87" height="87" rx="21.5" stroke="white" stroke-width="3"/>
<defs>
<clipPath id="clip0_31_6950">
<rect x="3" y="3" width="84" height="84" rx="20" fill="white"/>
</clipPath>
<clipPath id="clip1_31_6950">
<rect width="68" height="68" fill="white" transform="translate(1 22.3809) rotate(-11.349)"/>
</clipPath>
<clipPath id="clip2_31_6950">
<rect width="62" height="62" fill="white" transform="translate(20 14)"/>
</clipPath>
</defs>
</svg>
