<svg width="90" height="90" viewBox="0 0 90 90" fill="none" xmlns="http://www.w3.org/2000/svg">
<g clip-path="url(#clip0_31_6910)">
<rect x="3" y="3" width="84" height="84" rx="20" fill="white" fill-opacity="0.4"/>
<g clip-path="url(#clip1_31_6910)">
<path d="M62.283 21.4864L15.4054 30.8952C13.3918 31.2993 12.087 33.2593 12.4912 35.273L19.3909 69.6499C19.7951 71.6636 21.7551 72.9683 23.7688 72.5642L70.6464 63.1554C72.66 62.7512 73.9648 60.7912 73.5606 58.7776L66.6609 24.4007C66.2567 22.387 64.2967 21.0823 62.283 21.4864Z" stroke="#E0E0E0" stroke-width="3.75" stroke-linejoin="round"/>
<path d="M68.5555 52.7384L65.4303 53.3656C63.4167 53.7698 62.1119 55.7298 62.5161 57.7434L63.1433 60.8686C63.5475 62.8823 65.5075 64.187 67.5212 63.7829L70.6463 63.1556C72.66 62.7515 73.9647 60.7914 73.5606 58.7778L72.9333 55.6526C72.5292 53.639 70.5692 52.3342 68.5555 52.7384Z" stroke="#E0E0E0" stroke-width="3.75" stroke-linejoin="round"/>
<path d="M66.4647 42.3209L63.3395 42.9481C61.3259 43.3523 60.0211 45.3123 60.4253 47.326L61.0525 50.4511C61.4567 52.4648 63.4167 53.7695 65.4304 53.3654L68.5555 52.7381C70.5692 52.334 71.8739 50.374 71.4698 48.3603L70.8425 45.2351C70.4384 43.2215 68.4783 41.9167 66.4647 42.3209Z" stroke="#E0E0E0" stroke-width="3.75" stroke-linejoin="round"/>
<path d="M64.3739 31.9037L61.2487 32.5309C59.235 32.9351 57.9303 34.8951 58.3345 36.9087L58.9617 40.0339C59.3659 42.0476 61.3259 43.3523 63.3395 42.9482L66.4647 42.3209C68.4784 41.9167 69.7831 39.9567 69.379 37.9431L68.7517 34.8179C68.3475 32.8042 66.3875 31.4995 64.3739 31.9037Z" stroke="#E0E0E0" stroke-width="3.75" stroke-linejoin="round"/>
<path d="M62.2831 21.4864L59.1579 22.1137C57.1442 22.5178 55.8395 24.4778 56.2436 26.4915L56.8709 29.6167C57.275 31.6303 59.2351 32.9351 61.2487 32.5309L64.3739 31.9037C66.3875 31.4995 67.6923 29.5395 67.2881 27.5258L66.6609 24.4007C66.2567 22.387 64.2967 21.0823 62.2831 21.4864Z" stroke="#E0E0E0" stroke-width="3.75" stroke-linejoin="round"/>
<path d="M24.8031 61.5199L21.6779 62.1471C19.6642 62.5513 18.3595 64.5113 18.7637 66.5249L19.3909 69.6501C19.7951 71.6638 21.7551 72.9685 23.7687 72.5644L26.8939 71.9371C28.9076 71.533 30.2123 69.5729 29.8081 67.5593L29.1809 64.4341C28.7767 62.4205 26.8167 61.1157 24.8031 61.5199Z" stroke="#E0E0E0" stroke-width="3.75" stroke-linejoin="round"/>
<path d="M22.7123 51.1026L19.5871 51.7299C17.5734 52.134 16.2687 54.0941 16.6728 56.1077L17.3001 59.2329C17.7042 61.2465 19.6643 62.5513 21.6779 62.1471L24.8031 61.5199C26.8167 61.1157 28.1215 59.1557 27.7173 57.142L27.0901 54.0169C26.6859 52.0032 24.7259 50.6985 22.7123 51.1026Z" stroke="#E0E0E0" stroke-width="3.75" stroke-linejoin="round"/>
<path d="M20.6214 40.6851L17.4963 41.3124C15.4826 41.7166 14.1779 43.6766 14.582 45.6902L15.2093 48.8154C15.6134 50.8291 17.5734 52.1338 19.5871 51.7296L22.7123 51.1024C24.7259 50.6982 26.0307 48.7382 25.6265 46.7246L24.9993 43.5994C24.5951 41.5857 22.6351 40.281 20.6214 40.6851Z" stroke="#E0E0E0" stroke-width="3.75" stroke-linejoin="round"/>
<path d="M18.5306 30.2679L15.4054 30.8952C13.3918 31.2993 12.087 33.2593 12.4912 35.273L13.1184 38.3982C13.5226 40.4118 15.4826 41.7166 17.4963 41.3124L20.6214 40.6852C22.6351 40.281 23.9398 38.321 23.5357 36.3073L22.9084 33.1822C22.5043 31.1685 20.5443 29.8638 18.5306 30.2679Z" stroke="#E0E0E0" stroke-width="3.75" stroke-linejoin="round"/>
<path d="M51.8658 23.5773L25.8227 28.8043C23.809 29.2085 22.5043 31.1685 22.9084 33.1822L25.6265 46.7246C26.0307 48.7382 27.9907 50.043 30.0043 49.6388L56.0475 44.4118C58.0611 44.0076 59.3659 42.0476 58.9617 40.0339L56.2436 26.4915C55.8395 24.4779 53.8794 23.1731 51.8658 23.5773Z" stroke="#E0E0E0" stroke-width="3.75" stroke-linejoin="round"/>
<path d="M56.0474 44.4117L30.0043 49.6388C27.9907 50.043 26.6859 52.003 27.0901 54.0166L29.8082 67.5591C30.2123 69.5727 32.1723 70.8775 34.186 70.4733L60.2291 65.2462C62.2427 64.8421 63.5475 62.882 63.1433 60.8684L60.4253 47.326C60.0211 45.3123 58.0611 44.0076 56.0474 44.4117Z" stroke="#E0E0E0" stroke-width="3.75" stroke-linejoin="round"/>
</g>
<path d="M32.25 34.1667C32.25 29.5414 32.2551 26.3156 32.5824 23.8817C32.9003 21.5173 33.4817 20.2653 34.3735 19.3735C35.2653 18.4817 36.5173 17.9003 38.8817 17.5824C41.3156 17.2551 44.5414 17.25 49.1667 17.25H58.8333C63.4586 17.25 66.6844 17.2551 69.1182 17.5824C71.4827 17.9003 72.7347 18.4817 73.6265 19.3735C74.5182 20.2653 75.0997 21.5173 75.4177 23.8817C75.7449 26.3156 75.75 29.5414 75.75 34.1667V43.8333C75.75 48.4586 75.7449 51.6844 75.4177 54.1182C75.0997 56.4827 74.5182 57.7347 73.6265 58.6265C72.7347 59.5182 71.4827 60.0997 69.1182 60.4177C66.6844 60.7449 63.4586 60.75 58.8333 60.75H49.1667C44.5414 60.75 41.3156 60.7449 38.8817 60.4177C36.5173 60.0997 35.2653 59.5182 34.3735 58.6265C33.4817 57.7347 32.9003 56.4827 32.5824 54.1182C32.2551 51.6844 32.25 48.4586 32.25 43.8333V34.1667Z" fill="#DDE1FF"/>
<path fill-rule="evenodd" clip-rule="evenodd" d="M32.6647 17.6646C29.8334 20.4958 29.8334 25.0528 29.8334 34.1666V43.8333C29.8334 52.947 29.8334 57.5039 32.6647 60.3352C35.496 63.1666 40.0529 63.1666 49.1667 63.1666H58.8334C67.9471 63.1666 72.5042 63.1666 75.3353 60.3352C78.1667 57.5041 78.1667 52.947 78.1667 43.8333V34.1666C78.1667 27.3048 78.1667 23.0262 76.9584 20.1223V51.0833C74.6374 51.0833 72.4114 50.1613 70.77 48.5199L68.9537 46.7035C67.2105 44.9604 66.3388 44.0887 65.3506 43.7214C64.2644 43.3178 63.0691 43.3178 61.9828 43.7214C60.9946 44.0887 60.1229 44.9604 58.3798 46.7035L58.1064 46.9769C56.6917 48.3916 55.9846 49.0987 55.233 49.2306C54.6489 49.3331 54.0476 49.2174 53.5433 48.9054C52.8944 48.5037 52.5005 47.5844 51.7124 45.7456L51.5834 45.4444C49.7718 41.2172 48.8659 39.1036 47.2857 38.3114C46.4902 37.9127 45.6 37.7413 44.7133 37.816C42.9519 37.9646 41.3259 39.5908 38.0739 42.8427L33.4584 47.4583V16.9778C33.179 17.1859 32.9151 17.4141 32.6647 17.6646Z" fill="#224CE7"/>
<path d="M32.25 34.1667C32.25 29.5414 32.2551 26.3156 32.5824 23.8817C32.9003 21.5173 33.4817 20.2653 34.3735 19.3735C35.2653 18.4817 36.5173 17.9003 38.8817 17.5824C41.3156 17.2551 44.5414 17.25 49.1667 17.25H58.8333C63.4586 17.25 66.6844 17.2551 69.1182 17.5824C71.4827 17.9003 72.7347 18.4817 73.6265 19.3735C74.5182 20.2653 75.0997 21.5173 75.4177 23.8817C75.7449 26.3156 75.75 29.5414 75.75 34.1667V43.8333C75.75 48.4586 75.7449 51.6844 75.4177 54.1182C75.0997 56.4827 74.5182 57.7347 73.6265 58.6265C72.7347 59.5182 71.4827 60.0997 69.1182 60.4177C66.6844 60.7449 63.4586 60.75 58.8333 60.75H49.1667C44.5414 60.75 41.3156 60.7449 38.8817 60.4177C36.5173 60.0997 35.2653 59.5182 34.3735 58.6265C33.4817 57.7347 32.9003 56.4827 32.5824 54.1182C32.2551 51.6844 32.25 48.4586 32.25 43.8333V34.1667Z" stroke="#224CE7" stroke-width="4"/>
<path d="M61.25 36.5834C63.9193 36.5834 66.0833 34.4195 66.0833 31.7501C66.0833 29.0807 63.9193 26.9167 61.25 26.9167C58.5806 26.9167 56.4166 29.0807 56.4166 31.7501C56.4166 34.4195 58.5806 36.5834 61.25 36.5834Z" fill="#224CE7"/>
</g>
<rect x="1.5" y="1.5" width="87" height="87" rx="21.5" stroke="white" stroke-width="3"/>
<defs>
<clipPath id="clip0_31_6910">
<rect x="3" y="3" width="84" height="84" rx="20" fill="white"/>
</clipPath>
<clipPath id="clip1_31_6910">
<rect width="68" height="68" fill="white" transform="translate(3 20.3809) rotate(-11.349)"/>
</clipPath>
</defs>
</svg>
