<svg width="90" height="90" viewBox="0 0 90 90" fill="none" xmlns="http://www.w3.org/2000/svg">
<g clip-path="url(#clip0_31_6932)">
<rect x="3" y="3" width="84" height="84" rx="20" fill="white" fill-opacity="0.4"/>
<path d="M34.5 60C47.4787 60 58 49.4787 58 36.5C58 23.5213 47.4787 13 34.5 13C21.5213 13 11 23.5213 11 36.5C11 49.4787 21.5213 60 34.5 60Z" fill="#FFCB24"/>
<path d="M19.5816 34.3797C21.1077 34.3797 22.3449 33.1425 22.3449 31.6164C22.3449 30.0902 21.1077 28.853 19.5816 28.853C18.0554 28.853 16.8182 30.0902 16.8182 31.6164C16.8182 33.1425 18.0554 34.3797 19.5816 34.3797Z" fill="#1E252B"/>
<path d="M46.6549 31.6169C46.6549 30.0911 47.8927 28.854 49.419 28.854C50.9445 28.854 52.1818 30.0911 52.1818 31.6169C52.1818 33.1433 50.9445 34.3809 49.419 34.3809C47.8927 34.3807 46.6549 33.1431 46.6549 31.6169Z" fill="#1E252B"/>
<path d="M19.8679 41.3774C20.8274 43.0947 24.9693 50.8383 36.6588 50.2091C45.7739 49.7185 48.6523 43.5854 49.1321 41.3774" stroke="black" stroke-width="3" stroke-linecap="round"/>
<path d="M68.9333 42.692C58.1702 39.5483 46.8969 45.7251 43.7532 56.4884C42.3367 61.3383 42.818 66.2897 44.7531 70.5561C43.1315 72.8353 40.8665 74.548 38.2925 75.5001C39.5009 76.3509 40.866 77.0238 42.3632 77.4611C44.927 78.2099 47.5325 78.1775 49.9284 77.5073C52.0733 79.3727 54.6419 80.819 57.5496 81.6682C68.3134 84.8121 79.5868 78.6356 82.7303 67.8727C85.8738 57.1093 79.6971 45.8358 68.9333 42.692Z" fill="#224CE7"/>
<path d="M70.5033 55.1164H55.9792C55.326 55.1164 54.7968 54.5869 54.7968 53.9337C54.7968 53.2805 55.3263 52.7515 55.9792 52.7515H70.5033C71.1565 52.7515 71.6862 53.2805 71.6862 53.9337C71.6862 54.5869 71.1565 55.1164 70.5033 55.1164Z" fill="white"/>
<path d="M74.9089 60.6142H51.5743C50.9211 60.6142 50.3918 60.0847 50.3918 59.432C50.3918 58.7788 50.9211 58.249 51.5743 58.249H74.9089C75.5621 58.249 76.0916 58.7788 76.0916 59.432C76.0916 60.0847 75.5623 60.6142 74.9089 60.6142Z" fill="white"/>
<path d="M72.6582 66.1108H53.8263C53.1735 66.1108 52.6438 65.581 52.6438 64.9278C52.6438 64.2744 53.1735 63.7456 53.8263 63.7456H72.6582C73.3112 63.7456 73.8409 64.2746 73.8409 64.9278C73.8409 65.5808 73.3114 66.1108 72.6582 66.1108Z" fill="white"/>
<path d="M70.5031 71.6098H55.979C55.3258 71.6098 54.7965 71.0798 54.7965 70.4264C54.7965 69.7734 55.326 69.2439 55.979 69.2439H70.5031C71.1562 69.2439 71.686 69.7734 71.686 70.4264C71.686 71.0798 71.1562 71.6098 70.5031 71.6098Z" fill="white"/>
</g>
<rect x="1.5" y="1.5" width="87" height="87" rx="21.5" stroke="white" stroke-width="3"/>
<defs>
<clipPath id="clip0_31_6932">
<rect x="3" y="3" width="84" height="84" rx="20" fill="white"/>
</clipPath>
</defs>
</svg>
