<svg width="24" height="25" viewBox="0 0 24 25" fill="none" xmlns="http://www.w3.org/2000/svg">
<g clip-path="url(#clip0_18_2239)">
<path fill-rule="evenodd" clip-rule="evenodd" d="M22.7466 5.33407C23.119 5.70883 23.3864 6.17482 23.5221 6.68541C24.0239 8.56995 24.0239 12.5 24.0239 12.5C24.0239 12.5 24.0239 16.43 23.5221 18.3145C23.3864 18.8251 23.119 19.2911 22.7466 19.6658C22.3743 20.0406 21.91 20.311 21.4003 20.45C19.5239 20.9545 12.0239 20.9545 12.0239 20.9545C12.0239 20.9545 4.52393 20.9545 2.64756 20.45C2.13786 20.311 1.67358 20.0406 1.30121 19.6658C0.928842 19.2911 0.661431 18.8251 0.525744 18.3145C0.0239258 16.43 0.0239258 12.5 0.0239258 12.5C0.0239258 12.5 0.0239258 8.56995 0.525744 6.68541C0.661431 6.17482 0.928842 5.70883 1.30121 5.33407C1.67358 4.9593 2.13786 4.68891 2.64756 4.54996C4.52393 4.04541 12.0239 4.04541 12.0239 4.04541C12.0239 4.04541 19.5239 4.04541 21.4003 4.54996C21.91 4.68891 22.3743 4.9593 22.7466 5.33407ZM15.8421 12.5L9.5694 8.93135V16.0686L15.8421 12.5Z" fill="#224CE7"/>
</g>
<defs>
<clipPath id="clip0_18_2239">
<rect width="24" height="24" fill="white" transform="translate(0 0.5)"/>
</clipPath>
</defs>
</svg>
