<svg width="53" height="59" viewBox="0 0 53 59" fill="none" xmlns="http://www.w3.org/2000/svg">
<rect x="10" y="17" width="42" height="42" rx="21" fill="#FFCB24"/>
<g clip-path="url(#clip0_183_600)">
<path d="M51.1263 29.7562C50.249 33.217 46.7294 35.313 43.2686 34.4357C39.8078 33.5583 37.7118 30.0387 38.5891 26.5779C39.4664 23.1171 42.986 21.0211 46.4468 21.8984C49.9076 22.7758 52.0037 26.2954 51.1263 29.7562Z" fill="white"/>
<path d="M50.7582 29.0487C50.3002 30.8553 48.445 31.9602 46.6384 31.5022C44.8318 31.0442 43.7269 29.1889 44.1849 27.3824C44.6429 25.5758 46.4982 24.4709 48.3047 24.9289C50.1113 25.3869 51.2162 27.2422 50.7582 29.0487Z" fill="black"/>
</g>
<g clip-path="url(#clip1_183_600)">
<path d="M39.7081 29.8995C38.8308 33.3603 35.3112 35.4563 31.8504 34.579C28.3896 33.7017 26.2936 30.182 27.1709 26.7212C28.0482 23.2605 31.5678 21.1644 35.0286 22.0418C38.4894 22.9191 40.5854 26.4387 39.7081 29.8995Z" fill="white"/>
<path d="M39.4064 29.0485C38.9484 30.8551 37.0931 31.9599 35.2866 31.502C33.48 31.044 32.3751 29.1887 32.8331 27.3821C33.2911 25.5755 35.1463 24.4707 36.9529 24.9286C38.7595 25.3866 39.8644 27.2419 39.4064 29.0485Z" fill="black"/>
</g>
<path d="M32 39C32.5246 39.9682 34.7892 44.3343 41.1803 43.9796C46.1639 43.7029 47.7377 40.2449 48 39" stroke="black" stroke-width="3" stroke-linecap="round"/>
<g clip-path="url(#clip2_183_600)">
<path d="M6.90111 20.0161C5.47308 17.7901 6.21499 14.7669 8.5582 13.2638C8.77078 13.1274 8.98923 13.0082 9.21181 12.9059C8.80446 11.1464 9.56994 9.20112 11.2496 8.12363C12.9292 7.04614 15.0165 7.16136 16.4459 8.26517C16.6318 8.10547 16.8312 7.9566 17.0437 7.82024C19.3869 6.31707 22.4441 6.90306 23.8722 9.12911C24.9324 10.7819 24.7965 12.8742 23.697 14.4574L24.3693 15.5053C25.3444 17.0254 25.8319 17.7854 25.6378 18.5765C25.4436 19.3676 23.7747 21.4758 22.1747 22.5022L19.7601 24.0511C18.1601 25.0776 15.5522 25.713 14.7522 25.5596C13.9522 25.4063 13.4646 24.6463 12.4895 23.1262L11.8173 22.0784C9.91983 22.4176 7.96139 21.6689 6.90111 20.0161Z" fill="white"/>
<path d="M9.42064 13.3602L9.79082 13.19L9.69892 12.7931C9.34077 11.2461 10.012 9.51155 11.5195 8.54447C13.0271 7.5774 14.8836 7.69041 16.1403 8.66091L16.4628 8.90992L16.7718 8.6444C16.94 8.49982 17.1208 8.36487 17.3137 8.24109C19.4451 6.87381 22.1853 7.42555 23.4513 9.39909C24.3924 10.8661 24.2815 12.7392 23.2863 14.1723L23.0959 14.4464L23.2762 14.7274L23.9484 15.7753C24.444 16.5478 24.7861 17.0833 24.9875 17.5226C25.1816 17.9461 25.2122 18.2129 25.1522 18.4573C25.1243 18.571 25.0218 18.7935 24.8191 19.109C24.6246 19.4117 24.3618 19.7636 24.0526 20.1271C23.4305 20.8585 22.6495 21.6035 21.9047 22.0813L19.4902 23.6303C18.7454 24.1081 17.7437 24.5067 16.8207 24.7665C16.3618 24.8957 15.933 24.9876 15.5771 25.0379C15.2064 25.0904 14.9615 25.0907 14.8463 25.0686L14.7522 25.5596L14.8463 25.0686C14.5991 25.0212 14.3694 24.8822 14.0654 24.5292C13.7501 24.163 13.406 23.6288 12.9104 22.8563L12.2382 21.8084L12.0579 21.5274L11.7293 21.5862C10.0118 21.8932 8.26308 21.2132 7.32196 19.7462C6.05592 17.7726 6.69679 15.0519 8.82818 13.6846C9.02114 13.5608 9.21915 13.4528 9.42064 13.3602Z" stroke="black"/>
<path d="M17.0605 20.4729L18.7666 23.3164M20.4727 18.7668L22.1787 21.0416" stroke="black" stroke-linecap="round"/>
</g>
<defs>
<clipPath id="clip0_183_600">
<rect width="12.9338" height="12.9338" fill="white" transform="translate(40.1782 20.3093) rotate(14.225)"/>
</clipPath>
<clipPath id="clip1_183_600">
<rect width="12.9338" height="12.9338" fill="white" transform="translate(28.76 20.4526) rotate(14.225)"/>
</clipPath>
<clipPath id="clip2_183_600">
<rect width="24.1955" height="22.9857" fill="white" transform="translate(0 13.0645) rotate(-32.6804)"/>
</clipPath>
</defs>
</svg>
