<svg width="19" height="20" viewBox="0 0 19 20" fill="none" xmlns="http://www.w3.org/2000/svg">
<path d="M9.50053 20C8.34136 20 7.31063 16.9933 6.99642 12.6883L6.99324 12.6402L6.94759 12.6369C2.85653 12.305 0 11.2201 0 10C0 8.77989 2.85653 7.69497 6.94653 7.36425L6.99218 7.36089L6.99536 7.31285C7.31063 3.0067 8.34136 0 9.50053 0C10.6597 0 11.6904 3.0067 12.0046 7.31173L12.0078 7.35978L12.0535 7.36313C16.1435 7.69497 19 8.77877 19 9.99888C19 11.219 16.1435 12.3039 12.0535 12.6346L12.0078 12.638L12.0046 12.686C11.6894 16.9911 10.6597 19.9978 9.50053 19.9978V20Z" fill="#224CE7"/>
</svg>
