<svg width="20" height="20" viewBox="0 0 20 20" fill="none" xmlns="http://www.w3.org/2000/svg">
<path id="Vector" d="M10.0005 20C8.84136 20 7.81063 16.9933 7.49642 12.6883L7.49324 12.6402L7.44759 12.6369C3.35653 12.305 0.5 11.2201 0.5 10C0.5 8.77989 3.35653 7.69497 7.44653 7.36425L7.49218 7.36089L7.49536 7.31285C7.81063 3.0067 8.84136 0 10.0005 0C11.1597 0 12.1904 3.0067 12.5046 7.31173L12.5078 7.35978L12.5535 7.36313C16.6435 7.69497 19.5 8.77877 19.5 9.99888C19.5 11.219 16.6435 12.3039 12.5535 12.6346L12.5078 12.638L12.5046 12.686C12.1894 16.9911 11.1597 19.9978 10.0005 19.9978V20Z" fill="black"/>
</svg>
